Walleye-Bold.ufo
<glyph name="exclam" format="1">
  <advance width="266"/>
  <unicode hex="0021"/>
  <outline>
    <contour>
      <point x="60" y="640" type="curve"/>
      <point x="80" y="637"/>
      <point x="103" y="636"/>
      <point x="127" y="636" type="curve" smooth="yes"/>
      <point x="157" y="636"/>
      <point x="187" y="638"/>
      <point x="208" y="641" type="curve"/>
      <point x="175" y="471"/>
      <point x="167" y="418"/>
      <point x="151" y="207" type="curve"/>
      <point x="111" y="207" type="line"/>
      <point x="104" y="355"/>
      <point x="83" y="505"/>
    </contour>
    <contour>
      <point x="128" y="-14" type="curve"/>
      <point x="74" y="-15"/>
      <point x="58" y="25"/>
      <point x="58" y="55" type="curve" smooth="yes"/>
      <point x="58" y="93"/>
      <point x="82" y="127"/>
      <point x="134" y="130" type="curve" smooth="yes"/>
      <point x="185" y="133"/>
      <point x="204" y="96"/>
      <point x="204" y="64" type="curve" smooth="yes"/>
      <point x="204" y="25"/>
      <point x="186" y="-11"/>
    </contour>
  </outline>
</glyph>
<glyph name="numbersign" format="1">
  <advance width="532"/>
  <unicode hex="0023"/>
  <outline>
    <contour>
      <point x="29" y="435" type="line"/>
      <point x="40" y="475" type="line"/>
      <point x="190" y="475" type="line"/>
      <point x="220" y="636" type="line"/>
      <point x="271" y="642" type="line"/>
      <point x="235" y="475" type="line"/>
      <point x="373" y="475" type="line"/>
      <point x="384" y="529"/>
      <point x="394" y="583"/>
      <point x="404" y="636" type="curve"/>
      <point x="455" y="642" type="line"/>
      <point x="443" y="587"/>
      <point x="431" y="531"/>
      <point x="420" y="475" type="curve"/>
      <point x="515" y="475" type="line"/>
      <point x="503" y="435" type="line"/>
      <point x="410" y="435" type="line"/>
      <point x="395" y="363"/>
      <point x="384" y="301"/>
      <point x="370" y="230" type="curve"/>
      <point x="515" y="230" type="line"/>
      <point x="503" y="188" type="line"/>
      <point x="361" y="188" type="line"/>
      <point x="327" y="2" type="line"/>
      <point x="275" y="-6" type="line"/>
      <point x="290" y="61"/>
      <point x="301" y="119"/>
      <point x="315" y="188" type="curve"/>
      <point x="177" y="188" type="line"/>
      <point x="143" y="2" type="line"/>
      <point x="91" y="-6" type="line"/>
      <point x="106" y="61"/>
      <point x="118" y="119"/>
      <point x="132" y="188" type="curve"/>
      <point x="29" y="188" type="line"/>
      <point x="40" y="230" type="line"/>
      <point x="141" y="230" type="line"/>
      <point x="156" y="301"/>
      <point x="167" y="363"/>
      <point x="181" y="435" type="curve"/>
    </contour>
    <contour>
      <point x="226" y="435" type="line"/>
      <point x="211" y="363"/>
      <point x="200" y="301"/>
      <point x="186" y="230" type="curve"/>
      <point x="325" y="230" type="line"/>
      <point x="340" y="301"/>
      <point x="351" y="363"/>
      <point x="365" y="435" type="curve"/>
    </contour>
  </outline>
</glyph>
<glyph name="dollar" format="1">
  <advance width="496"/>
  <unicode hex="0024"/>
  <outline>
    <contour>
      <point x="233" y="686" type="curve"/>
      <point x="281" y="685" type="line"/>
      <point x="279" y="647" type="line"/>
      <point x="309" y="645"/>
      <point x="339" y="639"/>
      <point x="372" y="627" type="curve"/>
      <point x="378" y="609"/>
      <point x="416" y="520"/>
      <point x="423" y="508" type="curve"/>
      <point x="390" y="492" type="line"/>
      <point x="360" y="546"/>
      <point x="323" y="581"/>
      <point x="277" y="592" type="curve"/>
      <point x="268" y="396" type="line"/>
      <point x="358" y="359"/>
      <point x="453" y="325"/>
      <point x="453" y="191" type="curve" smooth="yes"/>
      <point x="453" y="128"/>
      <point x="408" y="2"/>
      <point x="252" y="-13" type="curve"/>
      <point x="252" y="-27"/>
      <point x="251" y="-42"/>
      <point x="251" y="-56" type="curve"/>
      <point x="203" y="-55" type="line"/>
      <point x="203" y="-42"/>
      <point x="204" y="-28"/>
      <point x="205" y="-15" type="curve"/>
      <point x="154" y="-13"/>
      <point x="97" y="-4"/>
      <point x="57" y="26" type="curve"/>
      <point x="46" y="66"/>
      <point x="35" y="119"/>
      <point x="16" y="158" type="curve"/>
      <point x="50" y="175" type="line"/>
      <point x="101" y="84"/>
      <point x="156" y="49"/>
      <point x="207" y="41" type="curve"/>
      <point x="211" y="117"/>
      <point x="215" y="200"/>
      <point x="218" y="284" type="curve"/>
      <point x="210" y="287"/>
      <point x="202" y="290"/>
      <point x="194" y="294" type="curve" smooth="yes"/>
      <point x="124" y="323"/>
      <point x="48" y="368"/>
      <point x="48" y="471" type="curve" smooth="yes"/>
      <point x="48" y="555"/>
      <point x="121" y="637"/>
      <point x="232" y="647" type="curve"/>
      <point x="232" y="660"/>
      <point x="232" y="674"/>
    </contour>
    <contour>
      <point x="370" y="151" type="curve" smooth="yes"/>
      <point x="370" y="201"/>
      <point x="329" y="232"/>
      <point x="262" y="264" type="curve"/>
      <point x="259" y="187"/>
      <point x="256" y="111"/>
      <point x="254" y="41" type="curve"/>
      <point x="320" y="47"/>
      <point x="370" y="81"/>
    </contour>
    <contour>
      <point x="135" y="516" type="curve" smooth="yes"/>
      <point x="135" y="465"/>
      <point x="167" y="439"/>
      <point x="224" y="414" type="curve"/>
      <point x="230" y="596" type="line"/>
      <point x="164" y="592"/>
      <point x="135" y="553"/>
    </contour>
  </outline>
</glyph>
<glyph name="percent" format="1">
  <advance width="715"/>
  <unicode hex="0025"/>
  <outline>
    <contour>
      <point x="64" y="-10" type="curve"/>
      <point x="221" y="163"/>
      <point x="335" y="348"/>
      <point x="455" y="522" type="curve"/>
      <point x="410" y="501"/>
      <point x="387" y="488"/>
      <point x="346" y="488" type="curve" smooth="yes"/>
      <point x="329" y="488"/>
      <point x="310" y="490"/>
      <point x="285" y="495" type="curve"/>
      <point x="289" y="478"/>
      <point x="291" y="462"/>
      <point x="291" y="448" type="curve" smooth="yes"/>
      <point x="291" y="434"/>
      <point x="289" y="422"/>
      <point x="286" y="411" type="curve" smooth="yes"/>
      <point x="277" y="380"/>
      <point x="255" y="334"/>
      <point x="226" y="310" type="curve" smooth="yes"/>
      <point x="209" y="297"/>
      <point x="180" y="283"/>
      <point x="147" y="283" type="curve" smooth="yes"/>
      <point x="128" y="283"/>
      <point x="107" y="288"/>
      <point x="87" y="299" type="curve" smooth="yes"/>
      <point x="57" y="316"/>
      <point x="34" y="357"/>
      <point x="34" y="405" type="curve" smooth="yes"/>
      <point x="34" y="433"/>
      <point x="42" y="463"/>
      <point x="60" y="492" type="curve" smooth="yes"/>
      <point x="91" y="544"/>
      <point x="160" y="615"/>
      <point x="214" y="652" type="curve"/>
      <point x="309" y="611"/>
      <point x="373" y="579"/>
      <point x="436" y="579" type="curve" smooth="yes"/>
      <point x="482" y="579"/>
      <point x="525" y="607"/>
      <point x="559" y="647" type="curve"/>
      <point x="595" y="634" type="line"/>
      <point x="443" y="434"/>
      <point x="343" y="271"/>
      <point x="160" y="0" type="curve"/>
      <point x="151" y="1"/>
      <point x="141" y="2"/>
      <point x="130" y="2" type="curve" smooth="yes"/>
      <point x="112" y="2"/>
      <point x="90" y="-1"/>
    </contour>
    <contour>
      <point x="386" y="145" type="curve" smooth="yes"/>
      <point x="386" y="191"/>
      <point x="401" y="240"/>
      <point x="434" y="276" type="curve" smooth="yes"/>
      <point x="457" y="302"/>
      <point x="496" y="327"/>
      <point x="530" y="342" type="curve" smooth="yes"/>
      <point x="541" y="347"/>
      <point x="553" y="349"/>
      <point x="565" y="349" type="curve" smooth="yes"/>
      <point x="591" y="349"/>
      <point x="617" y="337"/>
      <point x="638" y="314" type="curve" smooth="yes"/>
      <point x="663" y="287"/>
      <point x="682" y="243"/>
      <point x="684" y="205" type="curve" smooth="yes"/>
      <point x="687" y="152"/>
      <point x="681" y="107"/>
      <point x="639" y="59" type="curve" smooth="yes"/>
      <point x="625" y="44"/>
      <point x="581" y="8"/>
      <point x="552" y="-2" type="curve" smooth="yes"/>
      <point x="539" y="-7"/>
      <point x="527" y="-9"/>
      <point x="514" y="-9" type="curve" smooth="yes"/>
      <point x="485" y="-9"/>
      <point x="455" y="4"/>
      <point x="429" y="32" type="curve" smooth="yes"/>
      <point x="400" y="62"/>
      <point x="386" y="111"/>
    </contour>
    <contour>
      <point x="583" y="83" type="curve" smooth="yes"/>
      <point x="593" y="88"/>
      <point x="598" y="104"/>
      <point x="598" y="126" type="curve" smooth="yes"/>
      <point x="598" y="163"/>
      <point x="584" y="214"/>
      <point x="554" y="247" type="curve" smooth="yes"/>
      <point x="546" y="255"/>
      <point x="515" y="277"/>
      <point x="497" y="266" type="curve" smooth="yes"/>
      <point x="486" y="259"/>
      <point x="477" y="238"/>
      <point x="477" y="211" type="curve" smooth="yes"/>
      <point x="477" y="184"/>
      <point x="486" y="150"/>
      <point x="509" y="118" type="curve" smooth="yes"/>
      <point x="531" y="87"/>
      <point x="564" y="73"/>
    </contour>
    <contour>
      <point x="150" y="532" type="curve"/>
      <point x="137" y="517"/>
      <point x="132" y="497"/>
      <point x="132" y="476" type="curve" smooth="yes"/>
      <point x="132" y="449"/>
      <point x="141" y="422"/>
      <point x="155" y="407" type="curve" smooth="yes"/>
      <point x="175" y="386"/>
      <point x="212" y="375"/>
      <point x="229" y="394" type="curve" smooth="yes"/>
      <point x="237" y="402"/>
      <point x="240" y="413"/>
      <point x="240" y="424" type="curve" smooth="yes"/>
      <point x="240" y="445"/>
      <point x="229" y="468"/>
      <point x="220" y="481" type="curve" smooth="yes"/>
      <point x="203" y="503"/>
      <point x="186" y="515"/>
    </contour>
  </outline>
</glyph>
<glyph name="ampersand" format="1">
  <advance width="770"/>
  <unicode hex="0026"/>
  <outline>
    <contour>
      <point x="137" y="5" type="curve" smooth="yes"/>
      <point x="90" y="29"/>
      <point x="47" y="74"/>
      <point x="32" y="131" type="curve" smooth="yes"/>
      <point x="29" y="143"/>
      <point x="27" y="156"/>
      <point x="27" y="168" type="curve" smooth="yes"/>
      <point x="27" y="215"/>
      <point x="50" y="263"/>
      <point x="90" y="300" type="curve"/>
      <point x="124" y="330"/>
      <point x="148" y="347"/>
      <point x="171" y="363" type="curve"/>
      <point x="142" y="393"/>
      <point x="121" y="425"/>
      <point x="121" y="464" type="curve" smooth="yes"/>
      <point x="121" y="486"/>
      <point x="128" y="511"/>
      <point x="145" y="538" type="curve" smooth="yes"/>
      <point x="161" y="563"/>
      <point x="208" y="605"/>
      <point x="237" y="621" type="curve"/>
      <point x="263" y="637"/>
      <point x="287" y="644"/>
      <point x="317" y="644" type="curve" smooth="yes"/>
      <point x="331" y="644"/>
      <point x="347" y="642"/>
      <point x="365" y="639" type="curve" smooth="yes"/>
      <point x="404" y="632"/>
      <point x="431" y="627"/>
      <point x="458" y="621" type="curve"/>
      <point x="425" y="575"/>
      <point x="407" y="525"/>
      <point x="400" y="499" type="curve"/>
      <point x="353" y="524"/>
      <point x="241" y="580"/>
      <point x="215" y="550" type="curve" smooth="yes"/>
      <point x="207" y="541"/>
      <point x="204" y="531"/>
      <point x="204" y="520" type="curve" smooth="yes"/>
      <point x="204" y="484"/>
      <point x="240" y="442"/>
      <point x="264" y="419" type="curve" smooth="yes"/>
      <point x="329" y="357"/>
      <point x="374" y="316"/>
      <point x="493" y="227" type="curve"/>
      <point x="527" y="264"/>
      <point x="539" y="302"/>
      <point x="543" y="346" type="curve"/>
      <point x="529" y="349"/>
      <point x="519" y="351"/>
      <point x="508" y="351" type="curve" smooth="yes"/>
      <point x="496" y="351"/>
      <point x="484" y="349"/>
      <point x="470" y="345" type="curve"/>
      <point x="483" y="369"/>
      <point x="492" y="390"/>
      <point x="511" y="415" type="curve"/>
      <point x="526" y="419"/>
      <point x="534" y="422"/>
      <point x="552" y="422" type="curve" smooth="yes"/>
      <point x="560" y="422"/>
      <point x="569" y="421"/>
      <point x="581" y="420" type="curve" smooth="yes"/>
      <point x="617" y="415"/>
      <point x="644" y="413"/>
      <point x="667" y="413" type="curve" smooth="yes"/>
      <point x="703" y="413"/>
      <point x="728" y="418"/>
      <point x="759" y="426" type="curve"/>
      <point x="736" y="385"/>
      <point x="725" y="340"/>
      <point x="718" y="300" type="curve"/>
      <point x="663" y="298"/>
      <point x="622" y="325"/>
      <point x="599" y="332" type="curve"/>
      <point x="580" y="260"/>
      <point x="567" y="255"/>
      <point x="529" y="202" type="curve"/>
      <point x="609" y="150"/>
      <point x="648" y="135"/>
      <point x="737" y="110" type="curve"/>
      <point x="708" y="89"/>
      <point x="671" y="19"/>
      <point x="656" y="-17" type="curve"/>
      <point x="562" y="29"/>
      <point x="513" y="66"/>
      <point x="458" y="110" type="curve"/>
      <point x="429" y="77"/>
      <point x="376" y="40"/>
      <point x="350" y="25" type="curve" smooth="yes"/>
      <point x="305" y="-1"/>
      <point x="261" y="-14"/>
      <point x="219" y="-14" type="curve" smooth="yes"/>
      <point x="190" y="-14"/>
      <point x="163" y="-8"/>
    </contour>
    <contour>
      <point x="202" y="330" type="curve"/>
      <point x="159" y="294"/>
      <point x="134" y="253"/>
      <point x="134" y="211" type="curve" smooth="yes"/>
      <point x="134" y="199"/>
      <point x="136" y="187"/>
      <point x="141" y="175" type="curve" smooth="yes"/>
      <point x="154" y="138"/>
      <point x="189" y="105"/>
      <point x="225" y="87" type="curve" smooth="yes"/>
      <point x="245" y="78"/>
      <point x="264" y="74"/>
      <point x="284" y="74" type="curve" smooth="yes"/>
      <point x="333" y="74"/>
      <point x="381" y="99"/>
      <point x="421" y="139" type="curve"/>
      <point x="333" y="206"/>
      <point x="234" y="293"/>
    </contour>
  </outline>
</glyph>
<glyph name="quotesingle" format="1">
  <advance width="262"/>
  <unicode hex="0027"/>
  <outline>
    <contour>
      <point x="59" y="704" type="curve"/>
      <point x="78" y="702"/>
      <point x="104" y="701"/>
      <point x="131" y="701" type="curve" smooth="yes"/>
      <point x="157" y="701"/>
      <point x="184" y="702"/>
      <point x="203" y="704" type="curve"/>
      <point x="179" y="625"/>
      <point x="154" y="505"/>
      <point x="148" y="439" type="curve"/>
      <point x="107" y="439" type="line"/>
      <point x="104" y="513"/>
      <point x="80" y="631"/>
    </contour>
  </outline>
</glyph>
<glyph name="parenleft" format="1">
  <advance width="356"/>
  <unicode hex="0028"/>
  <outline>
    <contour>
      <point x="185" y="-134" type="curve" smooth="yes"/>
      <point x="139" y="-99"/>
      <point x="110" y="-60"/>
      <point x="83" y="14" type="curve" smooth="yes"/>
      <point x="65" y="62"/>
      <point x="56" y="146"/>
      <point x="56" y="232" type="curve" smooth="yes"/>
      <point x="56" y="322"/>
      <point x="66" y="413"/>
      <point x="87" y="468" type="curve" smooth="yes"/>
      <point x="113" y="538"/>
      <point x="139" y="575"/>
      <point x="197" y="619" type="curve" smooth="yes"/>
      <point x="215" y="633"/>
      <point x="272" y="661"/>
      <point x="307" y="670" type="curve"/>
      <point x="316" y="630" type="line"/>
      <point x="300" y="623"/>
      <point x="283" y="613"/>
      <point x="271" y="602" type="curve" smooth="yes"/>
      <point x="229" y="566"/>
      <point x="210" y="535"/>
      <point x="192" y="475" type="curve"/>
      <point x="172" y="413"/>
      <point x="163" y="330"/>
      <point x="163" y="246" type="curve" smooth="yes"/>
      <point x="163" y="161"/>
      <point x="172" y="76"/>
      <point x="189" y="12" type="curve" smooth="yes"/>
      <point x="203" y="-43"/>
      <point x="225" y="-92"/>
      <point x="263" y="-121" type="curve" smooth="yes"/>
      <point x="282" y="-135"/>
      <point x="294" y="-145"/>
      <point x="316" y="-156" type="curve"/>
      <point x="303" y="-193" type="line"/>
      <point x="264" y="-181"/>
      <point x="227" y="-165"/>
    </contour>
  </outline>
</glyph>
<glyph name="parenright" format="1">
  <advance width="356"/>
  <unicode hex="0029"/>
  <outline>
    <contour>
      <point x="171" y="610" type="curve" smooth="yes"/>
      <point x="217" y="575"/>
      <point x="246" y="536"/>
      <point x="273" y="462" type="curve" smooth="yes"/>
      <point x="291" y="414"/>
      <point x="300" y="330"/>
      <point x="300" y="244" type="curve" smooth="yes"/>
      <point x="300" y="154"/>
      <point x="290" y="63"/>
      <point x="269" y="8" type="curve" smooth="yes"/>
      <point x="243" y="-62"/>
      <point x="217" y="-99"/>
      <point x="159" y="-143" type="curve" smooth="yes"/>
      <point x="141" y="-157"/>
      <point x="84" y="-185"/>
      <point x="49" y="-194" type="curve"/>
      <point x="40" y="-154" type="line"/>
      <point x="56" y="-147"/>
      <point x="73" y="-137"/>
      <point x="85" y="-126" type="curve" smooth="yes"/>
      <point x="127" y="-90"/>
      <point x="146" y="-59"/>
      <point x="164" y="1" type="curve"/>
      <point x="184" y="63"/>
      <point x="193" y="146"/>
      <point x="193" y="230" type="curve" smooth="yes"/>
      <point x="193" y="315"/>
      <point x="184" y="400"/>
      <point x="167" y="464" type="curve" smooth="yes"/>
      <point x="153" y="519"/>
      <point x="131" y="568"/>
      <point x="93" y="597" type="curve" smooth="yes"/>
      <point x="74" y="611"/>
      <point x="62" y="621"/>
      <point x="40" y="632" type="curve"/>
      <point x="53" y="669" type="line"/>
      <point x="92" y="657"/>
      <point x="129" y="641"/>
    </contour>
  </outline>
</glyph>
<glyph name="asterisk" format="1">
  <advance width="404"/>
  <unicode hex="002A"/>
  <outline>
    <contour>
      <point x="54" y="337" type="curve"/>
      <point x="95" y="369"/>
      <point x="142" y="409"/>
      <point x="175" y="450" type="curve"/>
      <point x="126" y="460"/>
      <point x="64" y="466"/>
      <point x="19" y="468" type="curve"/>
      <point x="30" y="494"/>
      <point x="44" y="531"/>
      <point x="50" y="559" type="curve"/>
      <point x="93" y="529"/>
      <point x="138" y="500"/>
      <point x="186" y="480" type="curve"/>
      <point x="183" y="533"/>
      <point x="170" y="590"/>
      <point x="155" y="641" type="curve"/>
      <point x="169" y="640"/>
      <point x="188" y="639"/>
      <point x="206" y="639" type="curve" smooth="yes"/>
      <point x="224" y="639"/>
      <point x="243" y="640"/>
      <point x="257" y="641" type="curve"/>
      <point x="244" y="598"/>
      <point x="224" y="530"/>
      <point x="219" y="481" type="curve"/>
      <point x="266" y="502"/>
      <point x="314" y="532"/>
      <point x="355" y="564" type="curve"/>
      <point x="361" y="536"/>
      <point x="374" y="494"/>
      <point x="385" y="468" type="curve"/>
      <point x="340" y="466"/>
      <point x="279" y="462"/>
      <point x="230" y="452" type="curve"/>
      <point x="263" y="410"/>
      <point x="307" y="373"/>
      <point x="351" y="341" type="curve"/>
      <point x="327" y="327"/>
      <point x="294" y="302"/>
      <point x="272" y="283" type="curve"/>
      <point x="256" y="326"/>
      <point x="227" y="390"/>
      <point x="202" y="434" type="curve"/>
      <point x="177" y="390"/>
      <point x="148" y="321"/>
      <point x="133" y="278" type="curve"/>
      <point x="114" y="298"/>
      <point x="82" y="322"/>
    </contour>
  </outline>
</glyph>
<glyph name="plus" format="1">
  <advance width="470"/>
  <unicode hex="002B"/>
  <outline>
    <contour>
      <point x="27" y="263" type="line"/>
      <point x="27" y="312" type="line"/>
      <point x="210" y="312" type="line"/>
      <point x="210" y="495" type="line"/>
      <point x="259" y="495" type="line"/>
      <point x="259" y="312" type="line"/>
      <point x="442" y="312" type="line"/>
      <point x="442" y="263" type="line"/>
      <point x="259" y="263" type="line"/>
      <point x="259" y="80" type="line"/>
      <point x="210" y="80" type="line"/>
      <point x="210" y="263" type="line"/>
    </contour>
  </outline>
</glyph>
<glyph name="comma" format="1">
  <advance width="235"/>
  <unicode hex="002C"/>
  <outline>
    <contour>
      <point x="78" y="-175" type="curve"/>
      <point x="44" y="-147" type="line"/>
      <point x="59" y="-132"/>
      <point x="71" y="-117"/>
      <point x="84" y="-96" type="curve" smooth="yes"/>
      <point x="90" y="-86"/>
      <point x="93" y="-76"/>
      <point x="93" y="-66" type="curve" smooth="yes"/>
      <point x="93" y="-37"/>
      <point x="68" y="-13"/>
      <point x="28" y="5" type="curve"/>
      <point x="60" y="45"/>
      <point x="77" y="70"/>
      <point x="93" y="109" type="curve"/>
      <point x="114" y="98"/>
      <point x="140" y="82"/>
      <point x="154" y="69" type="curve" smooth="yes"/>
      <point x="180" y="44"/>
      <point x="191" y="22"/>
      <point x="191" y="-1" type="curve" smooth="yes"/>
      <point x="191" y="-23"/>
      <point x="181" y="-45"/>
      <point x="165" y="-70" type="curve" smooth="yes"/>
      <point x="144" y="-104"/>
      <point x="108" y="-144"/>
    </contour>
  </outline>
</glyph>
<glyph name="hyphen" format="1">
  <advance width="274"/>
  <unicode hex="002D"/>
  <outline>
    <contour>
      <point x="27" y="232" type="curve"/>
      <point x="32" y="248"/>
      <point x="36" y="285"/>
      <point x="36" y="296" type="curve"/>
      <point x="71" y="294"/>
      <point x="106" y="293"/>
      <point x="141" y="293" type="curve" smooth="yes"/>
      <point x="176" y="293"/>
      <point x="211" y="294"/>
      <point x="246" y="296" type="curve"/>
      <point x="242" y="282"/>
      <point x="238" y="244"/>
      <point x="238" y="232" type="curve"/>
      <point x="203" y="234"/>
      <point x="167" y="236"/>
      <point x="132" y="236" type="curve" smooth="yes"/>
      <point x="97" y="236"/>
      <point x="62" y="234"/>
    </contour>
  </outline>
</glyph>
<glyph name="period" format="1">
  <advance width="244"/>
  <unicode hex="002E"/>
  <outline>
    <contour>
      <point x="119" y="-14" type="curve"/>
      <point x="65" y="-15"/>
      <point x="49" y="25"/>
      <point x="49" y="55" type="curve" smooth="yes"/>
      <point x="49" y="93"/>
      <point x="73" y="127"/>
      <point x="125" y="130" type="curve" smooth="yes"/>
      <point x="176" y="133"/>
      <point x="195" y="96"/>
      <point x="195" y="64" type="curve" smooth="yes"/>
      <point x="195" y="25"/>
      <point x="177" y="-11"/>
    </contour>
  </outline>
</glyph>
<glyph name="slash" format="1">
  <advance width="348"/>
  <unicode hex="002F"/>
  <outline>
    <contour>
      <point x="264" y="681" type="curve"/>
      <point x="311" y="668" type="line"/>
      <point x="247" y="464"/>
      <point x="145" y="132"/>
      <point x="84" y="-73" type="curve"/>
      <point x="36" y="-60" type="line"/>
      <point x="100" y="145"/>
      <point x="203" y="475"/>
    </contour>
  </outline>
</glyph>
<glyph name="one" format="1">
  <advance width="438"/>
  <unicode hex="0031"/>
  <outline>
    <contour>
      <point x="305" y="652" type="curve"/>
      <point x="315" y="626" type="line"/>
      <point x="297" y="612"/>
      <point x="288" y="605"/>
      <point x="286" y="546" type="curve" smooth="yes"/>
      <point x="284" y="477"/>
      <point x="282" y="374"/>
      <point x="282" y="259" type="curve" smooth="yes"/>
      <point x="282" y="215"/>
      <point x="282" y="169"/>
      <point x="283" y="122" type="curve" smooth="yes"/>
      <point x="284" y="50"/>
      <point x="285" y="50"/>
      <point x="397" y="36" type="curve"/>
      <point x="392" y="-3" type="line"/>
      <point x="335" y="2"/>
      <point x="276" y="4"/>
      <point x="217" y="4" type="curve" smooth="yes"/>
      <point x="158" y="4"/>
      <point x="99" y="2"/>
      <point x="44" y="-3" type="curve"/>
      <point x="41" y="36" type="line"/>
      <point x="152" y="47"/>
      <point x="165" y="47"/>
      <point x="167" y="120" type="curve" smooth="yes"/>
      <point x="169" y="183"/>
      <point x="170" y="281"/>
      <point x="170" y="374" type="curve" smooth="yes"/>
      <point x="170" y="455"/>
      <point x="169" y="533"/>
      <point x="167" y="580" type="curve"/>
      <point x="126" y="565"/>
      <point x="92" y="547"/>
      <point x="41" y="512" type="curve"/>
      <point x="48" y="531"/>
      <point x="50" y="574"/>
      <point x="50" y="587" type="curve"/>
      <point x="125" y="620"/>
      <point x="226" y="640"/>
    </contour>
  </outline>
</glyph>
<glyph name="two" format="1">
  <advance width="454"/>
  <unicode hex="0032"/>
  <outline>
    <contour>
      <point x="381" y="-3" type="curve"/>
      <point x="322" y="0"/>
      <point x="269" y="1"/>
      <point x="219" y="1" type="curve" smooth="yes"/>
      <point x="144" y="1"/>
      <point x="76" y="-1"/>
      <point x="10" y="-3" type="curve"/>
      <point x="21" y="22"/>
      <point x="34" y="81"/>
      <point x="35" y="111" type="curve"/>
      <point x="98" y="155"/>
      <point x="161" y="213"/>
      <point x="211" y="268" type="curve" smooth="yes"/>
      <point x="269" y="332"/>
      <point x="294" y="373"/>
      <point x="294" y="446" type="curve" smooth="yes"/>
      <point x="294" y="503"/>
      <point x="240" y="530"/>
      <point x="165" y="530" type="curve" smooth="yes"/>
      <point x="134" y="530"/>
      <point x="92" y="526"/>
      <point x="58" y="515" type="curve"/>
      <point x="76" y="562"/>
      <point x="83" y="605"/>
      <point x="85" y="636" type="curve"/>
      <point x="102" y="640"/>
      <point x="149" y="642"/>
      <point x="171" y="642" type="curve" smooth="yes"/>
      <point x="304" y="642"/>
      <point x="377" y="605"/>
      <point x="377" y="485" type="curve" smooth="yes"/>
      <point x="377" y="396"/>
      <point x="339" y="346"/>
      <point x="274" y="274" type="curve" smooth="yes"/>
      <point x="218" y="211"/>
      <point x="185" y="179"/>
      <point x="124" y="117" type="curve"/>
      <point x="144" y="115"/>
      <point x="204" y="114"/>
      <point x="252" y="114" type="curve" smooth="yes"/>
      <point x="279" y="114"/>
      <point x="302" y="114"/>
      <point x="313" y="115" type="curve" smooth="yes"/>
      <point x="363" y="120"/>
      <point x="368" y="127"/>
      <point x="389" y="195" type="curve"/>
      <point x="427" y="184" type="line"/>
      <point x="400" y="118"/>
      <point x="388" y="55"/>
    </contour>
  </outline>
</glyph>
<glyph name="three" format="1">
  <advance width="418"/>
  <unicode hex="0033"/>
  <outline>
    <contour>
      <point x="290" y="31" type="curve" smooth="yes"/>
      <point x="257" y="0"/>
      <point x="231" y="-9"/>
      <point x="196" y="-9" type="curve" smooth="yes"/>
      <point x="179" y="-9"/>
      <point x="160" y="-7"/>
      <point x="136" y="-4" type="curve" smooth="yes"/>
      <point x="98" y="0"/>
      <point x="51" y="13"/>
      <point x="9" y="18" type="curve"/>
      <point x="30" y="58"/>
      <point x="44" y="98"/>
      <point x="53" y="145" type="curve"/>
      <point x="87" y="123"/>
      <point x="152" y="96"/>
      <point x="209" y="89" type="curve" smooth="yes"/>
      <point x="252" y="83"/>
      <point x="279" y="88"/>
      <point x="296" y="117" type="curve" smooth="yes"/>
      <point x="306" y="134"/>
      <point x="312" y="153"/>
      <point x="312" y="173" type="curve" smooth="yes"/>
      <point x="312" y="197"/>
      <point x="303" y="222"/>
      <point x="284" y="245" type="curve" smooth="yes"/>
      <point x="240" y="296"/>
      <point x="175" y="316"/>
      <point x="107" y="317" type="curve"/>
      <point x="106" y="332"/>
      <point x="104" y="347"/>
      <point x="98" y="361" type="curve"/>
      <point x="162" y="385"/>
      <point x="236" y="423"/>
      <point x="236" y="481" type="curve" smooth="yes"/>
      <point x="236" y="511"/>
      <point x="209" y="536"/>
      <point x="140" y="536" type="curve" smooth="yes"/>
      <point x="132" y="536"/>
      <point x="97" y="535"/>
      <point x="69" y="525" type="curve"/>
      <point x="82" y="553"/>
      <point x="86" y="616"/>
      <point x="87" y="636" type="curve"/>
      <point x="98" y="640"/>
      <point x="139" y="644"/>
      <point x="157" y="644" type="curve" smooth="yes"/>
      <point x="265" y="644"/>
      <point x="325" y="606"/>
      <point x="325" y="523" type="curve" smooth="yes"/>
      <point x="325" y="485"/>
      <point x="308" y="458"/>
      <point x="244" y="400" type="curve"/>
      <point x="309" y="381"/>
      <point x="373" y="336"/>
      <point x="377" y="245" type="curve" smooth="yes"/>
      <point x="378" y="211"/>
      <point x="375" y="180"/>
      <point x="360" y="141" type="curve" smooth="yes"/>
      <point x="346" y="105"/>
      <point x="321" y="60"/>
    </contour>
  </outline>
</glyph>
<glyph name="four" format="1">
  <advance width="595"/>
  <unicode hex="0034"/>
  <outline>
    <contour>
      <point x="279" y="-58" type="curve"/>
      <point x="296" y="30"/>
      <point x="299" y="110"/>
      <point x="300" y="182" type="curve"/>
      <point x="275" y="182"/>
      <point x="251" y="183"/>
      <point x="228" y="183" type="curve" smooth="yes"/>
      <point x="157" y="183"/>
      <point x="95" y="180"/>
      <point x="33" y="175" type="curve"/>
      <point x="18" y="205" type="line"/>
      <point x="124" y="310"/>
      <point x="250" y="459"/>
      <point x="394" y="653" type="curve"/>
      <point x="429" y="636" type="line"/>
      <point x="420" y="578"/>
      <point x="417" y="438"/>
      <point x="417" y="341" type="curve" smooth="yes"/>
      <point x="417" y="301"/>
      <point x="417" y="269"/>
      <point x="418" y="253" type="curve"/>
      <point x="470" y="253"/>
      <point x="513" y="257"/>
      <point x="572" y="271" type="curve"/>
      <point x="547" y="239"/>
      <point x="527" y="195"/>
      <point x="520" y="173" type="curve"/>
      <point x="478" y="178"/>
      <point x="453" y="180"/>
      <point x="414" y="180" type="curve"/>
      <point x="413" y="136"/>
      <point x="420" y="46"/>
      <point x="428" y="17" type="curve"/>
      <point x="379" y="4"/>
      <point x="339" y="-20"/>
    </contour>
    <contour>
      <point x="308" y="475" type="curve"/>
      <point x="232" y="380"/>
      <point x="210" y="352"/>
      <point x="128" y="257" type="curve"/>
      <point x="160" y="256"/>
      <point x="198" y="253"/>
      <point x="246" y="253" type="curve" smooth="yes"/>
      <point x="263" y="253"/>
      <point x="281" y="253"/>
      <point x="300" y="254" type="curve"/>
      <point x="305" y="336"/>
      <point x="301" y="415"/>
    </contour>
  </outline>
</glyph>
<glyph name="five" format="1">
  <advance width="460"/>
  <unicode hex="0035"/>
  <outline>
    <contour>
      <point x="13" y="20" type="curve"/>
      <point x="40" y="63"/>
      <point x="56" y="110"/>
      <point x="69" y="150" type="curve"/>
      <point x="90" y="137"/>
      <point x="141" y="113"/>
      <point x="170" y="105" type="curve"/>
      <point x="202" y="95"/>
      <point x="231" y="89"/>
      <point x="254" y="89" type="curve" smooth="yes"/>
      <point x="278" y="89"/>
      <point x="298" y="96"/>
      <point x="312" y="112" type="curve" smooth="yes"/>
      <point x="328" y="130"/>
      <point x="338" y="155"/>
      <point x="338" y="183" type="curve" smooth="yes"/>
      <point x="338" y="197"/>
      <point x="335" y="212"/>
      <point x="329" y="228" type="curve" smooth="yes"/>
      <point x="305" y="288"/>
      <point x="239" y="326"/>
      <point x="170" y="326" type="curve"/>
      <point x="128" y="325"/>
      <point x="105" y="322"/>
      <point x="66" y="300" type="curve"/>
      <point x="40" y="324" type="line"/>
      <point x="83" y="418"/>
      <point x="110" y="537"/>
      <point x="136" y="638" type="curve"/>
      <point x="174" y="634"/>
      <point x="214" y="632"/>
      <point x="257" y="632" type="curve" smooth="yes"/>
      <point x="295" y="632"/>
      <point x="336" y="634"/>
      <point x="381" y="639" type="curve"/>
      <point x="366" y="608"/>
      <point x="350" y="543"/>
      <point x="343" y="516" type="curve"/>
      <point x="296" y="526"/>
      <point x="252" y="529"/>
      <point x="206" y="529" type="curve" smooth="yes"/>
      <point x="190" y="529"/>
      <point x="174" y="528"/>
      <point x="157" y="528" type="curve"/>
      <point x="145" y="494"/>
      <point x="135" y="458"/>
      <point x="123" y="414" type="curve"/>
      <point x="150" y="425"/>
      <point x="193" y="441"/>
      <point x="238" y="437" type="curve" smooth="yes"/>
      <point x="315" y="431"/>
      <point x="383" y="379"/>
      <point x="407" y="323" type="curve" smooth="yes"/>
      <point x="418" y="298"/>
      <point x="423" y="273"/>
      <point x="423" y="247" type="curve" smooth="yes"/>
      <point x="423" y="213"/>
      <point x="414" y="178"/>
      <point x="393" y="138" type="curve" smooth="yes"/>
      <point x="376" y="106"/>
      <point x="334" y="57"/>
      <point x="301" y="29" type="curve" smooth="yes"/>
      <point x="267" y="0"/>
      <point x="239" y="-8"/>
      <point x="204" y="-8" type="curve" smooth="yes"/>
      <point x="186" y="-8"/>
      <point x="166" y="-6"/>
      <point x="143" y="-3" type="curve" smooth="yes"/>
      <point x="94" y="4"/>
      <point x="54" y="17"/>
    </contour>
  </outline>
</glyph>
<glyph name="seven" format="1">
  <advance width="463"/>
  <unicode hex="0037"/>
  <outline>
    <contour>
      <point x="203" y="275" type="curve" smooth="yes"/>
      <point x="245" y="368"/>
      <point x="278" y="430"/>
      <point x="332" y="524" type="curve"/>
      <point x="295" y="520"/>
      <point x="270" y="519"/>
      <point x="245" y="519" type="curve" smooth="yes"/>
      <point x="223" y="519"/>
      <point x="201" y="520"/>
      <point x="171" y="521" type="curve" smooth="yes"/>
      <point x="111" y="523"/>
      <point x="101" y="520"/>
      <point x="74" y="452" type="curve"/>
      <point x="36" y="465" type="line"/>
      <point x="61" y="526"/>
      <point x="71" y="587"/>
      <point x="78" y="648" type="curve"/>
      <point x="123" y="636"/>
      <point x="193" y="631"/>
      <point x="263" y="631" type="curve" smooth="yes"/>
      <point x="329" y="631"/>
      <point x="394" y="636"/>
      <point x="436" y="642" type="curve"/>
      <point x="451" y="608" type="line"/>
      <point x="429" y="579"/>
      <point x="417" y="566"/>
      <point x="379" y="509" type="curve" smooth="yes"/>
      <point x="344" y="456"/>
      <point x="286" y="341"/>
      <point x="266" y="270" type="curve" smooth="yes"/>
      <point x="248" y="205"/>
      <point x="241" y="170"/>
      <point x="234" y="6" type="curve"/>
      <point x="196" y="-2"/>
      <point x="152" y="-14"/>
      <point x="115" y="-33" type="curve"/>
      <point x="140" y="138"/>
      <point x="152" y="160"/>
    </contour>
  </outline>
</glyph>
<glyph name="nine" format="1">
  <advance width="552"/>
  <unicode hex="0039"/>
  <outline>
    <contour>
      <point x="420" y="604" type="curve" smooth="yes"/>
      <point x="476" y="549"/>
      <point x="500" y="469"/>
      <point x="501" y="377" type="curve" smooth="yes"/>
      <point x="502" y="292"/>
      <point x="491" y="200"/>
      <point x="433" y="125" type="curve" smooth="yes"/>
      <point x="404" y="88"/>
      <point x="352" y="48"/>
      <point x="311" y="22" type="curve"/>
      <point x="279" y="0"/>
      <point x="243" y="-9"/>
      <point x="205" y="-9" type="curve" smooth="yes"/>
      <point x="190" y="-9"/>
      <point x="176" y="-7"/>
      <point x="161" y="-5" type="curve" smooth="yes"/>
      <point x="130" y="0"/>
      <point x="99" y="8"/>
      <point x="65" y="10" type="curve"/>
      <point x="94" y="55"/>
      <point x="107" y="95"/>
      <point x="115" y="138" type="curve"/>
      <point x="150" y="121"/>
      <point x="197" y="109"/>
      <point x="229" y="102" type="curve" smooth="yes"/>
      <point x="252" y="97"/>
      <point x="271" y="95"/>
      <point x="285" y="95" type="curve" smooth="yes"/>
      <point x="316" y="95"/>
      <point x="330" y="104"/>
      <point x="343" y="116" type="curve" smooth="yes"/>
      <point x="360" y="130"/>
      <point x="371" y="161"/>
      <point x="376" y="190" type="curve"/>
      <point x="381" y="228"/>
      <point x="382" y="246"/>
      <point x="381" y="284" type="curve"/>
      <point x="349" y="268"/>
      <point x="320" y="255"/>
      <point x="274" y="242" type="curve"/>
      <point x="253" y="235"/>
      <point x="228" y="231"/>
      <point x="204" y="231" type="curve" smooth="yes"/>
      <point x="176" y="231"/>
      <point x="148" y="237"/>
      <point x="123" y="254" type="curve" smooth="yes"/>
      <point x="77" y="285"/>
      <point x="54" y="340"/>
      <point x="51" y="393" type="curve" smooth="yes"/>
      <point x="46" y="503"/>
      <point x="75" y="571"/>
      <point x="153" y="611" type="curve" smooth="yes"/>
      <point x="188" y="630"/>
      <point x="225" y="641"/>
      <point x="289" y="645" type="curve"/>
      <point x="342" y="650"/>
      <point x="386" y="637"/>
    </contour>
    <contour>
      <point x="381" y="330" type="curve"/>
      <point x="380" y="419"/>
      <point x="362" y="499"/>
      <point x="313" y="550" type="curve" smooth="yes"/>
      <point x="296" y="567"/>
      <point x="264" y="586"/>
      <point x="234" y="581" type="curve" smooth="yes"/>
      <point x="193" y="573"/>
      <point x="172" y="510"/>
      <point x="172" y="450" type="curve" smooth="yes"/>
      <point x="172" y="439"/>
      <point x="173" y="428"/>
      <point x="174" y="418" type="curve" smooth="yes"/>
      <point x="181" y="358"/>
      <point x="209" y="314"/>
      <point x="269" y="312" type="curve" smooth="yes"/>
      <point x="302" y="310"/>
      <point x="350" y="319"/>
    </contour>
  </outline>
</glyph>
<glyph name="semicolon" format="1">
  <advance width="235"/>
  <unicode hex="003B"/>
  <outline>
    <contour>
      <point x="78" y="-175" type="curve"/>
      <point x="44" y="-147" type="line"/>
      <point x="59" y="-132"/>
      <point x="71" y="-117"/>
      <point x="84" y="-96" type="curve" smooth="yes"/>
      <point x="90" y="-86"/>
      <point x="93" y="-76"/>
      <point x="93" y="-66" type="curve" smooth="yes"/>
      <point x="93" y="-37"/>
      <point x="68" y="-13"/>
      <point x="28" y="5" type="curve"/>
      <point x="60" y="45"/>
      <point x="77" y="70"/>
      <point x="93" y="109" type="curve"/>
      <point x="114" y="98"/>
      <point x="140" y="82"/>
      <point x="154" y="69" type="curve" smooth="yes"/>
      <point x="180" y="44"/>
      <point x="191" y="22"/>
      <point x="191" y="-1" type="curve" smooth="yes"/>
      <point x="191" y="-23"/>
      <point x="181" y="-45"/>
      <point x="165" y="-70" type="curve" smooth="yes"/>
      <point x="144" y="-104"/>
      <point x="108" y="-144"/>
    </contour>
    <contour>
      <point x="116" y="295" type="curve"/>
      <point x="62" y="294"/>
      <point x="46" y="334"/>
      <point x="46" y="364" type="curve" smooth="yes"/>
      <point x="46" y="402"/>
      <point x="70" y="436"/>
      <point x="122" y="439" type="curve" smooth="yes"/>
      <point x="173" y="442"/>
      <point x="192" y="405"/>
      <point x="192" y="373" type="curve" smooth="yes"/>
      <point x="192" y="334"/>
      <point x="174" y="298"/>
    </contour>
  </outline>
</glyph>
<glyph name="less" format="1">
  <advance width="470"/>
  <unicode hex="003C"/>
  <outline>
    <contour>
      <point x="36" y="273" type="line"/>
      <point x="36" y="300" type="line"/>
      <point x="408" y="485" type="line"/>
      <point x="429" y="444" type="line"/>
      <point x="109" y="287" type="line"/>
      <point x="429" y="133" type="line"/>
      <point x="408" y="89" type="line"/>
    </contour>
  </outline>
</glyph>
<glyph name="equal" format="1">
  <advance width="514"/>
  <unicode hex="003D"/>
  <outline>
    <contour>
      <point x="49" y="331" type="line"/>
      <point x="49" y="378" type="line"/>
      <point x="464" y="378" type="line"/>
      <point x="464" y="331" type="line"/>
    </contour>
    <contour>
      <point x="49" y="190" type="line"/>
      <point x="49" y="237" type="line"/>
      <point x="464" y="237" type="line"/>
      <point x="464" y="190" type="line"/>
    </contour>
  </outline>
</glyph>
<glyph name="greater" format="1">
  <advance width="442"/>
  <unicode hex="003E"/>
  <outline>
    <contour>
      <point x="406" y="301" type="line"/>
      <point x="406" y="274" type="line"/>
      <point x="34" y="89" type="line"/>
      <point x="13" y="130" type="line"/>
      <point x="333" y="287" type="line"/>
      <point x="13" y="441" type="line"/>
      <point x="34" y="485" type="line"/>
    </contour>
  </outline>
</glyph>
<glyph name="question" format="1">
  <advance width="365"/>
  <unicode hex="003F"/>
  <outline>
    <contour>
      <point x="128" y="179" type="curve"/>
      <point x="86" y="179" type="line"/>
      <point x="87" y="197"/>
      <point x="87" y="214"/>
      <point x="87" y="231" type="curve" smooth="yes"/>
      <point x="87" y="279"/>
      <point x="85" y="323"/>
      <point x="81" y="367" type="curve"/>
      <point x="115" y="359"/>
      <point x="149" y="355"/>
      <point x="168" y="353" type="curve" smooth="yes"/>
      <point x="182" y="352"/>
      <point x="194" y="351"/>
      <point x="204" y="351" type="curve" smooth="yes"/>
      <point x="258" y="351"/>
      <point x="271" y="368"/>
      <point x="279" y="415" type="curve" smooth="yes"/>
      <point x="284" y="450"/>
      <point x="273" y="482"/>
      <point x="207" y="504" type="curve" smooth="yes"/>
      <point x="163" y="519"/>
      <point x="111" y="525"/>
      <point x="24" y="526" type="curve"/>
      <point x="31" y="555"/>
      <point x="37" y="625"/>
      <point x="37" y="656" type="curve"/>
      <point x="83" y="638"/>
      <point x="144" y="633"/>
      <point x="193" y="622" type="curve" smooth="yes"/>
      <point x="281" y="602"/>
      <point x="334" y="559"/>
      <point x="332" y="469" type="curve" smooth="yes"/>
      <point x="332" y="430"/>
      <point x="322" y="389"/>
      <point x="310" y="357" type="curve" smooth="yes"/>
      <point x="287" y="297"/>
      <point x="259" y="252"/>
      <point x="193" y="252" type="curve" smooth="yes"/>
      <point x="169" y="252"/>
      <point x="153" y="254"/>
      <point x="131" y="257" type="curve"/>
      <point x="129" y="221"/>
      <point x="128" y="212"/>
    </contour>
    <contour>
      <point x="106" y="-14" type="curve"/>
      <point x="52" y="-15"/>
      <point x="36" y="25"/>
      <point x="36" y="55" type="curve" smooth="yes"/>
      <point x="36" y="93"/>
      <point x="60" y="127"/>
      <point x="112" y="130" type="curve" smooth="yes"/>
      <point x="164" y="133"/>
      <point x="182" y="96"/>
      <point x="182" y="64" type="curve" smooth="yes"/>
      <point x="182" y="25"/>
      <point x="164" y="-11"/>
    </contour>
  </outline>
</glyph>
<glyph name="at" format="1">
  <advance width="828"/>
  <unicode hex="0040"/>
  <outline>
    <contour>
      <point x="462" y="-14" type="curve" smooth="yes"/>
      <point x="433" y="-14"/>
      <point x="409" y="-5"/>
      <point x="407" y="32" type="curve"/>
      <point x="365" y="12"/>
      <point x="311" y="-11"/>
      <point x="284" y="-11" type="curve" smooth="yes"/>
      <point x="233" y="-11"/>
      <point x="196" y="40"/>
      <point x="204" y="120" type="curve"/>
      <point x="209" y="181"/>
      <point x="226" y="247"/>
      <point x="260" y="309" type="curve" smooth="yes"/>
      <point x="290" y="362"/>
      <point x="311" y="378"/>
      <point x="380" y="408" type="curve" smooth="yes"/>
      <point x="414" y="423"/>
      <point x="443" y="428"/>
      <point x="473" y="428" type="curve" smooth="yes"/>
      <point x="485" y="428"/>
      <point x="496" y="427"/>
      <point x="508" y="426" type="curve" smooth="yes"/>
      <point x="530" y="424"/>
      <point x="595" y="416"/>
      <point x="622" y="407" type="curve"/>
      <point x="602" y="383"/>
      <point x="596" y="364"/>
      <point x="592" y="350" type="curve" smooth="yes"/>
      <point x="563" y="268"/>
      <point x="540" y="148"/>
      <point x="535" y="106" type="curve" smooth="yes"/>
      <point x="532" y="74"/>
      <point x="555" y="70"/>
      <point x="574" y="70" type="curve" smooth="yes"/>
      <point x="599" y="69"/>
      <point x="634" y="97"/>
      <point x="654" y="123" type="curve" smooth="yes"/>
      <point x="690" y="168"/>
      <point x="719" y="223"/>
      <point x="730" y="304" type="curve" smooth="yes"/>
      <point x="733" y="324"/>
      <point x="734" y="344"/>
      <point x="734" y="361" type="curve" smooth="yes"/>
      <point x="734" y="522"/>
      <point x="624" y="566"/>
      <point x="519" y="566" type="curve" smooth="yes"/>
      <point x="252" y="566"/>
      <point x="145" y="366"/>
      <point x="112" y="247" type="curve" smooth="yes"/>
      <point x="98" y="194"/>
      <point x="87" y="138"/>
      <point x="87" y="85" type="curve" smooth="yes"/>
      <point x="87" y="-41"/>
      <point x="146" y="-148"/>
      <point x="343" y="-148" type="curve" smooth="yes"/>
      <point x="394" y="-148"/>
      <point x="463" y="-131"/>
      <point x="497" y="-117" type="curve"/>
      <point x="508" y="-159" type="line"/>
      <point x="462" y="-180"/>
      <point x="388" y="-196"/>
      <point x="337" y="-196" type="curve" smooth="yes"/>
      <point x="123" y="-196"/>
      <point x="37" y="-77"/>
      <point x="37" y="88" type="curve" smooth="yes"/>
      <point x="37" y="141"/>
      <point x="46" y="198"/>
      <point x="62" y="258" type="curve" smooth="yes"/>
      <point x="117" y="461"/>
      <point x="289" y="612"/>
      <point x="524" y="612" type="curve" smooth="yes"/>
      <point x="677" y="612"/>
      <point x="784" y="523"/>
      <point x="784" y="363" type="curve" smooth="yes"/>
      <point x="784" y="344"/>
      <point x="782" y="323"/>
      <point x="779" y="302" type="curve" smooth="yes"/>
      <point x="770" y="237"/>
      <point x="736" y="152"/>
      <point x="692" y="98" type="curve" smooth="yes"/>
      <point x="630" y="20"/>
      <point x="560" y="-14"/>
    </contour>
    <contour>
      <point x="326" y="131" type="curve" smooth="yes"/>
      <point x="323" y="92"/>
      <point x="333" y="69"/>
      <point x="366" y="69" type="curve" smooth="yes"/>
      <point x="385" y="69"/>
      <point x="398" y="70"/>
      <point x="412" y="74" type="curve"/>
      <point x="438" y="197"/>
      <point x="455" y="278"/>
      <point x="481" y="366" type="curve"/>
      <point x="471" y="370"/>
      <point x="459" y="374"/>
      <point x="446" y="375" type="curve"/>
      <point x="415" y="380"/>
      <point x="398" y="374"/>
      <point x="365" y="300" type="curve" smooth="yes"/>
      <point x="344" y="253"/>
      <point x="330" y="183"/>
    </contour>
  </outline>
</glyph>
<glyph name="B" format="1">
  <advance width="632"/>
  <unicode hex="0042"/>
  <outline>
    <contour>
      <point x="189" y="3" type="curve" smooth="yes"/>
      <point x="152" y="3"/>
      <point x="72" y="2"/>
      <point x="35" y="-3" type="curve"/>
      <point x="32" y="36" type="line"/>
      <point x="107" y="45"/>
      <point x="108" y="42"/>
      <point x="110" y="105" type="curve" smooth="yes"/>
      <point x="111" y="147"/>
      <point x="113" y="270"/>
      <point x="113" y="381" type="curve" smooth="yes"/>
      <point x="113" y="444"/>
      <point x="112" y="503"/>
      <point x="111" y="541" type="curve" smooth="yes"/>
      <point x="109" y="595"/>
      <point x="93" y="592"/>
      <point x="32" y="600" type="curve"/>
      <point x="35" y="639" type="line"/>
      <point x="76" y="635"/>
      <point x="142" y="634"/>
      <point x="195" y="634" type="curve" smooth="yes"/>
      <point x="246" y="634"/>
      <point x="285" y="639"/>
      <point x="335" y="639" type="curve" smooth="yes"/>
      <point x="502" y="639"/>
      <point x="549" y="585"/>
      <point x="551" y="511" type="curve" smooth="yes"/>
      <point x="554" y="430"/>
      <point x="505" y="392"/>
      <point x="421" y="357" type="curve"/>
      <point x="422" y="353" type="line"/>
      <point x="538" y="351"/>
      <point x="586" y="291"/>
      <point x="588" y="208" type="curve" smooth="yes"/>
      <point x="590" y="114"/>
      <point x="482" y="-3"/>
      <point x="303" y="-3" type="curve" smooth="yes"/>
      <point x="263" y="-3"/>
      <point x="231" y="3"/>
    </contour>
    <contour>
      <point x="240" y="77" type="curve"/>
      <point x="270" y="68"/>
      <point x="312" y="56"/>
      <point x="340" y="56" type="curve" smooth="yes"/>
      <point x="433" y="56"/>
      <point x="457" y="115"/>
      <point x="457" y="188" type="curve" smooth="yes"/>
      <point x="457" y="282"/>
      <point x="399" y="320"/>
      <point x="331" y="320" type="curve" smooth="yes"/>
      <point x="306" y="320"/>
      <point x="300" y="320"/>
      <point x="281" y="317" type="curve"/>
      <point x="289" y="333"/>
      <point x="295" y="360"/>
      <point x="296" y="379" type="curve"/>
      <point x="307" y="378"/>
      <point x="312" y="377"/>
      <point x="335" y="377" type="curve" smooth="yes"/>
      <point x="376" y="377"/>
      <point x="421" y="391"/>
      <point x="421" y="492" type="curve" smooth="yes"/>
      <point x="421" y="573"/>
      <point x="373" y="590"/>
      <point x="317" y="590" type="curve" smooth="yes"/>
      <point x="296" y="590"/>
      <point x="271" y="590"/>
      <point x="242" y="584" type="curve"/>
      <point x="239" y="529"/>
      <point x="238" y="412"/>
      <point x="238" y="302" type="curve" smooth="yes"/>
      <point x="238" y="204"/>
      <point x="239" y="112"/>
    </contour>
  </outline>
</glyph>
<glyph name="F" format="1">
  <advance width="512"/>
  <unicode hex="0046"/>
  <outline>
    <contour>
      <point x="111" y="107" type="curve" smooth="yes"/>
      <point x="115" y="179"/>
      <point x="116" y="250"/>
      <point x="116" y="323" type="curve" smooth="yes"/>
      <point x="116" y="390"/>
      <point x="115" y="458"/>
      <point x="112" y="526" type="curve" smooth="yes"/>
      <point x="110" y="586"/>
      <point x="92" y="590"/>
      <point x="32" y="600" type="curve"/>
      <point x="35" y="639" type="line"/>
      <point x="83" y="634"/>
      <point x="95" y="633"/>
      <point x="148" y="633" type="curve" smooth="yes"/>
      <point x="244" y="633"/>
      <point x="415" y="633"/>
      <point x="475" y="645" type="curve"/>
      <point x="485" y="592"/>
      <point x="498" y="550"/>
      <point x="526" y="482" type="curve"/>
      <point x="487" y="466" type="line"/>
      <point x="416" y="577"/>
      <point x="395" y="585"/>
      <point x="327" y="587" type="curve" smooth="yes"/>
      <point x="298" y="588"/>
      <point x="270" y="587"/>
      <point x="237" y="584" type="curve"/>
      <point x="235" y="551"/>
      <point x="234" y="427"/>
      <point x="234" y="345" type="curve"/>
      <point x="314" y="345"/>
      <point x="380" y="350"/>
      <point x="456" y="374" type="curve"/>
      <point x="445" y="343"/>
      <point x="435" y="301"/>
      <point x="432" y="268" type="curve"/>
      <point x="378" y="287"/>
      <point x="323" y="300"/>
      <point x="234" y="299" type="curve"/>
      <point x="234" y="211"/>
      <point x="235" y="165"/>
      <point x="237" y="108" type="curve" smooth="yes"/>
      <point x="239" y="53"/>
      <point x="254" y="50"/>
      <point x="320" y="36" type="curve"/>
      <point x="314" y="-3" type="line"/>
      <point x="265" y="1"/>
      <point x="220" y="3"/>
      <point x="175" y="3" type="curve" smooth="yes"/>
      <point x="130" y="3"/>
      <point x="86" y="1"/>
      <point x="37" y="-3" type="curve"/>
      <point x="32" y="36" type="line"/>
      <point x="112" y="53"/>
      <point x="108" y="55"/>
    </contour>
  </outline>
</glyph>
<glyph name="M" format="1">
  <advance width="943"/>
  <unicode hex="004D"/>
  <outline>
    <contour>
      <point x="693" y="638" type="curve"/>
      <point x="728" y="635"/>
      <point x="762" y="633"/>
      <point x="796" y="633" type="curve" smooth="yes"/>
      <point x="832" y="633"/>
      <point x="869" y="635"/>
      <point x="907" y="639" type="curve"/>
      <point x="911" y="600" type="line"/>
      <point x="843" y="588"/>
      <point x="839" y="585"/>
      <point x="837" y="534" type="curve" smooth="yes"/>
      <point x="836" y="493"/>
      <point x="835" y="440"/>
      <point x="835" y="381" type="curve" smooth="yes"/>
      <point x="835" y="291"/>
      <point x="837" y="189"/>
      <point x="839" y="108" type="curve" smooth="yes"/>
      <point x="841" y="53"/>
      <point x="846" y="50"/>
      <point x="911" y="36" type="curve"/>
      <point x="906" y="-3" type="line"/>
      <point x="857" y="1"/>
      <point x="815" y="3"/>
      <point x="773" y="3" type="curve" smooth="yes"/>
      <point x="731" y="3"/>
      <point x="690" y="1"/>
      <point x="641" y="-3" type="curve"/>
      <point x="635" y="36" type="line"/>
      <point x="706" y="48"/>
      <point x="710" y="55"/>
      <point x="711" y="107" type="curve"/>
      <point x="714" y="181"/>
      <point x="715" y="255"/>
      <point x="715" y="329" type="curve" smooth="yes"/>
      <point x="715" y="390"/>
      <point x="714" y="451"/>
      <point x="712" y="512" type="curve"/>
      <point x="656" y="416"/>
      <point x="595" y="304"/>
      <point x="526" y="175" type="curve" smooth="yes"/>
      <point x="499" y="123"/>
      <point x="478" y="76"/>
      <point x="452" y="3" type="curve"/>
      <point x="418" y="0" type="line"/>
      <point x="397" y="63"/>
      <point x="366" y="122"/>
      <point x="341" y="169" type="curve" smooth="yes"/>
      <point x="279" y="285"/>
      <point x="220" y="387"/>
      <point x="151" y="512" type="curve"/>
      <point x="151" y="406" type="line" smooth="yes"/>
      <point x="151" y="312"/>
      <point x="152" y="216"/>
      <point x="157" y="106" type="curve" smooth="yes"/>
      <point x="160" y="47"/>
      <point x="190" y="45"/>
      <point x="235" y="36" type="curve"/>
      <point x="229" y="-3" type="line"/>
      <point x="213" y="1"/>
      <point x="171" y="3"/>
      <point x="127" y="3" type="curve" smooth="yes"/>
      <point x="88" y="3"/>
      <point x="47" y="1"/>
      <point x="23" y="-3" type="curve"/>
      <point x="20" y="36" type="line"/>
      <point x="73" y="46"/>
      <point x="89" y="59"/>
      <point x="94" y="109" type="curve" smooth="yes"/>
      <point x="99" y="167"/>
      <point x="104" y="333"/>
      <point x="104" y="479" type="curve" smooth="yes"/>
      <point x="104" y="520" type="line" smooth="yes"/>
      <point x="104" y="579"/>
      <point x="82" y="593"/>
      <point x="26" y="600" type="curve"/>
      <point x="30" y="639" type="line"/>
      <point x="63" y="636"/>
      <point x="107" y="634"/>
      <point x="152" y="634" type="curve" smooth="yes"/>
      <point x="188" y="634"/>
      <point x="224" y="635"/>
      <point x="256" y="638" type="curve"/>
      <point x="256" y="614"/>
      <point x="262" y="580"/>
      <point x="280" y="541" type="curve" smooth="yes"/>
      <point x="322" y="450"/>
      <point x="406" y="300"/>
      <point x="472" y="188" type="curve"/>
      <point x="537" y="300"/>
      <point x="604" y="425"/>
      <point x="662" y="539" type="curve" smooth="yes"/>
      <point x="683" y="580"/>
      <point x="691" y="610"/>
    </contour>
  </outline>
</glyph>
<glyph name="Q" format="1">
  <advance width="728"/>
  <unicode hex="0051"/>
  <outline>
    <contour>
      <point x="590" y="-225" type="curve"/>
      <point x="468" y="-158"/>
      <point x="423" y="-109"/>
      <point x="329" y="-13" type="curve"/>
      <point x="121" y="0"/>
      <point x="41" y="170"/>
      <point x="41" y="300" type="curve" smooth="yes"/>
      <point x="41" y="390"/>
      <point x="65" y="514"/>
      <point x="176" y="592" type="curve" smooth="yes"/>
      <point x="233" y="632"/>
      <point x="340" y="655"/>
      <point x="375" y="655" type="curve" smooth="yes"/>
      <point x="605" y="655"/>
      <point x="685" y="465"/>
      <point x="685" y="336" type="curve" smooth="yes"/>
      <point x="685" y="215"/>
      <point x="640" y="121"/>
      <point x="559" y="52" type="curve" smooth="yes"/>
      <point x="538" y="35"/>
      <point x="476" y="6"/>
      <point x="413" y="-7" type="curve"/>
      <point x="519" y="-70"/>
      <point x="549" y="-71"/>
      <point x="671" y="-95" type="curve"/>
      <point x="645" y="-122"/>
      <point x="604" y="-196"/>
    </contour>
    <contour>
      <point x="174" y="321" type="curve" smooth="yes"/>
      <point x="174" y="230"/>
      <point x="216" y="140"/>
      <point x="280" y="93" type="curve" smooth="yes"/>
      <point x="316" y="67"/>
      <point x="362" y="55"/>
      <point x="400" y="55" type="curve" smooth="yes"/>
      <point x="421" y="55"/>
      <point x="439" y="58"/>
      <point x="453" y="65" type="curve" smooth="yes"/>
      <point x="512" y="91"/>
      <point x="551" y="168"/>
      <point x="551" y="304" type="curve" smooth="yes"/>
      <point x="551" y="416"/>
      <point x="507" y="497"/>
      <point x="460" y="544" type="curve" smooth="yes"/>
      <point x="427" y="577"/>
      <point x="382" y="592"/>
      <point x="341" y="592" type="curve" smooth="yes"/>
      <point x="314" y="592"/>
      <point x="289" y="585"/>
      <point x="270" y="572" type="curve" smooth="yes"/>
      <point x="213" y="532"/>
      <point x="174" y="465"/>
    </contour>
  </outline>
</glyph>
<glyph name="S" format="1">
  <advance width="496"/>
  <unicode hex="0053"/>
  <outline>
    <contour>
      <point x="57" y="26" type="curve"/>
      <point x="46" y="66"/>
      <point x="35" y="119"/>
      <point x="16" y="158" type="curve"/>
      <point x="50" y="175" type="line"/>
      <point x="109" y="71"/>
      <point x="172" y="40"/>
      <point x="229" y="40" type="curve" smooth="yes"/>
      <point x="307" y="40"/>
      <point x="370" y="73"/>
      <point x="370" y="151" type="curve" smooth="yes"/>
      <point x="370" y="217"/>
      <point x="300" y="250"/>
      <point x="194" y="294" type="curve" smooth="yes"/>
      <point x="124" y="323"/>
      <point x="48" y="368"/>
      <point x="48" y="471" type="curve" smooth="yes"/>
      <point x="48" y="561"/>
      <point x="131" y="648"/>
      <point x="253" y="648" type="curve" smooth="yes"/>
      <point x="292" y="648"/>
      <point x="330" y="643"/>
      <point x="372" y="627" type="curve"/>
      <point x="378" y="609"/>
      <point x="416" y="520"/>
      <point x="423" y="508" type="curve"/>
      <point x="390" y="492" type="line"/>
      <point x="353" y="560"/>
      <point x="304" y="597"/>
      <point x="242" y="597" type="curve" smooth="yes"/>
      <point x="167" y="597"/>
      <point x="135" y="555"/>
      <point x="135" y="516" type="curve" smooth="yes"/>
      <point x="135" y="455"/>
      <point x="182" y="430"/>
      <point x="261" y="399" type="curve"/>
      <point x="353" y="361"/>
      <point x="453" y="329"/>
      <point x="453" y="191" type="curve" smooth="yes"/>
      <point x="453" y="124"/>
      <point x="402" y="-15"/>
      <point x="220" y="-15" type="curve" smooth="yes"/>
      <point x="166" y="-15"/>
      <point x="101" y="-7"/>
    </contour>
  </outline>
</glyph>
<glyph name="U" format="1">
  <advance width="724"/>
  <unicode hex="0055"/>
  <outline>
    <contour>
      <point x="237" y="534" type="curve" smooth="yes"/>
      <point x="234" y="481"/>
      <point x="232" y="419"/>
      <point x="232" y="357" type="curve" smooth="yes"/>
      <point x="232" y="306"/>
      <point x="233" y="255"/>
      <point x="235" y="211" type="curve"/>
      <point x="237" y="118"/>
      <point x="290" y="55"/>
      <point x="388" y="55" type="curve" smooth="yes"/>
      <point x="514" y="55"/>
      <point x="571" y="93"/>
      <point x="575" y="222" type="curve"/>
      <point x="575" y="285" type="line" smooth="yes"/>
      <point x="575" y="364"/>
      <point x="574" y="462"/>
      <point x="570" y="510" type="curve" smooth="yes"/>
      <point x="563" y="582"/>
      <point x="543" y="590"/>
      <point x="486" y="600" type="curve"/>
      <point x="491" y="639" type="line"/>
      <point x="513" y="636"/>
      <point x="556" y="633"/>
      <point x="600" y="633" type="curve" smooth="yes"/>
      <point x="634" y="633"/>
      <point x="669" y="635"/>
      <point x="694" y="639" type="curve"/>
      <point x="700" y="600" type="line"/>
      <point x="663" y="595"/>
      <point x="636" y="592"/>
      <point x="631" y="513" type="curve" smooth="yes"/>
      <point x="629" y="475"/>
      <point x="628" y="435"/>
      <point x="628" y="394" type="curve" smooth="yes"/>
      <point x="628" y="346"/>
      <point x="629" y="298"/>
      <point x="629" y="252" type="curve" smooth="yes"/>
      <point x="629" y="218" type="line"/>
      <point x="627" y="127"/>
      <point x="604" y="70"/>
      <point x="525" y="19" type="curve" smooth="yes"/>
      <point x="481" y="-9"/>
      <point x="411" y="-18"/>
      <point x="356" y="-18" type="curve" smooth="yes"/>
      <point x="192" y="-18"/>
      <point x="113" y="59"/>
      <point x="113" y="218" type="curve" smooth="yes"/>
      <point x="113" y="370" type="line" smooth="yes"/>
      <point x="113" y="422"/>
      <point x="113" y="475"/>
      <point x="111" y="533" type="curve" smooth="yes"/>
      <point x="109" y="584"/>
      <point x="101" y="591"/>
      <point x="32" y="600" type="curve"/>
      <point x="36" y="639" type="line"/>
      <point x="37" y="639" type="line"/>
      <point x="86" y="634"/>
      <point x="129" y="631"/>
      <point x="172" y="631" type="curve" smooth="yes"/>
      <point x="215" y="631"/>
      <point x="258" y="634"/>
      <point x="307" y="639" type="curve"/>
      <point x="310" y="600" type="line"/>
      <point x="242" y="588"/>
      <point x="240" y="585"/>
    </contour>
  </outline>
</glyph>
<glyph name="V" format="1">
  <advance width="704"/>
  <unicode hex="0056"/>
  <outline>
    <contour>
      <point x="313" y="-25" type="curve"/>
      <point x="274" y="99"/>
      <point x="153" y="408"/>
      <point x="107" y="513" type="curve" smooth="yes"/>
      <point x="80" y="575"/>
      <point x="82" y="585"/>
      <point x="17" y="600" type="curve"/>
      <point x="22" y="639" type="line"/>
      <point x="55" y="635"/>
      <point x="94" y="633"/>
      <point x="134" y="633" type="curve" smooth="yes"/>
      <point x="185" y="633"/>
      <point x="238" y="636"/>
      <point x="281" y="639" type="curve"/>
      <point x="287" y="600" type="line"/>
      <point x="241" y="595"/>
      <point x="229" y="582"/>
      <point x="229" y="564" type="curve" smooth="yes"/>
      <point x="229" y="552"/>
      <point x="234" y="539"/>
      <point x="239" y="525" type="curve" smooth="yes"/>
      <point x="273" y="426"/>
      <point x="355" y="213"/>
      <point x="377" y="141" type="curve"/>
      <point x="488" y="392" type="line" smooth="yes"/>
      <point x="501" y="422"/>
      <point x="531" y="500"/>
      <point x="538" y="534" type="curve" smooth="yes"/>
      <point x="549" y="582"/>
      <point x="532" y="588"/>
      <point x="479" y="600" type="curve"/>
      <point x="484" y="639" type="line"/>
      <point x="513" y="636"/>
      <point x="544" y="635"/>
      <point x="574" y="635" type="curve" smooth="yes"/>
      <point x="613" y="635"/>
      <point x="652" y="637"/>
      <point x="682" y="639" type="curve"/>
      <point x="687" y="600" type="line"/>
      <point x="641" y="591"/>
      <point x="639" y="592"/>
      <point x="605" y="527" type="curve" smooth="yes"/>
      <point x="589" y="497"/>
      <point x="550" y="415"/>
      <point x="535" y="382" type="curve" smooth="yes"/>
      <point x="491" y="280"/>
      <point x="460" y="209"/>
      <point x="425" y="119" type="curve" smooth="yes"/>
      <point x="404" y="64"/>
      <point x="392" y="18"/>
      <point x="389" y="-14" type="curve"/>
      <point x="375" y="-17"/>
      <point x="347" y="-22"/>
    </contour>
  </outline>
</glyph>
<glyph name="W" format="1">
  <advance width="1022"/>
  <unicode hex="0057"/>
  <outline>
    <contour>
      <point x="906" y="492" type="curve" smooth="yes"/>
      <point x="852" y="365"/>
      <point x="796" y="218"/>
      <point x="752" y="90" type="curve" smooth="yes"/>
      <point x="742" y="59"/>
      <point x="734" y="34"/>
      <point x="725" y="-22" type="curve"/>
      <point x="700" y="-22"/>
      <point x="685" y="-26"/>
      <point x="656" y="-33" type="curve"/>
      <point x="614" y="103"/>
      <point x="564" y="238"/>
      <point x="509" y="382" type="curve"/>
      <point x="471" y="296"/>
      <point x="417" y="167"/>
      <point x="388" y="90" type="curve" smooth="yes"/>
      <point x="376" y="59"/>
      <point x="370" y="34"/>
      <point x="359" y="-22" type="curve"/>
      <point x="334" y="-22"/>
      <point x="318" y="-26"/>
      <point x="289" y="-33" type="curve"/>
      <point x="263" y="63"/>
      <point x="237" y="140"/>
      <point x="206" y="224" type="curve" smooth="yes"/>
      <point x="165" y="336"/>
      <point x="118" y="464"/>
      <point x="94" y="517" type="curve"/>
      <point x="65" y="577"/>
      <point x="61" y="588"/>
      <point x="7" y="600" type="curve"/>
      <point x="11" y="639" type="line"/>
      <point x="50" y="635"/>
      <point x="88" y="632"/>
      <point x="131" y="632" type="curve" smooth="yes"/>
      <point x="169" y="632"/>
      <point x="212" y="634"/>
      <point x="263" y="639" type="curve"/>
      <point x="270" y="600" type="line"/>
      <point x="231" y="592"/>
      <point x="217" y="588"/>
      <point x="217" y="566" type="curve" smooth="yes"/>
      <point x="217" y="557"/>
      <point x="220" y="545"/>
      <point x="224" y="528" type="curve" smooth="yes"/>
      <point x="241" y="463"/>
      <point x="294" y="320"/>
      <point x="330" y="220" type="curve"/>
      <point x="339" y="198"/>
      <point x="349" y="172"/>
      <point x="355" y="147" type="curve"/>
      <point x="396" y="245"/>
      <point x="442" y="347"/>
      <point x="484" y="446" type="curve"/>
      <point x="449" y="531"/>
      <point x="420" y="597"/>
      <point x="404" y="622" type="curve"/>
      <point x="462" y="625"/>
      <point x="503" y="631"/>
      <point x="554" y="648" type="curve"/>
      <point x="557" y="610"/>
      <point x="580" y="532"/>
      <point x="595" y="484" type="curve"/>
      <point x="620" y="410"/>
      <point x="655" y="313"/>
      <point x="687" y="231" type="curve"/>
      <point x="699" y="204"/>
      <point x="710" y="176"/>
      <point x="718" y="146" type="curve"/>
      <point x="765" y="283"/>
      <point x="810" y="390"/>
      <point x="839" y="494" type="curve" smooth="yes"/>
      <point x="845" y="517"/>
      <point x="849" y="534"/>
      <point x="849" y="548" type="curve" smooth="yes"/>
      <point x="849" y="580"/>
      <point x="831" y="593"/>
      <point x="790" y="600" type="curve"/>
      <point x="795" y="640" type="line"/>
      <point x="821" y="637"/>
      <point x="854" y="635"/>
      <point x="889" y="635" type="curve" smooth="yes"/>
      <point x="927" y="635"/>
      <point x="966" y="637"/>
      <point x="998" y="640" type="curve"/>
      <point x="1005" y="600" type="line"/>
      <point x="958" y="589"/>
      <point x="945" y="585"/>
    </contour>
  </outline>
</glyph>
<glyph name="Y" format="1">
  <advance width="652"/>
  <unicode hex="0059"/>
  <outline>
    <contour>
      <point x="194" y="-3" type="curve"/>
      <point x="190" y="36" type="line"/>
      <point x="258" y="45"/>
      <point x="256" y="58"/>
      <point x="258" y="110" type="curve" smooth="yes"/>
      <point x="259" y="134"/>
      <point x="260" y="168"/>
      <point x="260" y="198" type="curve" smooth="yes"/>
      <point x="260" y="219"/>
      <point x="259" y="237"/>
      <point x="259" y="248" type="curve"/>
      <point x="215" y="354"/>
      <point x="167" y="445"/>
      <point x="118" y="529" type="curve" smooth="yes"/>
      <point x="85" y="585"/>
      <point x="77" y="594"/>
      <point x="20" y="600" type="curve"/>
      <point x="24" y="639" type="line"/>
      <point x="52" y="636"/>
      <point x="88" y="635"/>
      <point x="125" y="635" type="curve" smooth="yes"/>
      <point x="159" y="635"/>
      <point x="193" y="636"/>
      <point x="224" y="639" type="curve"/>
      <point x="222" y="626"/>
      <point x="223" y="602"/>
      <point x="238" y="566" type="curve" smooth="yes"/>
      <point x="293" y="435"/>
      <point x="315" y="395"/>
      <point x="359" y="311" type="curve"/>
      <point x="404" y="386"/>
      <point x="436" y="445"/>
      <point x="471" y="523" type="curve" smooth="yes"/>
      <point x="477" y="537"/>
      <point x="482" y="551"/>
      <point x="482" y="564" type="curve" smooth="yes"/>
      <point x="482" y="582"/>
      <point x="472" y="597"/>
      <point x="440" y="603" type="curve"/>
      <point x="444" y="639" type="line"/>
      <point x="474" y="636"/>
      <point x="507" y="634"/>
      <point x="541" y="634" type="curve" smooth="yes"/>
      <point x="570" y="634"/>
      <point x="600" y="635"/>
      <point x="628" y="639" type="curve"/>
      <point x="632" y="600" type="line"/>
      <point x="585" y="590"/>
      <point x="572" y="575"/>
      <point x="545" y="535" type="curve" smooth="yes"/>
      <point x="512" y="485"/>
      <point x="424" y="332"/>
      <point x="381" y="245" type="curve"/>
      <point x="380" y="218"/>
      <point x="380" y="181"/>
      <point x="380" y="145" type="curve" smooth="yes"/>
      <point x="380" y="102" type="line" smooth="yes"/>
      <point x="380" y="47"/>
      <point x="386" y="47"/>
      <point x="450" y="36" type="curve"/>
      <point x="443" y="-3" type="line"/>
      <point x="389" y="0"/>
      <point x="342" y="2"/>
      <point x="297" y="2" type="curve" smooth="yes"/>
      <point x="263" y="2"/>
      <point x="229" y="1"/>
    </contour>
  </outline>
</glyph>
<glyph name="bracketleft" format="1">
  <advance width="312"/>
  <unicode hex="005B"/>
  <outline>
    <contour>
      <point x="48" y="-166" type="curve"/>
      <point x="52" y="-92"/>
      <point x="54" y="19"/>
      <point x="54" y="138" type="curve" smooth="yes"/>
      <point x="54" y="318"/>
      <point x="50" y="518"/>
      <point x="48" y="642" type="curve"/>
      <point x="116" y="642"/>
      <point x="222" y="649"/>
      <point x="274" y="667" type="curve"/>
      <point x="282" y="624" type="line"/>
      <point x="245" y="612"/>
      <point x="196" y="603"/>
      <point x="159" y="601" type="curve"/>
      <point x="155" y="500"/>
      <point x="153" y="378"/>
      <point x="153" y="254" type="curve" smooth="yes"/>
      <point x="153" y="122"/>
      <point x="155" y="-12"/>
      <point x="159" y="-126" type="curve"/>
      <point x="196" y="-127"/>
      <point x="245" y="-137"/>
      <point x="282" y="-149" type="curve"/>
      <point x="274" y="-192" type="line"/>
      <point x="222" y="-174"/>
      <point x="116" y="-166"/>
    </contour>
  </outline>
</glyph>
<glyph name="backslash" format="1">
  <advance width="348"/>
  <unicode hex="005C"/>
  <outline>
    <contour>
      <point x="37" y="668" type="curve"/>
      <point x="84" y="681" type="line"/>
      <point x="145" y="475"/>
      <point x="248" y="145"/>
      <point x="312" y="-60" type="curve"/>
      <point x="264" y="-73" type="line"/>
      <point x="203" y="132"/>
      <point x="101" y="464"/>
    </contour>
  </outline>
</glyph>
<glyph name="bracketright" format="1">
  <advance width="312"/>
  <unicode hex="005D"/>
  <outline>
    <contour>
      <point x="264" y="-166" type="curve"/>
      <point x="196" y="-166"/>
      <point x="90" y="-174"/>
      <point x="38" y="-192" type="curve"/>
      <point x="30" y="-149" type="line"/>
      <point x="67" y="-137"/>
      <point x="116" y="-127"/>
      <point x="153" y="-126" type="curve"/>
      <point x="157" y="-12"/>
      <point x="159" y="122"/>
      <point x="159" y="254" type="curve" smooth="yes"/>
      <point x="159" y="378"/>
      <point x="157" y="500"/>
      <point x="153" y="601" type="curve"/>
      <point x="116" y="603"/>
      <point x="67" y="612"/>
      <point x="30" y="624" type="curve"/>
      <point x="38" y="667" type="line"/>
      <point x="90" y="649"/>
      <point x="196" y="642"/>
      <point x="264" y="642" type="curve"/>
      <point x="262" y="518"/>
      <point x="258" y="318"/>
      <point x="258" y="138" type="curve" smooth="yes"/>
      <point x="258" y="19"/>
      <point x="260" y="-92"/>
    </contour>
  </outline>
</glyph>
<glyph name="asciicircum" format="1">
  <advance width="360"/>
  <unicode hex="005E"/>
  <outline>
    <contour>
      <point x="58" y="382" type="line"/>
      <point x="18" y="405" type="line"/>
      <point x="171" y="659" type="line"/>
      <point x="190" y="659" type="line"/>
      <point x="342" y="405" type="line"/>
      <point x="302" y="380" type="line"/>
      <point x="180" y="582" type="line"/>
    </contour>
  </outline>
</glyph>
<glyph name="underscore" format="1">
  <advance width="415"/>
  <unicode hex="005F"/>
  <outline>
    <contour>
      <point x="0" y="-107" type="line"/>
      <point x="0" y="-58" type="line"/>
      <point x="415" y="-58" type="line"/>
      <point x="415" y="-107" type="line"/>
    </contour>
  </outline>
</glyph>
<glyph name="b" format="1">
  <advance width="531"/>
  <unicode hex="0062"/>
  <outline>
    <contour>
      <point x="67" y="29" type="curve"/>
      <point x="76" y="88"/>
      <point x="78" y="122"/>
      <point x="79" y="192" type="curve" smooth="yes"/>
      <point x="80" y="248"/>
      <point x="80" y="312"/>
      <point x="80" y="372" type="curve" smooth="yes"/>
      <point x="80" y="454"/>
      <point x="80" y="527"/>
      <point x="79" y="561" type="curve" smooth="yes"/>
      <point x="78" y="613"/>
      <point x="71" y="620"/>
      <point x="11" y="614" type="curve"/>
      <point x="5" y="652" type="line"/>
      <point x="79" y="675"/>
      <point x="120" y="686"/>
      <point x="197" y="699" type="curve"/>
      <point x="194" y="659"/>
      <point x="191" y="534"/>
      <point x="190" y="387" type="curve"/>
      <point x="222" y="401"/>
      <point x="253" y="410"/>
      <point x="289" y="421" type="curve" smooth="yes"/>
      <point x="307" y="426"/>
      <point x="323" y="429"/>
      <point x="338" y="429" type="curve" smooth="yes"/>
      <point x="359" y="429"/>
      <point x="379" y="424"/>
      <point x="400" y="415" type="curve" smooth="yes"/>
      <point x="454" y="391"/>
      <point x="492" y="335"/>
      <point x="492" y="260" type="curve" smooth="yes"/>
      <point x="492" y="172"/>
      <point x="465" y="84"/>
      <point x="397" y="41" type="curve" smooth="yes"/>
      <point x="365" y="21"/>
      <point x="317" y="-2"/>
      <point x="284" y="-9" type="curve" smooth="yes"/>
      <point x="269" y="-12"/>
      <point x="256" y="-14"/>
      <point x="242" y="-14" type="curve" smooth="yes"/>
      <point x="225" y="-14"/>
      <point x="207" y="-11"/>
      <point x="182" y="-7" type="curve" smooth="yes"/>
      <point x="146" y="0"/>
      <point x="88" y="19"/>
    </contour>
    <contour>
      <point x="366" y="212" type="curve" smooth="yes"/>
      <point x="366" y="286"/>
      <point x="351" y="355"/>
      <point x="260" y="355" type="curve" smooth="yes"/>
      <point x="237" y="355"/>
      <point x="223" y="354"/>
      <point x="190" y="346" type="curve"/>
      <point x="190" y="242"/>
      <point x="190" y="182"/>
      <point x="192" y="76" type="curve"/>
      <point x="204" y="69"/>
      <point x="222" y="62"/>
      <point x="241" y="56" type="curve"/>
      <point x="259" y="52"/>
      <point x="272" y="49"/>
      <point x="284" y="49" type="curve" smooth="yes"/>
      <point x="293" y="49"/>
      <point x="302" y="50"/>
      <point x="313" y="54" type="curve" smooth="yes"/>
      <point x="350" y="66"/>
      <point x="366" y="136"/>
    </contour>
  </outline>
</glyph>
<glyph name="f" format="1">
  <advance width="363"/>
  <unicode hex="0066"/>
  <outline>
    <contour>
      <point x="331" y="360" type="curve"/>
      <point x="289" y="365"/>
      <point x="263" y="366"/>
      <point x="215" y="367" type="curve"/>
      <point x="215" y="251"/>
      <point x="216" y="150"/>
      <point x="218" y="99" type="curve" smooth="yes"/>
      <point x="220" y="53"/>
      <point x="235" y="44"/>
      <point x="292" y="36" type="curve"/>
      <point x="287" y="-5" type="line"/>
      <point x="237" y="1"/>
      <point x="202" y="4"/>
      <point x="167" y="4" type="curve" smooth="yes"/>
      <point x="127" y="4"/>
      <point x="89" y="0"/>
      <point x="35" y="-5" type="curve"/>
      <point x="32" y="36" type="line"/>
      <point x="92" y="45"/>
      <point x="100" y="46"/>
      <point x="102" y="97" type="curve" smooth="yes"/>
      <point x="104" y="140"/>
      <point x="105" y="252"/>
      <point x="105" y="366" type="curve"/>
      <point x="87" y="367"/>
      <point x="58" y="365"/>
      <point x="29" y="364" type="curve"/>
      <point x="26" y="393" type="line"/>
      <point x="50" y="398"/>
      <point x="91" y="410"/>
      <point x="106" y="417" type="curve"/>
      <point x="105" y="464"/>
      <point x="103" y="465"/>
      <point x="104" y="505" type="curve" smooth="yes"/>
      <point x="104" y="530"/>
      <point x="110" y="555"/>
      <point x="130" y="580" type="curve" smooth="yes"/>
      <point x="149" y="604"/>
      <point x="181" y="639"/>
      <point x="225" y="671" type="curve"/>
      <point x="266" y="703"/>
      <point x="290" y="710"/>
      <point x="339" y="705" type="curve" smooth="yes"/>
      <point x="370" y="701"/>
      <point x="393" y="695"/>
      <point x="423" y="695" type="curve"/>
      <point x="395" y="657"/>
      <point x="371" y="607"/>
      <point x="364" y="577" type="curve"/>
      <point x="336" y="592"/>
      <point x="298" y="605"/>
      <point x="269" y="610" type="curve" smooth="yes"/>
      <point x="219" y="617"/>
      <point x="217" y="597"/>
      <point x="215" y="555" type="curve" smooth="yes"/>
      <point x="214" y="544"/>
      <point x="214" y="525"/>
      <point x="214" y="505" type="curve" smooth="yes"/>
      <point x="214" y="477"/>
      <point x="214" y="444"/>
      <point x="215" y="416" type="curve"/>
      <point x="265" y="416"/>
      <point x="287" y="417"/>
      <point x="353" y="424" type="curve"/>
      <point x="344" y="409"/>
      <point x="335" y="374"/>
    </contour>
  </outline>
</glyph>
<glyph name="k" format="1">
  <advance width="584"/>
  <unicode hex="006B"/>
  <outline>
    <contour>
      <point x="93" y="85" type="curve" smooth="yes"/>
      <point x="96" y="134"/>
      <point x="97" y="248"/>
      <point x="97" y="355" type="curve" smooth="yes"/>
      <point x="97" y="447"/>
      <point x="96" y="534"/>
      <point x="95" y="570" type="curve" smooth="yes"/>
      <point x="94" y="616"/>
      <point x="85" y="624"/>
      <point x="28" y="619" type="curve"/>
      <point x="23" y="656" type="line"/>
      <point x="96" y="679"/>
      <point x="135" y="690"/>
      <point x="213" y="703" type="curve"/>
      <point x="209" y="658"/>
      <point x="206" y="473"/>
      <point x="206" y="313" type="curve" smooth="yes"/>
      <point x="206" y="233" type="line"/>
      <point x="339" y="340"/>
      <point x="400" y="376"/>
      <point x="509" y="435" type="curve"/>
      <point x="513" y="406"/>
      <point x="521" y="360"/>
      <point x="535" y="333" type="curve"/>
      <point x="415" y="315"/>
      <point x="401" y="311"/>
      <point x="321" y="266" type="curve"/>
      <point x="351" y="223"/>
      <point x="409" y="142"/>
      <point x="446" y="104" type="curve"/>
      <point x="498" y="53"/>
      <point x="533" y="42"/>
      <point x="561" y="36" type="curve"/>
      <point x="555" y="-3" type="line"/>
      <point x="525" y="1"/>
      <point x="490" y="3"/>
      <point x="456" y="3" type="curve" smooth="yes"/>
      <point x="424" y="3"/>
      <point x="391" y="1"/>
      <point x="362" y="-3" type="curve"/>
      <point x="358" y="18"/>
      <point x="336" y="53"/>
      <point x="329" y="65" type="curve" smooth="yes"/>
      <point x="288" y="128"/>
      <point x="250" y="180"/>
      <point x="206" y="233" type="curve"/>
      <point x="206" y="171"/>
      <point x="207" y="119"/>
      <point x="209" y="87" type="curve" smooth="yes"/>
      <point x="211" y="49"/>
      <point x="213" y="46"/>
      <point x="255" y="38" type="curve"/>
      <point x="250" y="-3" type="line"/>
      <point x="199" y="1"/>
      <point x="168" y="3"/>
      <point x="136" y="3" type="curve" smooth="yes"/>
      <point x="106" y="3"/>
      <point x="76" y="1"/>
      <point x="28" y="-3" type="curve"/>
      <point x="25" y="38" type="line"/>
      <point x="75" y="42"/>
      <point x="91" y="47"/>
    </contour>
  </outline>
</glyph>
<glyph name="p" format="1">
  <advance width="553"/>
  <unicode hex="0070"/>
  <outline>
    <contour>
      <point x="88" y="-131" type="curve" smooth="yes"/>
      <point x="91" y="-39"/>
      <point x="93" y="60"/>
      <point x="93" y="162" type="curve" smooth="yes"/>
      <point x="93" y="210"/>
      <point x="93" y="258"/>
      <point x="92" y="307" type="curve" smooth="yes"/>
      <point x="91" y="340"/>
      <point x="80" y="350"/>
      <point x="58" y="350" type="curve" smooth="yes"/>
      <point x="49" y="350"/>
      <point x="38" y="349"/>
      <point x="25" y="346" type="curve"/>
      <point x="20" y="384" type="line"/>
      <point x="91" y="408"/>
      <point x="124" y="418"/>
      <point x="202" y="431" type="curve"/>
      <point x="200" y="415"/>
      <point x="201" y="396"/>
      <point x="202" y="375" type="curve"/>
      <point x="236" y="391"/>
      <point x="248" y="401"/>
      <point x="288" y="418" type="curve" smooth="yes"/>
      <point x="309" y="426"/>
      <point x="327" y="430"/>
      <point x="345" y="430" type="curve" smooth="yes"/>
      <point x="364" y="430"/>
      <point x="381" y="426"/>
      <point x="399" y="420" type="curve" smooth="yes"/>
      <point x="477" y="395"/>
      <point x="510" y="317"/>
      <point x="510" y="235" type="curve" smooth="yes"/>
      <point x="510" y="155"/>
      <point x="490" y="108"/>
      <point x="438" y="58" type="curve" smooth="yes"/>
      <point x="416" y="37"/>
      <point x="368" y="11"/>
      <point x="339" y="0" type="curve"/>
      <point x="309" y="-10"/>
      <point x="289" y="-11"/>
      <point x="259" y="-8" type="curve" smooth="yes"/>
      <point x="234" y="-5"/>
      <point x="229" y="-3"/>
      <point x="202" y="1" type="curve"/>
      <point x="202" y="-44"/>
      <point x="203" y="-89"/>
      <point x="205" y="-135" type="curve" smooth="yes"/>
      <point x="207" y="-182"/>
      <point x="235" y="-192"/>
      <point x="290" y="-205" type="curve"/>
      <point x="285" y="-244" type="line"/>
      <point x="238" y="-238"/>
      <point x="200" y="-236"/>
      <point x="163" y="-236" type="curve" smooth="yes"/>
      <point x="120" y="-236"/>
      <point x="78" y="-239"/>
      <point x="21" y="-244" type="curve"/>
      <point x="18" y="-203" type="line"/>
      <point x="87" y="-190"/>
      <point x="87" y="-182"/>
    </contour>
    <contour>
      <point x="328" y="335" type="curve"/>
      <point x="314" y="343"/>
      <point x="292" y="345"/>
      <point x="265" y="343" type="curve" smooth="yes"/>
      <point x="245" y="341"/>
      <point x="230" y="338"/>
      <point x="204" y="330" type="curve"/>
      <point x="204" y="283" type="line" smooth="yes"/>
      <point x="204" y="219"/>
      <point x="203" y="154"/>
      <point x="203" y="83" type="curve"/>
      <point x="234" y="71"/>
      <point x="245" y="65"/>
      <point x="278" y="58" type="curve" smooth="yes"/>
      <point x="296" y="54"/>
      <point x="330" y="45"/>
      <point x="351" y="57" type="curve" smooth="yes"/>
      <point x="376" y="71"/>
      <point x="391" y="113"/>
      <point x="388" y="198" type="curve" smooth="yes"/>
      <point x="385" y="268"/>
      <point x="367" y="316"/>
    </contour>
  </outline>
</glyph>
<glyph name="q" format="1">
  <advance width="514"/>
  <unicode hex="0071"/>
  <outline>
    <contour>
      <point x="330" y="-140" type="curve" smooth="yes"/>
      <point x="332" y="-92"/>
      <point x="332" y="-35"/>
      <point x="332" y="28" type="curve"/>
      <point x="300" y="14"/>
      <point x="269" y="5"/>
      <point x="234" y="-6" type="curve" smooth="yes"/>
      <point x="216" y="-11"/>
      <point x="199" y="-14"/>
      <point x="183" y="-14" type="curve" smooth="yes"/>
      <point x="161" y="-14"/>
      <point x="140" y="-9"/>
      <point x="120" y="1" type="curve" smooth="yes"/>
      <point x="65" y="28"/>
      <point x="34" y="93"/>
      <point x="30" y="159" type="curve" smooth="yes"/>
      <point x="25" y="260"/>
      <point x="62" y="333"/>
      <point x="123" y="371" type="curve" smooth="yes"/>
      <point x="155" y="391"/>
      <point x="205" y="415"/>
      <point x="239" y="423" type="curve" smooth="yes"/>
      <point x="255" y="426"/>
      <point x="268" y="428"/>
      <point x="282" y="428" type="curve" smooth="yes"/>
      <point x="298" y="428"/>
      <point x="316" y="426"/>
      <point x="340" y="420" type="curve" smooth="yes"/>
      <point x="352" y="418"/>
      <point x="371" y="411"/>
      <point x="385" y="407" type="curve"/>
      <point x="414" y="411"/>
      <point x="428" y="415"/>
      <point x="450" y="423" type="curve"/>
      <point x="444" y="364"/>
      <point x="444" y="296"/>
      <point x="443" y="226" type="curve" smooth="yes"/>
      <point x="442" y="163"/>
      <point x="441" y="97"/>
      <point x="441" y="30" type="curve" smooth="yes"/>
      <point x="441" y="-28"/>
      <point x="442" y="-87"/>
      <point x="444" y="-144" type="curve" smooth="yes"/>
      <point x="446" y="-186"/>
      <point x="450" y="-194"/>
      <point x="502" y="-205" type="curve"/>
      <point x="497" y="-244" type="line"/>
      <point x="453" y="-241"/>
      <point x="413" y="-239"/>
      <point x="370" y="-239" type="curve" smooth="yes"/>
      <point x="338" y="-239"/>
      <point x="304" y="-240"/>
      <point x="265" y="-244" type="curve"/>
      <point x="261" y="-203" type="line"/>
      <point x="310" y="-194"/>
      <point x="327" y="-193"/>
    </contour>
    <contour>
      <point x="151" y="207" type="curve" smooth="yes"/>
      <point x="153" y="119"/>
      <point x="189" y="57"/>
      <point x="263" y="60" type="curve" smooth="yes"/>
      <point x="285" y="61"/>
      <point x="299" y="61"/>
      <point x="332" y="69" type="curve"/>
      <point x="332" y="128"/>
      <point x="333" y="172"/>
      <point x="333" y="219" type="curve" smooth="yes"/>
      <point x="333" y="254"/>
      <point x="332" y="291"/>
      <point x="331" y="336" type="curve"/>
      <point x="320" y="344"/>
      <point x="301" y="352"/>
      <point x="281" y="357" type="curve" smooth="yes"/>
      <point x="250" y="365"/>
      <point x="230" y="366"/>
      <point x="209" y="360" type="curve"/>
      <point x="178" y="349"/>
      <point x="148" y="306"/>
    </contour>
  </outline>
</glyph>
<glyph name="v" format="1">
  <advance width="550"/>
  <unicode hex="0076"/>
  <outline>
    <contour>
      <point x="305" y="-15" type="curve"/>
      <point x="245" y="-23" type="line"/>
      <point x="210" y="75"/>
      <point x="124" y="245"/>
      <point x="88" y="311" type="curve" smooth="yes"/>
      <point x="55" y="371"/>
      <point x="38" y="379"/>
      <point x="9" y="383" type="curve"/>
      <point x="15" y="421" type="line"/>
      <point x="44" y="416"/>
      <point x="81" y="414"/>
      <point x="118" y="414" type="curve" smooth="yes"/>
      <point x="164" y="414"/>
      <point x="210" y="417"/>
      <point x="242" y="421" type="curve"/>
      <point x="246" y="383" type="line"/>
      <point x="215" y="378"/>
      <point x="206" y="369"/>
      <point x="206" y="357" type="curve" smooth="yes"/>
      <point x="206" y="348"/>
      <point x="211" y="337"/>
      <point x="216" y="324" type="curve" smooth="yes"/>
      <point x="235" y="273"/>
      <point x="268" y="196"/>
      <point x="306" y="119" type="curve"/>
      <point x="341" y="190"/>
      <point x="364" y="240"/>
      <point x="389" y="304" type="curve" smooth="yes"/>
      <point x="394" y="318"/>
      <point x="398" y="330"/>
      <point x="398" y="341" type="curve" smooth="yes"/>
      <point x="398" y="361"/>
      <point x="386" y="375"/>
      <point x="355" y="383" type="curve"/>
      <point x="361" y="421" type="line"/>
      <point x="393" y="417"/>
      <point x="424" y="416"/>
      <point x="452" y="416" type="curve" smooth="yes"/>
      <point x="484" y="416"/>
      <point x="513" y="418"/>
      <point x="535" y="421" type="curve"/>
      <point x="541" y="383" type="line"/>
      <point x="494" y="369"/>
      <point x="479" y="341"/>
      <point x="451" y="294" type="curve" smooth="yes"/>
      <point x="414" y="230"/>
      <point x="377" y="160"/>
      <point x="347" y="99" type="curve" smooth="yes"/>
      <point x="323" y="49"/>
      <point x="316" y="26"/>
    </contour>
  </outline>
</glyph>
<glyph name="x" format="1">
  <advance width="533"/>
  <unicode hex="0078"/>
  <outline>
    <contour>
      <point x="509" y="-3" type="line"/>
      <point x="480" y="0"/>
      <point x="447" y="2"/>
      <point x="413" y="2" type="curve" smooth="yes"/>
      <point x="379" y="2"/>
      <point x="343" y="0"/>
      <point x="309" y="-3" type="curve"/>
      <point x="312" y="24"/>
      <point x="305" y="44"/>
      <point x="294" y="68" type="curve" smooth="yes"/>
      <point x="287" y="82"/>
      <point x="260" y="138"/>
      <point x="243" y="160" type="curve"/>
      <point x="200" y="105" type="line" smooth="yes"/>
      <point x="184" y="85"/>
      <point x="177" y="71"/>
      <point x="177" y="61" type="curve" smooth="yes"/>
      <point x="177" y="49"/>
      <point x="188" y="41"/>
      <point x="208" y="34" type="curve"/>
      <point x="203" y="-4" type="line"/>
      <point x="172" y="-1"/>
      <point x="141" y="1"/>
      <point x="109" y="1" type="curve" smooth="yes"/>
      <point x="82" y="1"/>
      <point x="56" y="0"/>
      <point x="29" y="-3" type="curve"/>
      <point x="25" y="32" type="line"/>
      <point x="63" y="40"/>
      <point x="88" y="59"/>
      <point x="122" y="91" type="curve"/>
      <point x="153" y="122"/>
      <point x="182" y="155"/>
      <point x="219" y="199" type="curve"/>
      <point x="190" y="247"/>
      <point x="155" y="296"/>
      <point x="125" y="333" type="curve"/>
      <point x="107" y="357"/>
      <point x="94" y="376"/>
      <point x="38" y="383" type="curve"/>
      <point x="41" y="421" type="line"/>
      <point x="69" y="418"/>
      <point x="105" y="417"/>
      <point x="138" y="417" type="curve" smooth="yes"/>
      <point x="174" y="417"/>
      <point x="208" y="418"/>
      <point x="225" y="421" type="curve"/>
      <point x="227" y="400"/>
      <point x="232" y="385"/>
      <point x="243" y="362" type="curve" smooth="yes"/>
      <point x="255" y="338"/>
      <point x="266" y="314"/>
      <point x="295" y="271" type="curve"/>
      <point x="309" y="285"/>
      <point x="325" y="307"/>
      <point x="335" y="322" type="curve" smooth="yes"/>
      <point x="347" y="340"/>
      <point x="354" y="353"/>
      <point x="354" y="363" type="curve" smooth="yes"/>
      <point x="354" y="373"/>
      <point x="347" y="379"/>
      <point x="331" y="383" type="curve"/>
      <point x="335" y="421" type="line"/>
      <point x="367" y="417"/>
      <point x="394" y="416"/>
      <point x="418" y="416" type="curve" smooth="yes"/>
      <point x="442" y="416"/>
      <point x="464" y="417"/>
      <point x="488" y="421" type="curve"/>
      <point x="493" y="383" type="line"/>
      <point x="444" y="365"/>
      <point x="427" y="355"/>
      <point x="392" y="317" type="curve" smooth="yes"/>
      <point x="369" y="291"/>
      <point x="344" y="264"/>
      <point x="320" y="238" type="curve"/>
      <point x="343" y="201"/>
      <point x="375" y="152"/>
      <point x="395" y="126" type="curve" smooth="yes"/>
      <point x="445" y="60"/>
      <point x="447" y="52"/>
      <point x="512" y="35" type="curve"/>
    </contour>
  </outline>
</glyph>
<glyph name="braceleft" format="1">
  <advance width="326"/>
  <unicode hex="007B"/>
  <outline>
    <contour>
      <point x="280" y="-150" type="curve"/>
      <point x="262" y="-190" type="line"/>
      <point x="221" y="-180"/>
      <point x="177" y="-170"/>
      <point x="142" y="-155" type="curve" smooth="yes"/>
      <point x="95" y="-136"/>
      <point x="76" y="-91"/>
      <point x="79" y="-40" type="curve" smooth="yes"/>
      <point x="81" y="10"/>
      <point x="99" y="76"/>
      <point x="102" y="127" type="curve" smooth="yes"/>
      <point x="105" y="169"/>
      <point x="95" y="189"/>
      <point x="77" y="201" type="curve"/>
      <point x="64" y="211"/>
      <point x="46" y="222"/>
      <point x="22" y="230" type="curve"/>
      <point x="22" y="263" type="line"/>
      <point x="45" y="270"/>
      <point x="65" y="281"/>
      <point x="77" y="290" type="curve" smooth="yes"/>
      <point x="96" y="305"/>
      <point x="102" y="328"/>
      <point x="102" y="353" type="curve" smooth="yes"/>
      <point x="102" y="365"/>
      <point x="101" y="377"/>
      <point x="99" y="389" type="curve" smooth="yes"/>
      <point x="95" y="425"/>
      <point x="80" y="483"/>
      <point x="78" y="506" type="curve" smooth="yes"/>
      <point x="73" y="560"/>
      <point x="101" y="605"/>
      <point x="151" y="630" type="curve" smooth="yes"/>
      <point x="180" y="645"/>
      <point x="217" y="657"/>
      <point x="263" y="675" type="curve"/>
      <point x="280" y="631" type="line"/>
      <point x="198" y="595"/>
      <point x="183" y="571"/>
      <point x="183" y="532" type="curve" smooth="yes"/>
      <point x="184" y="473"/>
      <point x="213" y="374"/>
      <point x="212" y="316" type="curve"/>
      <point x="175" y="290"/>
      <point x="150" y="273"/>
      <point x="98" y="249" type="curve"/>
      <point x="146" y="225"/>
      <point x="172" y="210"/>
      <point x="211" y="183" type="curve"/>
      <point x="215" y="132"/>
      <point x="192" y="19"/>
      <point x="191" y="-34" type="curve" smooth="yes"/>
      <point x="190" y="-95"/>
      <point x="202" y="-115"/>
    </contour>
  </outline>
</glyph>
<glyph name="bar" format="1">
  <advance width="233"/>
  <unicode hex="007C"/>
  <outline>
    <contour>
      <point x="93" y="676" type="curve"/>
      <point x="142" y="676" type="line"/>
      <point x="140" y="512"/>
      <point x="138" y="290"/>
      <point x="138" y="98" type="curve" smooth="yes"/>
      <point x="138" y="40"/>
      <point x="139" y="-15"/>
      <point x="139" y="-65" type="curve"/>
      <point x="91" y="-65" type="line"/>
      <point x="93" y="74"/>
      <point x="94" y="253"/>
      <point x="94" y="420" type="curve" smooth="yes"/>
      <point x="94" y="512"/>
      <point x="94" y="600"/>
    </contour>
  </outline>
</glyph>
<glyph name="braceright" format="1">
  <advance width="326"/>
  <unicode hex="007D"/>
  <outline>
    <contour>
      <point x="63" y="-190" type="curve"/>
      <point x="46" y="-150" type="line"/>
      <point x="125" y="-117"/>
      <point x="137" y="-90"/>
      <point x="135" y="-29" type="curve" smooth="yes"/>
      <point x="134" y="24"/>
      <point x="111" y="132"/>
      <point x="115" y="183" type="curve"/>
      <point x="154" y="210"/>
      <point x="180" y="225"/>
      <point x="228" y="249" type="curve"/>
      <point x="176" y="273"/>
      <point x="151" y="290"/>
      <point x="114" y="316" type="curve"/>
      <point x="113" y="374"/>
      <point x="140" y="477"/>
      <point x="141" y="537" type="curve" smooth="yes"/>
      <point x="141" y="575"/>
      <point x="121" y="606"/>
      <point x="46" y="631" type="curve"/>
      <point x="62" y="675" type="line"/>
      <point x="112" y="661"/>
      <point x="145" y="652"/>
      <point x="173" y="639" type="curve" smooth="yes"/>
      <point x="235" y="610"/>
      <point x="255" y="571"/>
      <point x="248" y="515" type="curve" smooth="yes"/>
      <point x="245" y="492"/>
      <point x="231" y="425"/>
      <point x="227" y="389" type="curve" smooth="yes"/>
      <point x="225" y="377"/>
      <point x="224" y="366"/>
      <point x="224" y="354" type="curve" smooth="yes"/>
      <point x="224" y="330"/>
      <point x="230" y="307"/>
      <point x="249" y="292" type="curve" smooth="yes"/>
      <point x="260" y="284"/>
      <point x="281" y="272"/>
      <point x="304" y="265" type="curve"/>
      <point x="304" y="233" type="line"/>
      <point x="280" y="225"/>
      <point x="262" y="214"/>
      <point x="249" y="204" type="curve" smooth="yes"/>
      <point x="231" y="191"/>
      <point x="220" y="169"/>
      <point x="224" y="127" type="curve"/>
      <point x="227" y="76"/>
      <point x="242" y="31"/>
      <point x="247" y="-18" type="curve" smooth="yes"/>
      <point x="252" y="-71"/>
      <point x="235" y="-116"/>
      <point x="184" y="-142" type="curve" smooth="yes"/>
      <point x="150" y="-159"/>
      <point x="106" y="-178"/>
    </contour>
  </outline>
</glyph>
<glyph name="asciitilde" format="1">
  <advance width="424"/>
  <unicode hex="007E"/>
  <outline>
    <contour>
      <point x="182" y="344" type="curve" smooth="yes"/>
      <point x="208" y="338"/>
      <point x="252" y="321"/>
      <point x="275" y="317" type="curve" smooth="yes"/>
      <point x="314" y="310"/>
      <point x="339" y="324"/>
      <point x="373" y="356" type="curve"/>
      <point x="401" y="332" type="line"/>
      <point x="370" y="297"/>
      <point x="332" y="265"/>
      <point x="309" y="249" type="curve" smooth="yes"/>
      <point x="293" y="238"/>
      <point x="280" y="233"/>
      <point x="263" y="233" type="curve" smooth="yes"/>
      <point x="254" y="233"/>
      <point x="244" y="234"/>
      <point x="232" y="237" type="curve" smooth="yes"/>
      <point x="211" y="243"/>
      <point x="162" y="259"/>
      <point x="134" y="264" type="curve" smooth="yes"/>
      <point x="108" y="269"/>
      <point x="96" y="265"/>
      <point x="55" y="232" type="curve"/>
      <point x="23" y="255" type="line"/>
      <point x="59" y="296"/>
      <point x="85" y="318"/>
      <point x="103" y="330" type="curve" smooth="yes"/>
      <point x="122" y="343"/>
      <point x="135" y="348"/>
      <point x="152" y="348" type="curve" smooth="yes"/>
      <point x="161" y="348"/>
      <point x="171" y="346"/>
    </contour>
  </outline>
</glyph>
<glyph name="exclamdown" format="1">
  <advance width="216"/>
  <unicode hex="00A1"/>
  <outline>
    <contour>
      <point x="181" y="-213" type="curve"/>
      <point x="161" y="-210"/>
      <point x="138" y="-209"/>
      <point x="114" y="-209" type="curve" smooth="yes"/>
      <point x="84" y="-209"/>
      <point x="54" y="-211"/>
      <point x="33" y="-214" type="curve"/>
      <point x="66" y="-44"/>
      <point x="74" y="9"/>
      <point x="90" y="220" type="curve"/>
      <point x="130" y="220" type="line"/>
      <point x="137" y="72"/>
      <point x="158" y="-78"/>
    </contour>
    <contour>
      <point x="113" y="441" type="curve"/>
      <point x="167" y="442"/>
      <point x="183" y="402"/>
      <point x="183" y="372" type="curve" smooth="yes"/>
      <point x="183" y="334"/>
      <point x="159" y="300"/>
      <point x="107" y="297" type="curve" smooth="yes"/>
      <point x="56" y="294"/>
      <point x="37" y="331"/>
      <point x="37" y="363" type="curve" smooth="yes"/>
      <point x="37" y="402"/>
      <point x="55" y="438"/>
    </contour>
  </outline>
</glyph>
<glyph name="cent" format="1">
  <advance width="446"/>
  <unicode hex="00A2"/>
  <outline>
    <contour>
      <point x="39" y="180" type="curve" smooth="yes"/>
      <point x="38" y="246"/>
      <point x="62" y="307"/>
      <point x="94" y="335" type="curve" smooth="yes"/>
      <point x="128" y="365"/>
      <point x="173" y="391"/>
      <point x="217" y="410" type="curve" smooth="yes"/>
      <point x="240" y="419"/>
      <point x="260" y="425"/>
      <point x="283" y="426" type="curve"/>
      <point x="304" y="515" type="line"/>
      <point x="351" y="508" type="line"/>
      <point x="330" y="423" type="line"/>
      <point x="358" y="420"/>
      <point x="386" y="415"/>
      <point x="413" y="414" type="curve"/>
      <point x="390" y="380"/>
      <point x="371" y="335"/>
      <point x="359" y="299" type="curve"/>
      <point x="344" y="308"/>
      <point x="323" y="317"/>
      <point x="305" y="325" type="curve"/>
      <point x="283" y="239"/>
      <point x="262" y="153"/>
      <point x="241" y="67" type="curve"/>
      <point x="253" y="62"/>
      <point x="267" y="59"/>
      <point x="284" y="59" type="curve" smooth="yes"/>
      <point x="322" y="60"/>
      <point x="360" y="68"/>
      <point x="399" y="80" type="curve"/>
      <point x="415" y="43" type="line"/>
      <point x="357" y="18"/>
      <point x="325" y="6"/>
      <point x="277" y="-9" type="curve" smooth="yes"/>
      <point x="260" y="-14"/>
      <point x="241" y="-18"/>
      <point x="220" y="-18" type="curve"/>
      <point x="200" y="-106" type="line"/>
      <point x="154" y="-99" type="line"/>
      <point x="175" y="-12" type="line"/>
      <point x="168" y="-11"/>
      <point x="161" y="-8"/>
      <point x="154" y="-6" type="curve" smooth="yes"/>
      <point x="78" y="21"/>
      <point x="40" y="100"/>
    </contour>
    <contour>
      <point x="202" y="95" type="curve"/>
      <point x="262" y="341" type="line"/>
      <point x="248" y="346"/>
      <point x="231" y="350"/>
      <point x="216" y="350" type="curve" smooth="yes"/>
      <point x="205" y="350"/>
      <point x="194" y="348"/>
      <point x="186" y="341" type="curve" smooth="yes"/>
      <point x="169" y="327"/>
      <point x="159" y="274"/>
      <point x="159" y="215" type="curve" smooth="yes"/>
      <point x="159" y="189"/>
      <point x="169" y="132"/>
    </contour>
  </outline>
</glyph>
<glyph name="sterling" format="1">
  <advance width="514"/>
  <unicode hex="00A3"/>
  <outline>
    <contour>
      <point x="113" y="455" type="curve" smooth="yes"/>
      <point x="112" y="480"/>
      <point x="118" y="505"/>
      <point x="137" y="530" type="curve" smooth="yes"/>
      <point x="156" y="554"/>
      <point x="200" y="589"/>
      <point x="232" y="608" type="curve" smooth="yes"/>
      <point x="277" y="634"/>
      <point x="293" y="640"/>
      <point x="340" y="636" type="curve" smooth="yes"/>
      <point x="371" y="634"/>
      <point x="402" y="632"/>
      <point x="432" y="634" type="curve"/>
      <point x="409" y="599"/>
      <point x="392" y="543"/>
      <point x="384" y="513" type="curve"/>
      <point x="353" y="525"/>
      <point x="306" y="542"/>
      <point x="277" y="546" type="curve" smooth="yes"/>
      <point x="226" y="553"/>
      <point x="220" y="533"/>
      <point x="220" y="491" type="curve" smooth="yes"/>
      <point x="220" y="443"/>
      <point x="226" y="398"/>
      <point x="231" y="352" type="curve"/>
      <point x="280" y="352"/>
      <point x="321" y="354"/>
      <point x="386" y="360" type="curve"/>
      <point x="377" y="345"/>
      <point x="368" y="310"/>
      <point x="365" y="296" type="curve"/>
      <point x="322" y="301"/>
      <point x="283" y="303"/>
      <point x="235" y="303" type="curve"/>
      <point x="236" y="283"/>
      <point x="237" y="262"/>
      <point x="237" y="240" type="curve" smooth="yes"/>
      <point x="235" y="173"/>
      <point x="210" y="154"/>
      <point x="167" y="103" type="curve"/>
      <point x="204" y="115"/>
      <point x="226" y="120"/>
      <point x="242" y="127" type="curve"/>
      <point x="258" y="128"/>
      <point x="277" y="126"/>
      <point x="305" y="121" type="curve" smooth="yes"/>
      <point x="328" y="117"/>
      <point x="350" y="115"/>
      <point x="372" y="115" type="curve" smooth="yes"/>
      <point x="408" y="115"/>
      <point x="442" y="120"/>
      <point x="473" y="129" type="curve"/>
      <point x="453" y="80"/>
      <point x="446" y="41"/>
      <point x="444" y="3" type="curve"/>
      <point x="425" y="0"/>
      <point x="406" y="-1"/>
      <point x="387" y="-1" type="curve" smooth="yes"/>
      <point x="332" y="-1"/>
      <point x="278" y="9"/>
      <point x="240" y="17" type="curve" smooth="yes"/>
      <point x="215" y="22"/>
      <point x="194" y="26"/>
      <point x="172" y="26" type="curve" smooth="yes"/>
      <point x="141" y="26"/>
      <point x="109" y="18"/>
      <point x="63" y="-5" type="curve"/>
      <point x="40" y="27" type="line"/>
      <point x="111" y="78"/>
      <point x="130" y="119"/>
      <point x="132" y="169" type="curve" smooth="yes"/>
      <point x="134" y="210"/>
      <point x="130" y="255"/>
      <point x="125" y="303" type="curve"/>
      <point x="106" y="304"/>
      <point x="78" y="301"/>
      <point x="49" y="300" type="curve"/>
      <point x="46" y="329" type="line"/>
      <point x="69" y="334"/>
      <point x="104" y="346"/>
      <point x="119" y="353" type="curve"/>
      <point x="116" y="385"/>
      <point x="114" y="420"/>
    </contour>
  </outline>
</glyph>
<glyph name="currency" format="1">
  <advance width="448"/>
  <unicode hex="00A4"/>
  <outline>
    <contour>
      <point x="76" y="330" type="curve"/>
      <point x="78" y="362"/>
      <point x="90" y="391"/>
      <point x="107" y="415" type="curve"/>
      <point x="28" y="485" type="line"/>
      <point x="69" y="526" type="line"/>
      <point x="140" y="446" type="line"/>
      <point x="165" y="463"/>
      <point x="195" y="474"/>
      <point x="227" y="474" type="curve" smooth="yes"/>
      <point x="258" y="474"/>
      <point x="289" y="464"/>
      <point x="314" y="448" type="curve"/>
      <point x="384" y="524" type="line"/>
      <point x="425" y="485" type="line"/>
      <point x="344" y="419" type="line"/>
      <point x="361" y="396"/>
      <point x="374" y="365"/>
      <point x="374" y="330" type="curve"/>
      <point x="373" y="298"/>
      <point x="360" y="269"/>
      <point x="342" y="247" type="curve"/>
      <point x="424" y="180" type="line"/>
      <point x="384" y="137" type="line"/>
      <point x="310" y="217" type="line"/>
      <point x="284" y="200"/>
      <point x="252" y="187"/>
      <point x="219" y="187" type="curve" smooth="yes"/>
      <point x="189" y="187"/>
      <point x="158" y="197"/>
      <point x="135" y="212" type="curve"/>
      <point x="65" y="137" type="line"/>
      <point x="23" y="176" type="line"/>
      <point x="104" y="242" type="line"/>
      <point x="86" y="266"/>
      <point x="75" y="295"/>
    </contour>
    <contour>
      <point x="131" y="329" type="curve" smooth="yes"/>
      <point x="130" y="278"/>
      <point x="170" y="231"/>
      <point x="222" y="231" type="curve" smooth="yes"/>
      <point x="279" y="231"/>
      <point x="319" y="278"/>
      <point x="321" y="329" type="curve"/>
      <point x="322" y="381"/>
      <point x="277" y="427"/>
      <point x="226" y="427" type="curve" smooth="yes"/>
      <point x="170" y="427"/>
      <point x="132" y="381"/>
    </contour>
  </outline>
</glyph>
<glyph name="yen" format="1">
  <advance width="640"/>
  <unicode hex="00A5"/>
  <outline>
    <contour>
      <point x="132" y="244" type="line"/>
      <point x="132" y="279" type="line"/>
      <point x="244" y="279" type="line"/>
      <point x="208" y="372"/>
      <point x="170" y="451"/>
      <point x="129" y="529" type="curve" smooth="yes"/>
      <point x="99" y="585"/>
      <point x="90" y="594"/>
      <point x="32" y="600" type="curve"/>
      <point x="36" y="639" type="line"/>
      <point x="64" y="636"/>
      <point x="100" y="635"/>
      <point x="137" y="635" type="curve" smooth="yes"/>
      <point x="171" y="635"/>
      <point x="206" y="636"/>
      <point x="236" y="639" type="curve"/>
      <point x="235" y="626"/>
      <point x="236" y="602"/>
      <point x="250" y="566" type="curve" smooth="yes"/>
      <point x="287" y="474"/>
      <point x="319" y="415"/>
      <point x="355" y="331" type="curve"/>
      <point x="387" y="396"/>
      <point x="414" y="443"/>
      <point x="447" y="523" type="curve" smooth="yes"/>
      <point x="453" y="537"/>
      <point x="458" y="551"/>
      <point x="458" y="564" type="curve" smooth="yes"/>
      <point x="458" y="582"/>
      <point x="448" y="597"/>
      <point x="415" y="603" type="curve"/>
      <point x="420" y="639" type="line"/>
      <point x="450" y="636"/>
      <point x="483" y="634"/>
      <point x="517" y="634" type="curve" smooth="yes"/>
      <point x="546" y="634"/>
      <point x="576" y="635"/>
      <point x="604" y="639" type="curve"/>
      <point x="608" y="600" type="line"/>
      <point x="560" y="590"/>
      <point x="546" y="576"/>
      <point x="521" y="535" type="curve"/>
      <point x="494" y="488"/>
      <point x="427" y="367"/>
      <point x="385" y="279" type="curve"/>
      <point x="502" y="279" type="line"/>
      <point x="502" y="244" type="line"/>
      <point x="375" y="244" type="line"/>
      <point x="374" y="184" type="line"/>
      <point x="502" y="184" type="line"/>
      <point x="502" y="148" type="line"/>
      <point x="373" y="148" type="line"/>
      <point x="373" y="132"/>
      <point x="373" y="116"/>
      <point x="374" y="102" type="curve" smooth="yes"/>
      <point x="375" y="47"/>
      <point x="380" y="47"/>
      <point x="444" y="36" type="curve"/>
      <point x="437" y="-3" type="line"/>
      <point x="383" y="0"/>
      <point x="336" y="2"/>
      <point x="291" y="2" type="curve" smooth="yes"/>
      <point x="257" y="2"/>
      <point x="223" y="1"/>
      <point x="188" y="-3" type="curve"/>
      <point x="184" y="36" type="line"/>
      <point x="252" y="45"/>
      <point x="250" y="58"/>
      <point x="252" y="110" type="curve" smooth="yes"/>
      <point x="252" y="121"/>
      <point x="253" y="134"/>
      <point x="253" y="148" type="curve"/>
      <point x="132" y="148" type="line"/>
      <point x="132" y="184" type="line"/>
      <point x="254" y="184" type="line"/>
      <point x="253" y="244" type="line"/>
    </contour>
  </outline>
</glyph>
<glyph name="brokenbar" format="1">
  <advance width="233"/>
  <unicode hex="00A6"/>
  <outline>
    <contour>
      <point x="94" y="291" type="line"/>
      <point x="139" y="291" type="line"/>
      <point x="138" y="225"/>
      <point x="138" y="163"/>
      <point x="138" y="104" type="curve" smooth="yes"/>
      <point x="138" y="45"/>
      <point x="138" y="-12"/>
      <point x="139" y="-65" type="curve"/>
      <point x="91" y="-65" type="line"/>
    </contour>
    <contour>
      <point x="139" y="354" type="line"/>
      <point x="94" y="354" type="line"/>
      <point x="94" y="470"/>
      <point x="94" y="581"/>
      <point x="93" y="676" type="curve"/>
      <point x="142" y="676" type="line"/>
    </contour>
  </outline>
</glyph>
<glyph name="section" format="1">
  <advance width="370"/>
  <unicode hex="00A7"/>
  <outline>
    <contour>
      <point x="51" y="346" type="curve" smooth="yes"/>
      <point x="57" y="366"/>
      <point x="78" y="399"/>
      <point x="103" y="428" type="curve"/>
      <point x="86" y="446"/>
      <point x="79" y="469"/>
      <point x="79" y="490" type="curve" smooth="yes"/>
      <point x="79" y="501"/>
      <point x="81" y="511"/>
      <point x="84" y="521" type="curve" smooth="yes"/>
      <point x="93" y="550"/>
      <point x="121" y="590"/>
      <point x="147" y="611" type="curve" smooth="yes"/>
      <point x="174" y="633"/>
      <point x="190" y="637"/>
      <point x="233" y="640" type="curve" smooth="yes"/>
      <point x="270" y="642"/>
      <point x="304" y="638"/>
      <point x="344" y="634" type="curve"/>
      <point x="326" y="604"/>
      <point x="317" y="564"/>
      <point x="310" y="531" type="curve"/>
      <point x="278" y="543"/>
      <point x="238" y="554"/>
      <point x="208" y="558" type="curve" smooth="yes"/>
      <point x="181" y="562"/>
      <point x="162" y="562"/>
      <point x="158" y="553" type="curve" smooth="yes"/>
      <point x="155" y="546"/>
      <point x="156" y="536"/>
      <point x="180" y="514" type="curve" smooth="yes"/>
      <point x="208" y="489"/>
      <point x="298" y="437"/>
      <point x="327" y="412" type="curve" smooth="yes"/>
      <point x="347" y="395"/>
      <point x="361" y="370"/>
      <point x="361" y="343" type="curve" smooth="yes"/>
      <point x="361" y="330"/>
      <point x="358" y="316"/>
      <point x="350" y="303" type="curve" smooth="yes"/>
      <point x="342" y="289"/>
      <point x="310" y="250"/>
      <point x="292" y="231" type="curve"/>
      <point x="319" y="209"/>
      <point x="347" y="180"/>
      <point x="347" y="144" type="curve" smooth="yes"/>
      <point x="347" y="133"/>
      <point x="344" y="121"/>
      <point x="338" y="108" type="curve" smooth="yes"/>
      <point x="320" y="70"/>
      <point x="291" y="39"/>
      <point x="250" y="13" type="curve" smooth="yes"/>
      <point x="220" y="-6"/>
      <point x="179" y="-6"/>
      <point x="159" y="-5" type="curve" smooth="yes"/>
      <point x="113" y="-2"/>
      <point x="84" y="3"/>
      <point x="49" y="12" type="curve"/>
      <point x="61" y="35"/>
      <point x="78" y="87"/>
      <point x="80" y="119" type="curve"/>
      <point x="118" y="99"/>
      <point x="155" y="90"/>
      <point x="194" y="85" type="curve" smooth="yes"/>
      <point x="217" y="82"/>
      <point x="246" y="83"/>
      <point x="252" y="90" type="curve" smooth="yes"/>
      <point x="260" y="100"/>
      <point x="253" y="119"/>
      <point x="235" y="135" type="curve" smooth="yes"/>
      <point x="210" y="157"/>
      <point x="112" y="211"/>
      <point x="79" y="236" type="curve" smooth="yes"/>
      <point x="56" y="254"/>
      <point x="44" y="276"/>
      <point x="44" y="304" type="curve" smooth="yes"/>
      <point x="44" y="317"/>
      <point x="46" y="331"/>
    </contour>
    <contour>
      <point x="146" y="324" type="curve" smooth="yes"/>
      <point x="164" y="312"/>
      <point x="215" y="280"/>
      <point x="255" y="255" type="curve"/>
      <point x="266" y="267"/>
      <point x="270" y="280"/>
      <point x="270" y="290" type="curve" smooth="yes"/>
      <point x="270" y="301"/>
      <point x="265" y="311"/>
      <point x="258" y="317" type="curve" smooth="yes"/>
      <point x="234" y="336"/>
      <point x="176" y="371"/>
      <point x="137" y="400" type="curve"/>
      <point x="129" y="389"/>
      <point x="124" y="375"/>
      <point x="124" y="362" type="curve" smooth="yes"/>
      <point x="124" y="348"/>
      <point x="130" y="334"/>
    </contour>
  </outline>
</glyph>
<glyph name="dieresis" format="1">
  <advance width="364"/>
  <unicode hex="00A8"/>
  <outline>
    <contour>
      <point x="99" y="494" type="curve" smooth="yes"/>
      <point x="60" y="494"/>
      <point x="48" y="521"/>
      <point x="48" y="542" type="curve" smooth="yes"/>
      <point x="48" y="570"/>
      <point x="70" y="595"/>
      <point x="102" y="595" type="curve" smooth="yes"/>
      <point x="138" y="595"/>
      <point x="152" y="571"/>
      <point x="152" y="548" type="curve" smooth="yes"/>
      <point x="152" y="521"/>
      <point x="134" y="494"/>
    </contour>
    <contour>
      <point x="263" y="494" type="curve" smooth="yes"/>
      <point x="224" y="494"/>
      <point x="212" y="521"/>
      <point x="212" y="542" type="curve" smooth="yes"/>
      <point x="212" y="570"/>
      <point x="233" y="595"/>
      <point x="265" y="595" type="curve" smooth="yes"/>
      <point x="301" y="595"/>
      <point x="316" y="571"/>
      <point x="316" y="548" type="curve" smooth="yes"/>
      <point x="316" y="521"/>
      <point x="298" y="494"/>
    </contour>
  </outline>
</glyph>
<glyph name="copyright" format="1">
  <advance width="843"/>
  <unicode hex="00A9"/>
  <outline>
    <contour>
      <point x="41" y="365" type="curve" smooth="yes"/>
      <point x="41" y="575"/>
      <point x="211" y="746"/>
      <point x="421" y="746" type="curve" smooth="yes"/>
      <point x="631" y="746"/>
      <point x="802" y="575"/>
      <point x="802" y="365" type="curve" smooth="yes"/>
      <point x="802" y="155"/>
      <point x="631" y="-15"/>
      <point x="421" y="-15" type="curve" smooth="yes"/>
      <point x="211" y="-15"/>
      <point x="41" y="155"/>
    </contour>
    <contour>
      <point x="90" y="364" type="curve" smooth="yes"/>
      <point x="90" y="181"/>
      <point x="238" y="31"/>
      <point x="421" y="31" type="curve" smooth="yes"/>
      <point x="605" y="31"/>
      <point x="753" y="181"/>
      <point x="753" y="364" type="curve" smooth="yes"/>
      <point x="753" y="548"/>
      <point x="605" y="698"/>
      <point x="421" y="698" type="curve" smooth="yes"/>
      <point x="238" y="698"/>
      <point x="90" y="548"/>
    </contour>
    <contour>
      <point x="425" y="113" type="curve" smooth="yes"/>
      <point x="281" y="113"/>
      <point x="183" y="200"/>
      <point x="183" y="355" type="curve" smooth="yes"/>
      <point x="183" y="506"/>
      <point x="309" y="622"/>
      <point x="445" y="622" type="curve" smooth="yes"/>
      <point x="482" y="622"/>
      <point x="522" y="618"/>
      <point x="566" y="602" type="curve"/>
      <point x="575" y="574"/>
      <point x="589" y="530"/>
      <point x="603" y="503" type="curve"/>
      <point x="576" y="488" type="line"/>
      <point x="534" y="545"/>
      <point x="500" y="577"/>
      <point x="442" y="577" type="curve" smooth="yes"/>
      <point x="364" y="577"/>
      <point x="286" y="507"/>
      <point x="286" y="367" type="curve" smooth="yes"/>
      <point x="286" y="195"/>
      <point x="383" y="161"/>
      <point x="439" y="161" type="curve" smooth="yes"/>
      <point x="501" y="161"/>
      <point x="552" y="175"/>
      <point x="583" y="229" type="curve"/>
      <point x="610" y="218" type="line"/>
      <point x="599" y="198"/>
      <point x="587" y="163"/>
      <point x="582" y="147" type="curve"/>
      <point x="551" y="130"/>
      <point x="503" y="113"/>
    </contour>
  </outline>
</glyph>
<glyph name="ordfeminine" format="1">
  <advance width="355"/>
  <unicode hex="00AA"/>
  <outline>
    <contour>
      <point x="22" y="381" type="curve" smooth="yes"/>
      <point x="16" y="436"/>
      <point x="41" y="459"/>
      <point x="92" y="481" type="curve" smooth="yes"/>
      <point x="125" y="495"/>
      <point x="162" y="500"/>
      <point x="200" y="507" type="curve"/>
      <point x="200" y="527" type="line"/>
      <point x="201" y="547"/>
      <point x="186" y="555"/>
      <point x="152" y="557" type="curve" smooth="yes"/>
      <point x="121" y="559"/>
      <point x="83" y="555"/>
      <point x="51" y="550" type="curve"/>
      <point x="63" y="573"/>
      <point x="69" y="614"/>
      <point x="71" y="638" type="curve"/>
      <point x="89" y="639"/>
      <point x="107" y="639"/>
      <point x="124" y="639" type="curve" smooth="yes"/>
      <point x="158" y="639"/>
      <point x="190" y="638"/>
      <point x="213" y="635" type="curve" smooth="yes"/>
      <point x="266" y="630"/>
      <point x="288" y="592"/>
      <point x="288" y="565" type="curve" smooth="yes"/>
      <point x="289" y="533"/>
      <point x="287" y="489"/>
      <point x="287" y="449" type="curve" smooth="yes"/>
      <point x="287" y="435"/>
      <point x="287" y="422"/>
      <point x="288" y="410" type="curve" smooth="yes"/>
      <point x="290" y="370"/>
      <point x="292" y="372"/>
      <point x="340" y="375" type="curve"/>
      <point x="346" y="343" type="line"/>
      <point x="326" y="337"/>
      <point x="282" y="323"/>
      <point x="259" y="317" type="curve" smooth="yes"/>
      <point x="234" y="310"/>
      <point x="206" y="312"/>
      <point x="201" y="344" type="curve"/>
      <point x="181" y="334"/>
      <point x="162" y="325"/>
      <point x="139" y="318" type="curve" smooth="yes"/>
      <point x="130" y="315"/>
      <point x="119" y="313"/>
      <point x="108" y="313" type="curve" smooth="yes"/>
      <point x="96" y="313"/>
      <point x="85" y="315"/>
      <point x="74" y="319" type="curve" smooth="yes"/>
      <point x="47" y="328"/>
      <point x="25" y="350"/>
    </contour>
    <contour>
      <point x="115" y="416" type="curve" smooth="yes"/>
      <point x="117" y="386"/>
      <point x="130" y="375"/>
      <point x="153" y="375" type="curve" smooth="yes"/>
      <point x="167" y="375"/>
      <point x="182" y="376"/>
      <point x="199" y="379" type="curve"/>
      <point x="198" y="392"/>
      <point x="198" y="403"/>
      <point x="198" y="414" type="curve" smooth="yes"/>
      <point x="198" y="432"/>
      <point x="199" y="448"/>
      <point x="200" y="469" type="curve"/>
      <point x="182" y="466"/>
      <point x="164" y="461"/>
      <point x="148" y="456" type="curve"/>
      <point x="127" y="448"/>
      <point x="114" y="434"/>
    </contour>
  </outline>
</glyph>
<glyph name="guillemotleft" format="1">
  <advance width="460"/>
  <unicode hex="00AB"/>
  <outline>
    <contour>
      <point x="215" y="70" type="curve"/>
      <point x="184" y="46" type="line"/>
      <point x="129" y="106"/>
      <point x="77" y="154"/>
      <point x="20" y="199" type="curve"/>
      <point x="20" y="224" type="line"/>
      <point x="84" y="273"/>
      <point x="128" y="318"/>
      <point x="185" y="384" type="curve"/>
      <point x="215" y="360" type="line"/>
      <point x="179" y="302"/>
      <point x="157" y="261"/>
      <point x="134" y="214" type="curve"/>
      <point x="153" y="172"/>
      <point x="177" y="127"/>
    </contour>
    <contour>
      <point x="415" y="70" type="curve"/>
      <point x="384" y="46" type="line"/>
      <point x="329" y="106"/>
      <point x="277" y="154"/>
      <point x="220" y="199" type="curve"/>
      <point x="220" y="224" type="line"/>
      <point x="284" y="273"/>
      <point x="328" y="318"/>
      <point x="385" y="384" type="curve"/>
      <point x="415" y="360" type="line"/>
      <point x="379" y="302"/>
      <point x="357" y="261"/>
      <point x="334" y="214" type="curve"/>
      <point x="353" y="172"/>
      <point x="377" y="127"/>
    </contour>
  </outline>
</glyph>
<glyph name="logicalnot" format="1">
  <advance width="442"/>
  <unicode hex="00AC"/>
  <outline>
    <contour>
      <point x="14" y="270" type="line"/>
      <point x="14" y="305" type="line"/>
      <point x="415" y="305" type="line"/>
      <point x="415" y="125" type="line"/>
      <point x="380" y="125" type="line"/>
      <point x="380" y="270" type="line"/>
    </contour>
  </outline>
</glyph>
<glyph name="registered" format="1">
  <advance width="843"/>
  <unicode hex="00AE"/>
  <outline>
    <contour>
      <point x="41" y="365" type="curve" smooth="yes"/>
      <point x="41" y="575"/>
      <point x="211" y="746"/>
      <point x="421" y="746" type="curve" smooth="yes"/>
      <point x="631" y="746"/>
      <point x="802" y="575"/>
      <point x="802" y="365" type="curve" smooth="yes"/>
      <point x="802" y="155"/>
      <point x="631" y="-15"/>
      <point x="421" y="-15" type="curve" smooth="yes"/>
      <point x="211" y="-15"/>
      <point x="41" y="155"/>
    </contour>
    <contour>
      <point x="90" y="364" type="curve" smooth="yes"/>
      <point x="90" y="181"/>
      <point x="238" y="31"/>
      <point x="421" y="31" type="curve" smooth="yes"/>
      <point x="605" y="31"/>
      <point x="753" y="181"/>
      <point x="753" y="364" type="curve" smooth="yes"/>
      <point x="753" y="548"/>
      <point x="605" y="698"/>
      <point x="421" y="698" type="curve" smooth="yes"/>
      <point x="238" y="698"/>
      <point x="90" y="548"/>
    </contour>
    <contour>
      <point x="457" y="372" type="curve" smooth="yes"/>
      <point x="498" y="372"/>
      <point x="525" y="402"/>
      <point x="525" y="461" type="curve" smooth="yes"/>
      <point x="525" y="542"/>
      <point x="475" y="561"/>
      <point x="427" y="561" type="curve" smooth="yes"/>
      <point x="414" y="561"/>
      <point x="377" y="560"/>
      <point x="367" y="557" type="curve"/>
      <point x="365" y="490"/>
      <point x="363" y="430"/>
      <point x="363" y="367" type="curve" smooth="yes"/>
      <point x="363" y="318"/>
      <point x="364" y="268"/>
      <point x="366" y="213" type="curve" smooth="yes"/>
      <point x="367" y="172"/>
      <point x="369" y="169"/>
      <point x="421" y="160" type="curve"/>
      <point x="416" y="127" type="line"/>
      <point x="380" y="130"/>
      <point x="348" y="131"/>
      <point x="317" y="131" type="curve" smooth="yes"/>
      <point x="286" y="131"/>
      <point x="255" y="130"/>
      <point x="219" y="127" type="curve"/>
      <point x="214" y="160" type="line"/>
      <point x="274" y="172"/>
      <point x="270" y="174"/>
      <point x="273" y="212" type="curve"/>
      <point x="275" y="259"/>
      <point x="276" y="307"/>
      <point x="276" y="355" type="curve" smooth="yes"/>
      <point x="276" y="410"/>
      <point x="275" y="465"/>
      <point x="273" y="519" type="curve" smooth="yes"/>
      <point x="271" y="556"/>
      <point x="265" y="562"/>
      <point x="214" y="569" type="curve"/>
      <point x="218" y="602" type="line"/>
      <point x="219" y="602" type="line"/>
      <point x="251" y="598"/>
      <point x="280" y="598"/>
      <point x="310" y="597" type="curve" smooth="yes"/>
      <point x="340" y="597"/>
      <point x="376" y="602"/>
      <point x="444" y="602" type="curve" smooth="yes"/>
      <point x="534" y="602"/>
      <point x="615" y="571"/>
      <point x="618" y="478" type="curve" smooth="yes"/>
      <point x="621" y="390"/>
      <point x="548" y="340"/>
      <point x="495" y="340" type="curve" smooth="yes"/>
      <point x="489" y="340"/>
      <point x="482" y="340"/>
      <point x="474" y="342" type="curve"/>
      <point x="525" y="279"/>
      <point x="563" y="238"/>
      <point x="657" y="181" type="curve"/>
      <point x="627" y="160"/>
      <point x="607" y="137"/>
      <point x="589" y="107" type="curve"/>
      <point x="497" y="194"/>
      <point x="462" y="247"/>
      <point x="391" y="366" type="curve"/>
      <point x="397" y="370"/>
      <point x="413" y="380"/>
      <point x="418" y="388" type="curve"/>
      <point x="427" y="380"/>
      <point x="435" y="372"/>
    </contour>
  </outline>
</glyph>
<glyph name="macron" format="1">
  <advance width="364"/>
  <unicode hex="00AF"/>
  <outline>
    <contour>
      <point x="313" y="550" type="curve"/>
      <point x="270" y="551"/>
      <point x="209" y="551"/>
      <point x="152" y="551" type="curve" smooth="yes"/>
      <point x="110" y="551"/>
      <point x="70" y="551"/>
      <point x="38" y="550" type="curve"/>
      <point x="43" y="562"/>
      <point x="49" y="592"/>
      <point x="50" y="614" type="curve"/>
      <point x="91" y="613"/>
      <point x="147" y="612"/>
      <point x="202" y="612" type="curve" smooth="yes"/>
      <point x="247" y="612"/>
      <point x="291" y="613"/>
      <point x="325" y="614" type="curve"/>
      <point x="320" y="600"/>
      <point x="315" y="565"/>
    </contour>
  </outline>
</glyph>
<glyph name="degree" format="1">
  <advance width="331"/>
  <unicode hex="00B0"/>
  <outline>
    <contour>
      <point x="35" y="520" type="curve" smooth="yes"/>
      <point x="38" y="595"/>
      <point x="97" y="647"/>
      <point x="167" y="647" type="curve" smooth="yes"/>
      <point x="237" y="647"/>
      <point x="297" y="598"/>
      <point x="296" y="520" type="curve" smooth="yes"/>
      <point x="295" y="446"/>
      <point x="231" y="394"/>
      <point x="160" y="394" type="curve" smooth="yes"/>
      <point x="92" y="394"/>
      <point x="31" y="443"/>
    </contour>
    <contour>
      <point x="88" y="519" type="curve" smooth="yes"/>
      <point x="86" y="475"/>
      <point x="119" y="442"/>
      <point x="162" y="442" type="curve" smooth="yes"/>
      <point x="210" y="442"/>
      <point x="240" y="475"/>
      <point x="243" y="519" type="curve"/>
      <point x="244" y="563"/>
      <point x="209" y="596"/>
      <point x="166" y="596" type="curve" smooth="yes"/>
      <point x="119" y="596"/>
      <point x="89" y="563"/>
    </contour>
  </outline>
</glyph>
<glyph name="plusminus" format="1">
  <advance width="442"/>
  <unicode hex="00B1"/>
  <outline>
    <contour>
      <point x="14" y="57" type="line"/>
      <point x="14" y="106" type="line"/>
      <point x="196" y="106" type="line"/>
      <point x="196" y="263" type="line"/>
      <point x="14" y="263" type="line"/>
      <point x="14" y="312" type="line"/>
      <point x="196" y="312" type="line"/>
      <point x="196" y="495" type="line"/>
      <point x="245" y="495" type="line"/>
      <point x="245" y="312" type="line"/>
      <point x="429" y="312" type="line"/>
      <point x="429" y="263" type="line"/>
      <point x="245" y="263" type="line"/>
      <point x="245" y="106" type="line"/>
      <point x="429" y="106" type="line"/>
      <point x="429" y="57" type="line"/>
    </contour>
  </outline>
</glyph>
<glyph name="paragraph" format="1">
  <advance width="527"/>
  <unicode hex="00B6"/>
  <outline>
    <contour>
      <point x="300" y="177" type="curve" smooth="yes"/>
      <point x="305" y="222"/>
      <point x="304" y="250"/>
      <point x="305" y="300" type="curve"/>
      <point x="286" y="286"/>
      <point x="268" y="270"/>
      <point x="254" y="255" type="curve"/>
      <point x="229" y="253"/>
      <point x="201" y="251"/>
      <point x="181" y="252" type="curve" smooth="yes"/>
      <point x="79" y="254"/>
      <point x="27" y="323"/>
      <point x="27" y="411" type="curve" smooth="yes"/>
      <point x="27" y="523"/>
      <point x="105" y="643"/>
      <point x="275" y="643" type="curve" smooth="yes"/>
      <point x="316" y="643"/>
      <point x="372" y="635"/>
      <point x="428" y="635" type="curve" smooth="yes"/>
      <point x="449" y="635"/>
      <point x="470" y="636"/>
      <point x="490" y="639" type="curve"/>
      <point x="494" y="600" type="line"/>
      <point x="439" y="590"/>
      <point x="432" y="592"/>
      <point x="431" y="540" type="curve" smooth="yes"/>
      <point x="430" y="516"/>
      <point x="430" y="468"/>
      <point x="430" y="409" type="curve" smooth="yes"/>
      <point x="430" y="265"/>
      <point x="432" y="58"/>
      <point x="437" y="1" type="curve"/>
      <point x="424" y="2"/>
      <point x="395" y="0"/>
      <point x="382" y="-3" type="curve"/>
      <point x="384" y="57"/>
      <point x="388" y="337"/>
      <point x="388" y="497" type="curve" smooth="yes"/>
      <point x="388" y="541"/>
      <point x="388" y="577"/>
      <point x="387" y="595" type="curve"/>
      <point x="349" y="599" type="line"/>
      <point x="349" y="285"/>
      <point x="350" y="187"/>
      <point x="350" y="139" type="curve" smooth="yes"/>
      <point x="350" y="75"/>
      <point x="345" y="25"/>
      <point x="290" y="7" type="curve" smooth="yes"/>
      <point x="268" y="0"/>
      <point x="225" y="-7"/>
      <point x="196" y="-7" type="curve"/>
      <point x="206" y="13"/>
      <point x="211" y="72"/>
      <point x="210" y="106" type="curve"/>
      <point x="221" y="105"/>
      <point x="233" y="104"/>
      <point x="241" y="105" type="curve" smooth="yes"/>
      <point x="294" y="114"/>
      <point x="296" y="140"/>
    </contour>
  </outline>
</glyph>
<glyph name="onesuperior" format="1">
  <advance width="293"/>
  <unicode hex="00B9"/>
  <outline>
    <contour>
      <point x="101" y="479" type="curve"/>
      <point x="103" y="516"/>
      <point x="103" y="552"/>
      <point x="103" y="588" type="curve" smooth="yes"/>
      <point x="103" y="618"/>
      <point x="103" y="648"/>
      <point x="102" y="680" type="curve"/>
      <point x="80" y="672"/>
      <point x="58" y="663"/>
      <point x="30" y="644" type="curve"/>
      <point x="34" y="654"/>
      <point x="35" y="693"/>
      <point x="35" y="700" type="curve"/>
      <point x="98" y="726"/>
      <point x="134" y="737"/>
      <point x="214" y="752" type="curve"/>
      <point x="222" y="726" type="line"/>
      <point x="213" y="719"/>
      <point x="200" y="713"/>
      <point x="198" y="681" type="curve" smooth="yes"/>
      <point x="197" y="650"/>
      <point x="197" y="624"/>
      <point x="197" y="598" type="curve" smooth="yes"/>
      <point x="197" y="562"/>
      <point x="198" y="526"/>
      <point x="200" y="480" type="curve" smooth="yes"/>
      <point x="202" y="436"/>
      <point x="224" y="431"/>
      <point x="272" y="424" type="curve"/>
      <point x="267" y="384" type="line"/>
      <point x="221" y="388"/>
      <point x="185" y="390"/>
      <point x="147" y="390" type="curve" smooth="yes"/>
      <point x="112" y="390"/>
      <point x="75" y="388"/>
      <point x="28" y="384" type="curve"/>
      <point x="25" y="424" type="line"/>
      <point x="80" y="431"/>
      <point x="100" y="427"/>
    </contour>
  </outline>
</glyph>
<glyph name="ordmasculine" format="1">
  <advance width="400"/>
  <unicode hex="00BA"/>
  <outline>
    <contour>
      <point x="172" y="312" type="curve" smooth="yes"/>
      <point x="89" y="312"/>
      <point x="30" y="387"/>
      <point x="30" y="465" type="curve" smooth="yes"/>
      <point x="30" y="525"/>
      <point x="55" y="575"/>
      <point x="90" y="604" type="curve"/>
      <point x="120" y="627"/>
      <point x="180" y="643"/>
      <point x="220" y="643" type="curve" smooth="yes"/>
      <point x="295" y="643"/>
      <point x="362" y="582"/>
      <point x="362" y="496" type="curve" smooth="yes"/>
      <point x="362" y="423"/>
      <point x="342" y="385"/>
      <point x="312" y="356" type="curve"/>
      <point x="294" y="340"/>
      <point x="231" y="312"/>
    </contour>
    <contour>
      <point x="135" y="461" type="curve" smooth="yes"/>
      <point x="147" y="400"/>
      <point x="181" y="363"/>
      <point x="220" y="368" type="curve" smooth="yes"/>
      <point x="246" y="371"/>
      <point x="263" y="405"/>
      <point x="263" y="453" type="curve" smooth="yes"/>
      <point x="263" y="466"/>
      <point x="262" y="480"/>
      <point x="259" y="495" type="curve" smooth="yes"/>
      <point x="246" y="565"/>
      <point x="209" y="598"/>
      <point x="171" y="588" type="curve" smooth="yes"/>
      <point x="145" y="581"/>
      <point x="131" y="543"/>
      <point x="131" y="500" type="curve" smooth="yes"/>
      <point x="131" y="487"/>
      <point x="133" y="474"/>
    </contour>
  </outline>
</glyph>
<glyph name="guillemotright" format="1">
  <advance width="460"/>
  <unicode hex="00BB"/>
  <outline>
    <contour>
      <point x="45" y="360" type="curve"/>
      <point x="76" y="384" type="line"/>
      <point x="131" y="324"/>
      <point x="183" y="276"/>
      <point x="240" y="231" type="curve"/>
      <point x="240" y="206" type="line"/>
      <point x="176" y="157"/>
      <point x="132" y="112"/>
      <point x="75" y="46" type="curve"/>
      <point x="45" y="70" type="line"/>
      <point x="81" y="128"/>
      <point x="103" y="169"/>
      <point x="126" y="216" type="curve"/>
      <point x="107" y="258"/>
      <point x="83" y="303"/>
    </contour>
    <contour>
      <point x="245" y="360" type="curve"/>
      <point x="276" y="384" type="line"/>
      <point x="331" y="324"/>
      <point x="383" y="276"/>
      <point x="440" y="231" type="curve"/>
      <point x="440" y="206" type="line"/>
      <point x="376" y="157"/>
      <point x="332" y="112"/>
      <point x="275" y="46" type="curve"/>
      <point x="245" y="70" type="line"/>
      <point x="281" y="128"/>
      <point x="303" y="169"/>
      <point x="326" y="216" type="curve"/>
      <point x="307" y="258"/>
      <point x="283" y="303"/>
    </contour>
  </outline>
</glyph>
<glyph name="onequarter" format="1">
  <advance width="703"/>
  <unicode hex="00BC"/>
  <outline>
    <contour>
      <point x="513" y="-28" type="curve"/>
      <point x="522" y="18"/>
      <point x="524" y="52"/>
      <point x="524" y="90" type="curve"/>
      <point x="470" y="89"/>
      <point x="415" y="87"/>
      <point x="372" y="83" type="curve"/>
      <point x="377" y="99"/>
      <point x="380" y="117"/>
      <point x="381" y="133" type="curve"/>
      <point x="432" y="180"/>
      <point x="482" y="238"/>
      <point x="533" y="319" type="curve"/>
      <point x="563" y="325"/>
      <point x="587" y="329"/>
      <point x="617" y="337" type="curve"/>
      <point x="613" y="291"/>
      <point x="611" y="164"/>
      <point x="612" y="135" type="curve"/>
      <point x="640" y="135"/>
      <point x="665" y="137"/>
      <point x="695" y="144" type="curve"/>
      <point x="696" y="138" type="line"/>
      <point x="680" y="122"/>
      <point x="667" y="107"/>
      <point x="667" y="81" type="curve"/>
      <point x="645" y="86"/>
      <point x="632" y="89"/>
      <point x="612" y="90" type="curve"/>
      <point x="611" y="67"/>
      <point x="615" y="22"/>
      <point x="619" y="7" type="curve"/>
      <point x="582" y="2"/>
      <point x="545" y="-11"/>
    </contour>
    <contour>
      <point x="101" y="397" type="curve"/>
      <point x="103" y="434"/>
      <point x="103" y="470"/>
      <point x="103" y="506" type="curve" smooth="yes"/>
      <point x="103" y="536"/>
      <point x="103" y="566"/>
      <point x="102" y="598" type="curve"/>
      <point x="80" y="590"/>
      <point x="58" y="581"/>
      <point x="30" y="562" type="curve"/>
      <point x="34" y="572"/>
      <point x="35" y="611"/>
      <point x="35" y="618" type="curve"/>
      <point x="98" y="644"/>
      <point x="134" y="655"/>
      <point x="214" y="670" type="curve"/>
      <point x="222" y="644" type="line"/>
      <point x="213" y="637"/>
      <point x="200" y="631"/>
      <point x="198" y="599" type="curve" smooth="yes"/>
      <point x="197" y="568"/>
      <point x="197" y="542"/>
      <point x="197" y="516" type="curve" smooth="yes"/>
      <point x="197" y="480"/>
      <point x="198" y="444"/>
      <point x="200" y="398" type="curve" smooth="yes"/>
      <point x="202" y="354"/>
      <point x="224" y="349"/>
      <point x="272" y="342" type="curve"/>
      <point x="267" y="302" type="line"/>
      <point x="221" y="306"/>
      <point x="185" y="308"/>
      <point x="147" y="308" type="curve" smooth="yes"/>
      <point x="112" y="308"/>
      <point x="75" y="306"/>
      <point x="28" y="302" type="curve"/>
      <point x="25" y="342" type="line"/>
      <point x="80" y="349"/>
      <point x="100" y="345"/>
    </contour>
    <contour>
      <point x="592" y="650" type="curve"/>
      <point x="625" y="623" type="line"/>
      <point x="494" y="454"/>
      <point x="254" y="140"/>
      <point x="125" y="-31" type="curve"/>
      <point x="93" y="-5" type="line"/>
      <point x="224" y="165"/>
      <point x="463" y="479"/>
    </contour>
    <contour>
      <point x="526" y="249" type="line"/>
      <point x="493" y="201"/>
      <point x="473" y="178"/>
      <point x="435" y="135" type="curve"/>
      <point x="525" y="135" type="line"/>
      <point x="526" y="156"/>
      <point x="526" y="180"/>
      <point x="526" y="201" type="curve" smooth="yes"/>
    </contour>
  </outline>
</glyph>
<glyph name="onehalf" format="1">
  <advance width="717"/>
  <unicode hex="00BD"/>
  <outline>
    <contour>
      <point x="101" y="397" type="curve"/>
      <point x="103" y="434"/>
      <point x="103" y="470"/>
      <point x="103" y="506" type="curve" smooth="yes"/>
      <point x="103" y="536"/>
      <point x="103" y="566"/>
      <point x="102" y="598" type="curve"/>
      <point x="80" y="590"/>
      <point x="58" y="581"/>
      <point x="30" y="562" type="curve"/>
      <point x="34" y="572"/>
      <point x="35" y="611"/>
      <point x="35" y="618" type="curve"/>
      <point x="98" y="644"/>
      <point x="134" y="655"/>
      <point x="214" y="670" type="curve"/>
      <point x="222" y="644" type="line"/>
      <point x="213" y="637"/>
      <point x="200" y="631"/>
      <point x="198" y="599" type="curve" smooth="yes"/>
      <point x="197" y="568"/>
      <point x="197" y="542"/>
      <point x="197" y="516" type="curve" smooth="yes"/>
      <point x="197" y="480"/>
      <point x="198" y="444"/>
      <point x="200" y="398" type="curve" smooth="yes"/>
      <point x="202" y="354"/>
      <point x="224" y="349"/>
      <point x="272" y="342" type="curve"/>
      <point x="267" y="302" type="line"/>
      <point x="221" y="306"/>
      <point x="185" y="308"/>
      <point x="147" y="308" type="curve" smooth="yes"/>
      <point x="112" y="308"/>
      <point x="75" y="306"/>
      <point x="28" y="302" type="curve"/>
      <point x="25" y="342" type="line"/>
      <point x="80" y="349"/>
      <point x="100" y="345"/>
    </contour>
    <contour>
      <point x="592" y="650" type="curve"/>
      <point x="625" y="623" type="line"/>
      <point x="494" y="454"/>
      <point x="254" y="140"/>
      <point x="125" y="-31" type="curve"/>
      <point x="93" y="-5" type="line"/>
      <point x="224" y="165"/>
      <point x="463" y="479"/>
    </contour>
    <contour>
      <point x="660" y="-15" type="curve"/>
      <point x="627" y="-13"/>
      <point x="594" y="-12"/>
      <point x="564" y="-12" type="curve" smooth="yes"/>
      <point x="519" y="-12"/>
      <point x="478" y="-14"/>
      <point x="441" y="-15" type="curve"/>
      <point x="447" y="3"/>
      <point x="453" y="52"/>
      <point x="454" y="76" type="curve"/>
      <point x="499" y="101"/>
      <point x="528" y="120"/>
      <point x="557" y="155" type="curve" smooth="yes"/>
      <point x="569" y="169"/>
      <point x="582" y="193"/>
      <point x="582" y="213" type="curve" smooth="yes"/>
      <point x="582" y="236"/>
      <point x="568" y="250"/>
      <point x="530" y="250" type="curve" smooth="yes"/>
      <point x="512" y="250"/>
      <point x="481" y="248"/>
      <point x="462" y="242" type="curve"/>
      <point x="473" y="275"/>
      <point x="479" y="310"/>
      <point x="480" y="339" type="curve"/>
      <point x="499" y="342"/>
      <point x="553" y="345"/>
      <point x="568" y="344" type="curve" smooth="yes"/>
      <point x="622" y="340"/>
      <point x="666" y="314"/>
      <point x="666" y="261" type="curve" smooth="yes"/>
      <point x="666" y="222"/>
      <point x="660" y="206"/>
      <point x="623" y="164" type="curve"/>
      <point x="592" y="127"/>
      <point x="563" y="100"/>
      <point x="540" y="78" type="curve"/>
      <point x="549" y="77"/>
      <point x="561" y="77"/>
      <point x="573" y="77" type="curve" smooth="yes"/>
      <point x="585" y="77"/>
      <point x="598" y="77"/>
      <point x="607" y="78" type="curve" smooth="yes"/>
      <point x="635" y="81"/>
      <point x="642" y="86"/>
      <point x="653" y="117" type="curve"/>
      <point x="688" y="104" type="line"/>
      <point x="673" y="67"/>
      <point x="664" y="17"/>
    </contour>
  </outline>
</glyph>
<glyph name="threequarters" format="1">
  <advance width="703"/>
  <unicode hex="00BE"/>
  <outline>
    <contour>
      <point x="513" y="-28" type="curve"/>
      <point x="522" y="18"/>
      <point x="524" y="52"/>
      <point x="524" y="90" type="curve"/>
      <point x="470" y="89"/>
      <point x="415" y="87"/>
      <point x="372" y="83" type="curve"/>
      <point x="377" y="99"/>
      <point x="380" y="117"/>
      <point x="381" y="133" type="curve"/>
      <point x="432" y="180"/>
      <point x="482" y="238"/>
      <point x="533" y="319" type="curve"/>
      <point x="563" y="325"/>
      <point x="587" y="329"/>
      <point x="617" y="337" type="curve"/>
      <point x="613" y="291"/>
      <point x="611" y="164"/>
      <point x="612" y="135" type="curve"/>
      <point x="640" y="135"/>
      <point x="665" y="137"/>
      <point x="695" y="144" type="curve"/>
      <point x="696" y="138" type="line"/>
      <point x="680" y="122"/>
      <point x="667" y="107"/>
      <point x="667" y="81" type="curve"/>
      <point x="645" y="86"/>
      <point x="632" y="89"/>
      <point x="612" y="90" type="curve"/>
      <point x="611" y="67"/>
      <point x="615" y="22"/>
      <point x="619" y="7" type="curve"/>
      <point x="582" y="2"/>
      <point x="545" y="-11"/>
    </contour>
    <contour>
      <point x="190" y="316" type="curve"/>
      <point x="170" y="300"/>
      <point x="156" y="295"/>
      <point x="137" y="295" type="curve" smooth="yes"/>
      <point x="128" y="295"/>
      <point x="118" y="296"/>
      <point x="106" y="298" type="curve" smooth="yes"/>
      <point x="85" y="301"/>
      <point x="46" y="309"/>
      <point x="26" y="315" type="curve"/>
      <point x="40" y="342"/>
      <point x="51" y="375"/>
      <point x="59" y="416" type="curve"/>
      <point x="96" y="396"/>
      <point x="142" y="381"/>
      <point x="175" y="379" type="curve" smooth="yes"/>
      <point x="190" y="379"/>
      <point x="198" y="389"/>
      <point x="191" y="406" type="curve" smooth="yes"/>
      <point x="183" y="428"/>
      <point x="153" y="451"/>
      <point x="128" y="460" type="curve" smooth="yes"/>
      <point x="114" y="465"/>
      <point x="109" y="466"/>
      <point x="80" y="466" type="curve"/>
      <point x="84" y="481"/>
      <point x="88" y="495"/>
      <point x="90" y="512" type="curve"/>
      <point x="101" y="515"/>
      <point x="119" y="518"/>
      <point x="134" y="519" type="curve"/>
      <point x="146" y="523"/>
      <point x="160" y="533"/>
      <point x="160" y="544" type="curve" smooth="yes"/>
      <point x="160" y="558"/>
      <point x="140" y="570"/>
      <point x="110" y="570" type="curve" smooth="yes"/>
      <point x="95" y="570"/>
      <point x="69" y="564"/>
      <point x="54" y="558" type="curve"/>
      <point x="66" y="592"/>
      <point x="72" y="621"/>
      <point x="76" y="656" type="curve"/>
      <point x="96" y="660"/>
      <point x="122" y="663"/>
      <point x="142" y="663" type="curve" smooth="yes"/>
      <point x="189" y="663"/>
      <point x="205" y="657"/>
      <point x="223" y="635" type="curve" smooth="yes"/>
      <point x="230" y="625"/>
      <point x="238" y="603"/>
      <point x="237" y="587" type="curve" smooth="yes"/>
      <point x="235" y="557"/>
      <point x="225" y="550"/>
      <point x="214" y="539" type="curve" smooth="yes"/>
      <point x="205" y="530"/>
      <point x="195" y="523"/>
      <point x="184" y="517" type="curve"/>
      <point x="196" y="514"/>
      <point x="205" y="510"/>
      <point x="212" y="505" type="curve" smooth="yes"/>
      <point x="240" y="485"/>
      <point x="257" y="445"/>
      <point x="250" y="403" type="curve"/>
      <point x="248" y="383"/>
      <point x="243" y="371"/>
      <point x="234" y="359" type="curve" smooth="yes"/>
      <point x="222" y="343"/>
      <point x="209" y="329"/>
    </contour>
    <contour>
      <point x="592" y="650" type="curve"/>
      <point x="625" y="623" type="line"/>
      <point x="494" y="454"/>
      <point x="254" y="140"/>
      <point x="125" y="-31" type="curve"/>
      <point x="93" y="-5" type="line"/>
      <point x="224" y="165"/>
      <point x="463" y="479"/>
    </contour>
    <contour>
      <point x="526" y="249" type="line"/>
      <point x="493" y="201"/>
      <point x="473" y="178"/>
      <point x="435" y="135" type="curve"/>
      <point x="525" y="135" type="line"/>
      <point x="526" y="156"/>
      <point x="526" y="180"/>
      <point x="526" y="201" type="curve" smooth="yes"/>
    </contour>
  </outline>
</glyph>
<glyph name="questiondown" format="1">
  <advance width="365"/>
  <unicode hex="00BF"/>
  <outline>
    <contour>
      <point x="237" y="238" type="curve"/>
      <point x="279" y="238" type="line"/>
      <point x="278" y="220"/>
      <point x="278" y="203"/>
      <point x="278" y="186" type="curve" smooth="yes"/>
      <point x="278" y="138"/>
      <point x="280" y="94"/>
      <point x="284" y="50" type="curve"/>
      <point x="250" y="58"/>
      <point x="216" y="62"/>
      <point x="197" y="64" type="curve" smooth="yes"/>
      <point x="183" y="65"/>
      <point x="171" y="66"/>
      <point x="161" y="66" type="curve" smooth="yes"/>
      <point x="107" y="66"/>
      <point x="94" y="49"/>
      <point x="86" y="2" type="curve" smooth="yes"/>
      <point x="81" y="-33"/>
      <point x="92" y="-65"/>
      <point x="158" y="-87" type="curve" smooth="yes"/>
      <point x="202" y="-102"/>
      <point x="254" y="-108"/>
      <point x="341" y="-109" type="curve"/>
      <point x="334" y="-138"/>
      <point x="328" y="-208"/>
      <point x="328" y="-239" type="curve"/>
      <point x="282" y="-221"/>
      <point x="221" y="-216"/>
      <point x="172" y="-205" type="curve" smooth="yes"/>
      <point x="84" y="-185"/>
      <point x="31" y="-142"/>
      <point x="33" y="-52" type="curve" smooth="yes"/>
      <point x="33" y="-13"/>
      <point x="43" y="28"/>
      <point x="55" y="60" type="curve" smooth="yes"/>
      <point x="78" y="120"/>
      <point x="106" y="165"/>
      <point x="172" y="165" type="curve" smooth="yes"/>
      <point x="196" y="165"/>
      <point x="212" y="163"/>
      <point x="234" y="160" type="curve"/>
      <point x="236" y="196"/>
      <point x="237" y="205"/>
    </contour>
    <contour>
      <point x="259" y="431" type="curve"/>
      <point x="313" y="432"/>
      <point x="329" y="392"/>
      <point x="329" y="362" type="curve" smooth="yes"/>
      <point x="329" y="324"/>
      <point x="305" y="290"/>
      <point x="253" y="287" type="curve" smooth="yes"/>
      <point x="201" y="284"/>
      <point x="183" y="321"/>
      <point x="183" y="353" type="curve" smooth="yes"/>
      <point x="183" y="392"/>
      <point x="201" y="428"/>
    </contour>
  </outline>
</glyph>
<glyph name="Atilde" format="1">
  <advance width="783"/>
  <unicode hex="00C3"/>
  <outline>
    <contour>
      <point x="457" y="-3" type="curve"/>
      <point x="455" y="36" type="line"/>
      <point x="530" y="50"/>
      <point x="528" y="57"/>
      <point x="522" y="95" type="curve" smooth="yes"/>
      <point x="520" y="108"/>
      <point x="499" y="171"/>
      <point x="489" y="192" type="curve"/>
      <point x="442" y="188"/>
      <point x="406" y="186"/>
      <point x="370" y="186" type="curve" smooth="yes"/>
      <point x="329" y="186"/>
      <point x="289" y="189"/>
      <point x="235" y="194" type="curve"/>
      <point x="215" y="138"/>
      <point x="202" y="100"/>
      <point x="202" y="82" type="curve" smooth="yes"/>
      <point x="202" y="47"/>
      <point x="216" y="45"/>
      <point x="265" y="36" type="curve"/>
      <point x="261" y="-3" type="line"/>
      <point x="225" y="1"/>
      <point x="186" y="3"/>
      <point x="147" y="3" type="curve" smooth="yes"/>
      <point x="108" y="3"/>
      <point x="69" y="1"/>
      <point x="33" y="-3" type="curve"/>
      <point x="28" y="23"/>
      <point x="27" y="35"/>
      <point x="27" y="35" type="curve"/>
      <point x="92" y="48"/>
      <point x="115" y="84"/>
      <point x="134" y="118" type="curve" smooth="yes"/>
      <point x="190" y="220"/>
      <point x="262" y="394"/>
      <point x="313" y="531" type="curve" smooth="yes"/>
      <point x="326" y="567"/>
      <point x="330" y="597"/>
      <point x="325" y="629" type="curve"/>
      <point x="363" y="632"/>
      <point x="403" y="639"/>
      <point x="439" y="652" type="curve"/>
      <point x="442" y="637"/>
      <point x="452" y="607"/>
      <point x="466" y="569" type="curve" smooth="yes"/>
      <point x="515" y="437"/>
      <point x="617" y="200"/>
      <point x="661" y="111" type="curve" smooth="yes"/>
      <point x="690" y="54"/>
      <point x="705" y="50"/>
      <point x="755" y="36" type="curve"/>
      <point x="752" y="-4" type="line"/>
      <point x="712" y="1"/>
      <point x="660" y="4"/>
      <point x="608" y="4" type="curve" smooth="yes"/>
      <point x="553" y="4"/>
      <point x="499" y="1"/>
    </contour>
    <contour>
      <point x="251" y="238" type="curve"/>
      <point x="306" y="232"/>
      <point x="335" y="228"/>
      <point x="367" y="228" type="curve" smooth="yes"/>
      <point x="394" y="228"/>
      <point x="424" y="230"/>
      <point x="474" y="236" type="curve"/>
      <point x="426" y="357"/>
      <point x="409" y="399"/>
      <point x="359" y="512" type="curve"/>
      <point x="320" y="420"/>
      <point x="289" y="338"/>
    </contour>
    <contour>
      <point x="378" y="802" type="curve" smooth="yes"/>
      <point x="401" y="801"/>
      <point x="421" y="798"/>
      <point x="442" y="797" type="curve" smooth="yes"/>
      <point x="482" y="796"/>
      <point x="503" y="816"/>
      <point x="531" y="854" type="curve"/>
      <point x="564" y="835" type="line"/>
      <point x="539" y="796"/>
      <point x="508" y="757"/>
      <point x="489" y="737" type="curve" smooth="yes"/>
      <point x="468" y="716"/>
      <point x="450" y="708"/>
      <point x="415" y="710" type="curve" smooth="yes"/>
      <point x="394" y="712"/>
      <point x="371" y="715"/>
      <point x="345" y="715" type="curve" smooth="yes"/>
      <point x="319" y="716"/>
      <point x="308" y="709"/>
      <point x="274" y="668" type="curve"/>
      <point x="238" y="686" type="line"/>
      <point x="265" y="732"/>
      <point x="287" y="759"/>
      <point x="303" y="774" type="curve" smooth="yes"/>
      <point x="327" y="797"/>
      <point x="342" y="804"/>
    </contour>
  </outline>
</glyph>
<glyph name="Aring" format="1">
  <advance width="783"/>
  <unicode hex="00C5"/>
  <outline>
    <contour>
      <point x="457" y="-3" type="curve"/>
      <point x="455" y="36" type="line"/>
      <point x="530" y="50"/>
      <point x="528" y="57"/>
      <point x="522" y="95" type="curve" smooth="yes"/>
      <point x="520" y="108"/>
      <point x="499" y="171"/>
      <point x="489" y="192" type="curve"/>
      <point x="442" y="188"/>
      <point x="406" y="186"/>
      <point x="370" y="186" type="curve" smooth="yes"/>
      <point x="329" y="186"/>
      <point x="289" y="189"/>
      <point x="235" y="194" type="curve"/>
      <point x="215" y="138"/>
      <point x="202" y="100"/>
      <point x="202" y="82" type="curve" smooth="yes"/>
      <point x="202" y="47"/>
      <point x="216" y="45"/>
      <point x="265" y="36" type="curve"/>
      <point x="261" y="-3" type="line"/>
      <point x="225" y="1"/>
      <point x="186" y="3"/>
      <point x="147" y="3" type="curve" smooth="yes"/>
      <point x="108" y="3"/>
      <point x="69" y="1"/>
      <point x="33" y="-3" type="curve"/>
      <point x="28" y="23"/>
      <point x="27" y="35"/>
      <point x="27" y="35" type="curve"/>
      <point x="92" y="48"/>
      <point x="115" y="84"/>
      <point x="134" y="118" type="curve" smooth="yes"/>
      <point x="190" y="220"/>
      <point x="262" y="394"/>
      <point x="313" y="531" type="curve" smooth="yes"/>
      <point x="326" y="567"/>
      <point x="330" y="597"/>
      <point x="325" y="629" type="curve"/>
      <point x="363" y="632"/>
      <point x="403" y="639"/>
      <point x="439" y="652" type="curve"/>
      <point x="442" y="637"/>
      <point x="452" y="607"/>
      <point x="466" y="569" type="curve" smooth="yes"/>
      <point x="515" y="437"/>
      <point x="617" y="200"/>
      <point x="661" y="111" type="curve" smooth="yes"/>
      <point x="690" y="54"/>
      <point x="705" y="50"/>
      <point x="755" y="36" type="curve"/>
      <point x="752" y="-4" type="line"/>
      <point x="712" y="1"/>
      <point x="660" y="4"/>
      <point x="608" y="4" type="curve" smooth="yes"/>
      <point x="553" y="4"/>
      <point x="499" y="1"/>
    </contour>
    <contour>
      <point x="251" y="238" type="curve"/>
      <point x="306" y="232"/>
      <point x="335" y="228"/>
      <point x="367" y="228" type="curve" smooth="yes"/>
      <point x="394" y="228"/>
      <point x="424" y="230"/>
      <point x="474" y="236" type="curve"/>
      <point x="426" y="357"/>
      <point x="409" y="399"/>
      <point x="359" y="512" type="curve"/>
      <point x="320" y="420"/>
      <point x="289" y="338"/>
    </contour>
    <contour>
      <point x="304" y="768" type="curve" smooth="yes"/>
      <point x="306" y="818"/>
      <point x="347" y="853"/>
      <point x="393" y="853" type="curve" smooth="yes"/>
      <point x="441" y="853"/>
      <point x="481" y="820"/>
      <point x="480" y="768" type="curve" smooth="yes"/>
      <point x="480" y="718"/>
      <point x="437" y="683"/>
      <point x="389" y="683" type="curve" smooth="yes"/>
      <point x="343" y="683"/>
      <point x="302" y="715"/>
    </contour>
    <contour>
      <point x="351" y="766" type="curve"/>
      <point x="350" y="742"/>
      <point x="367" y="724"/>
      <point x="391" y="724" type="curve" smooth="yes"/>
      <point x="417" y="724"/>
      <point x="433" y="742"/>
      <point x="434" y="766" type="curve"/>
      <point x="434" y="791"/>
      <point x="417" y="809"/>
      <point x="392" y="809" type="curve" smooth="yes"/>
      <point x="367" y="809"/>
      <point x="351" y="791"/>
    </contour>
  </outline>
</glyph>
<glyph name="Ccedilla" format="1">
  <advance width="638"/>
  <unicode hex="00C7"/>
  <outline>
    <contour>
      <point x="314" y="-239" type="curve"/>
      <point x="289" y="-212" type="line"/>
      <point x="312" y="-195"/>
      <point x="319" y="-185"/>
      <point x="328" y="-170" type="curve" smooth="yes"/>
      <point x="338" y="-154"/>
      <point x="337" y="-130"/>
      <point x="284" y="-104" type="curve"/>
      <point x="298" y="-75"/>
      <point x="309" y="-43"/>
      <point x="318" y="-14" type="curve"/>
      <point x="151" y="1"/>
      <point x="39" y="112"/>
      <point x="39" y="302" type="curve" smooth="yes"/>
      <point x="39" y="499"/>
      <point x="204" y="651"/>
      <point x="382" y="651" type="curve" smooth="yes"/>
      <point x="430" y="651"/>
      <point x="483" y="645"/>
      <point x="540" y="625" type="curve"/>
      <point x="551" y="588"/>
      <point x="570" y="530"/>
      <point x="589" y="495" type="curve"/>
      <point x="554" y="475" type="line"/>
      <point x="498" y="550"/>
      <point x="454" y="604"/>
      <point x="378" y="604" type="curve" smooth="yes"/>
      <point x="275" y="604"/>
      <point x="173" y="500"/>
      <point x="173" y="316" type="curve" smooth="yes"/>
      <point x="173" y="93"/>
      <point x="297" y="35"/>
      <point x="371" y="35" type="curve" smooth="yes"/>
      <point x="452" y="35"/>
      <point x="504" y="55"/>
      <point x="562" y="136" type="curve"/>
      <point x="597" y="122" type="line"/>
      <point x="583" y="96"/>
      <point x="568" y="50"/>
      <point x="561" y="29" type="curve"/>
      <point x="521" y="7"/>
      <point x="460" y="-16"/>
      <point x="361" y="-16" type="curve"/>
      <point x="353" y="-45" type="line"/>
      <point x="370" y="-53"/>
      <point x="384" y="-61"/>
      <point x="394" y="-71" type="curve" smooth="yes"/>
      <point x="406" y="-83"/>
      <point x="412" y="-98"/>
      <point x="412" y="-114" type="curve" smooth="yes"/>
      <point x="412" y="-131"/>
      <point x="405" y="-149"/>
      <point x="393" y="-165" type="curve" smooth="yes"/>
      <point x="372" y="-193"/>
      <point x="347" y="-217"/>
    </contour>
  </outline>
</glyph>
<glyph name="Egrave" format="1">
  <advance width="592"/>
  <unicode hex="00C8"/>
  <outline>
    <contour>
      <point x="234" y="304" type="curve"/>
      <point x="234" y="264" type="line" smooth="yes"/>
      <point x="234" y="198"/>
      <point x="236" y="130"/>
      <point x="240" y="59" type="curve"/>
      <point x="274" y="52"/>
      <point x="297" y="49"/>
      <point x="344" y="50" type="curve" smooth="yes"/>
      <point x="427" y="51"/>
      <point x="450" y="65"/>
      <point x="529" y="188" type="curve"/>
      <point x="568" y="173" type="line"/>
      <point x="546" y="121"/>
      <point x="517" y="44"/>
      <point x="505" y="-7" type="curve"/>
      <point x="427" y="2"/>
      <point x="360" y="4"/>
      <point x="286" y="4" type="curve" smooth="yes"/>
      <point x="244" y="4"/>
      <point x="199" y="3"/>
      <point x="150" y="3" type="curve" smooth="yes"/>
      <point x="101" y="3"/>
      <point x="92" y="3"/>
      <point x="36" y="-3" type="curve"/>
      <point x="32" y="36" type="line"/>
      <point x="114" y="49"/>
      <point x="110" y="61"/>
      <point x="111" y="115" type="curve"/>
      <point x="114" y="182"/>
      <point x="116" y="250"/>
      <point x="116" y="318" type="curve" smooth="yes"/>
      <point x="116" y="386"/>
      <point x="114" y="455"/>
      <point x="112" y="525" type="curve"/>
      <point x="109" y="585"/>
      <point x="90" y="591"/>
      <point x="32" y="600" type="curve"/>
      <point x="35" y="639" type="line"/>
      <point x="83" y="634"/>
      <point x="95" y="633"/>
      <point x="148" y="633" type="curve" smooth="yes"/>
      <point x="244" y="633"/>
      <point x="428" y="633"/>
      <point x="489" y="645" type="curve"/>
      <point x="499" y="592"/>
      <point x="512" y="550"/>
      <point x="540" y="482" type="curve"/>
      <point x="502" y="466" type="line"/>
      <point x="427" y="579"/>
      <point x="409" y="585"/>
      <point x="341" y="587" type="curve" smooth="yes"/>
      <point x="312" y="588"/>
      <point x="270" y="587"/>
      <point x="237" y="584" type="curve"/>
      <point x="235" y="551"/>
      <point x="234" y="432"/>
      <point x="234" y="349" type="curve"/>
      <point x="314" y="350"/>
      <point x="380" y="355"/>
      <point x="456" y="379" type="curve"/>
      <point x="445" y="348"/>
      <point x="435" y="305"/>
      <point x="432" y="273" type="curve"/>
      <point x="378" y="292"/>
      <point x="323" y="304"/>
    </contour>
    <contour>
      <point x="423" y="722" type="curve"/>
      <point x="409" y="690" type="line"/>
      <point x="318" y="712"/>
      <point x="268" y="724"/>
      <point x="178" y="738" type="curve"/>
      <point x="198" y="774"/>
      <point x="217" y="813"/>
      <point x="224" y="840" type="curve"/>
      <point x="300" y="782"/>
      <point x="325" y="765"/>
    </contour>
  </outline>
</glyph>
<glyph name="Idieresis" format="1">
  <advance width="342"/>
  <unicode hex="00CF"/>
  <outline>
    <contour>
      <point x="36" y="639" type="line"/>
      <point x="37" y="639" type="line"/>
      <point x="86" y="634"/>
      <point x="129" y="631"/>
      <point x="172" y="631" type="curve" smooth="yes"/>
      <point x="215" y="631"/>
      <point x="258" y="634"/>
      <point x="307" y="639" type="curve"/>
      <point x="310" y="600" type="line"/>
      <point x="242" y="588"/>
      <point x="240" y="585"/>
      <point x="237" y="534" type="curve" smooth="yes"/>
      <point x="234" y="488"/>
      <point x="233" y="424"/>
      <point x="233" y="355" type="curve" smooth="yes"/>
      <point x="233" y="272"/>
      <point x="235" y="182"/>
      <point x="237" y="108" type="curve" smooth="yes"/>
      <point x="239" y="53"/>
      <point x="245" y="50"/>
      <point x="310" y="36" type="curve"/>
      <point x="305" y="-3" type="line"/>
      <point x="256" y="1"/>
      <point x="213" y="3"/>
      <point x="171" y="3" type="curve" smooth="yes"/>
      <point x="128" y="3"/>
      <point x="86" y="1"/>
      <point x="37" y="-3" type="curve"/>
      <point x="32" y="36" type="line"/>
      <point x="112" y="53"/>
      <point x="108" y="55"/>
      <point x="111" y="107" type="curve" smooth="yes"/>
      <point x="114" y="169"/>
      <point x="115" y="234"/>
      <point x="115" y="299" type="curve" smooth="yes"/>
      <point x="115" y="378"/>
      <point x="113" y="458"/>
      <point x="111" y="533" type="curve" smooth="yes"/>
      <point x="109" y="584"/>
      <point x="101" y="591"/>
      <point x="32" y="600" type="curve"/>
    </contour>
    <contour>
      <point x="91" y="687" type="curve" smooth="yes"/>
      <point x="52" y="687"/>
      <point x="40" y="714"/>
      <point x="40" y="735" type="curve" smooth="yes"/>
      <point x="40" y="763"/>
      <point x="62" y="788"/>
      <point x="94" y="788" type="curve" smooth="yes"/>
      <point x="130" y="788"/>
      <point x="144" y="764"/>
      <point x="144" y="741" type="curve" smooth="yes"/>
      <point x="144" y="714"/>
      <point x="126" y="687"/>
    </contour>
    <contour>
      <point x="255" y="687" type="curve" smooth="yes"/>
      <point x="216" y="687"/>
      <point x="204" y="714"/>
      <point x="204" y="735" type="curve" smooth="yes"/>
      <point x="204" y="763"/>
      <point x="225" y="788"/>
      <point x="257" y="788" type="curve" smooth="yes"/>
      <point x="293" y="788"/>
      <point x="308" y="764"/>
      <point x="308" y="741" type="curve" smooth="yes"/>
      <point x="308" y="714"/>
      <point x="290" y="687"/>
    </contour>
  </outline>
</glyph>
<glyph name="Ntilde" format="1">
  <advance width="739"/>
  <unicode hex="00D1"/>
  <outline>
    <contour>
      <point x="163" y="475" type="curve"/>
      <point x="162" y="415"/>
      <point x="169" y="165"/>
      <point x="170" y="142" type="curve" smooth="yes"/>
      <point x="173" y="77"/>
      <point x="175" y="49"/>
      <point x="258" y="36" type="curve"/>
      <point x="255" y="-3" type="line"/>
      <point x="232" y="0"/>
      <point x="189" y="2"/>
      <point x="145" y="2" type="curve" smooth="yes"/>
      <point x="105" y="2"/>
      <point x="64" y="0"/>
      <point x="39" y="-3" type="curve"/>
      <point x="36" y="36" type="line"/>
      <point x="110" y="48"/>
      <point x="112" y="60"/>
      <point x="116" y="147" type="curve" smooth="yes"/>
      <point x="120" y="219"/>
      <point x="120" y="451"/>
      <point x="120" y="518" type="curve" smooth="yes"/>
      <point x="120" y="560"/>
      <point x="95" y="588"/>
      <point x="36" y="599" type="curve"/>
      <point x="40" y="639" type="line"/>
      <point x="75" y="636"/>
      <point x="103" y="634"/>
      <point x="128" y="634" type="curve" smooth="yes"/>
      <point x="155" y="634"/>
      <point x="179" y="636"/>
      <point x="206" y="639" type="curve"/>
      <point x="224" y="605"/>
      <point x="241" y="577"/>
      <point x="263" y="550" type="curve" smooth="yes"/>
      <point x="393" y="387"/>
      <point x="479" y="293"/>
      <point x="594" y="160" type="curve"/>
      <point x="594" y="231" type="line" smooth="yes"/>
      <point x="594" y="319"/>
      <point x="593" y="435"/>
      <point x="590" y="512" type="curve" smooth="yes"/>
      <point x="587" y="580"/>
      <point x="561" y="588"/>
      <point x="510" y="600" type="curve"/>
      <point x="515" y="639" type="line"/>
      <point x="544" y="634"/>
      <point x="570" y="633"/>
      <point x="597" y="633" type="curve" smooth="yes"/>
      <point x="629" y="633"/>
      <point x="663" y="635"/>
      <point x="704" y="639" type="curve"/>
      <point x="707" y="600" type="line"/>
      <point x="652" y="589"/>
      <point x="648" y="571"/>
      <point x="645" y="520" type="curve" smooth="yes"/>
      <point x="642" y="465"/>
      <point x="640" y="307"/>
      <point x="640" y="209" type="curve" smooth="yes"/>
      <point x="640" y="158" type="line" smooth="yes"/>
      <point x="640" y="106"/>
      <point x="651" y="89"/>
      <point x="686" y="44" type="curve"/>
      <point x="644" y="24"/>
      <point x="631" y="15"/>
      <point x="588" y="-21" type="curve"/>
      <point x="442" y="157"/>
      <point x="269" y="359"/>
    </contour>
    <contour>
      <point x="379" y="809" type="curve" smooth="yes"/>
      <point x="402" y="808"/>
      <point x="422" y="805"/>
      <point x="443" y="804" type="curve" smooth="yes"/>
      <point x="483" y="803"/>
      <point x="504" y="823"/>
      <point x="532" y="861" type="curve"/>
      <point x="565" y="842" type="line"/>
      <point x="540" y="803"/>
      <point x="509" y="764"/>
      <point x="490" y="744" type="curve" smooth="yes"/>
      <point x="469" y="723"/>
      <point x="451" y="715"/>
      <point x="416" y="717" type="curve" smooth="yes"/>
      <point x="395" y="719"/>
      <point x="372" y="722"/>
      <point x="346" y="722" type="curve" smooth="yes"/>
      <point x="320" y="723"/>
      <point x="309" y="716"/>
      <point x="275" y="675" type="curve"/>
      <point x="239" y="693" type="line"/>
      <point x="266" y="739"/>
      <point x="288" y="766"/>
      <point x="304" y="781" type="curve" smooth="yes"/>
      <point x="328" y="804"/>
      <point x="343" y="811"/>
    </contour>
  </outline>
</glyph>
<glyph name="multiply" format="1">
  <advance width="470"/>
  <unicode hex="00D7"/>
  <outline>
    <contour>
      <point x="35" y="428" type="line"/>
      <point x="70" y="464" type="line"/>
      <point x="235" y="299" type="line"/>
      <point x="401" y="465" type="line"/>
      <point x="436" y="430" type="line"/>
      <point x="270" y="264" type="line"/>
      <point x="435" y="98" type="line"/>
      <point x="400" y="62" type="line"/>
      <point x="235" y="228" type="line"/>
      <point x="69" y="62" type="line"/>
      <point x="34" y="97" type="line"/>
      <point x="200" y="263" type="line"/>
    </contour>
  </outline>
</glyph>
<glyph name="Oslash" format="1">
  <advance width="728"/>
  <unicode hex="00D8"/>
  <outline>
    <contour>
      <point x="353" y="-14" type="curve" smooth="yes"/>
      <point x="270" y="-14"/>
      <point x="207" y="10"/>
      <point x="159" y="47" type="curve"/>
      <point x="137" y="22"/>
      <point x="117" y="-1"/>
      <point x="100" y="-22" type="curve"/>
      <point x="59" y="15" type="line"/>
      <point x="77" y="35"/>
      <point x="98" y="59"/>
      <point x="119" y="84" type="curve"/>
      <point x="64" y="147"/>
      <point x="41" y="229"/>
      <point x="41" y="300" type="curve" smooth="yes"/>
      <point x="41" y="390"/>
      <point x="65" y="514"/>
      <point x="176" y="592" type="curve" smooth="yes"/>
      <point x="233" y="632"/>
      <point x="340" y="655"/>
      <point x="375" y="655" type="curve" smooth="yes"/>
      <point x="454" y="655"/>
      <point x="516" y="632"/>
      <point x="562" y="597" type="curve"/>
      <point x="614" y="658" type="line"/>
      <point x="656" y="621" type="line"/>
      <point x="603" y="560" type="line"/>
      <point x="661" y="494"/>
      <point x="685" y="406"/>
      <point x="685" y="336" type="curve" smooth="yes"/>
      <point x="685" y="215"/>
      <point x="640" y="121"/>
      <point x="559" y="52" type="curve" smooth="yes"/>
      <point x="532" y="30"/>
      <point x="432" y="-14"/>
    </contour>
    <contour>
      <point x="519" y="464" type="curve"/>
      <point x="428" y="359"/>
      <point x="324" y="240"/>
      <point x="233" y="134" type="curve"/>
      <point x="246" y="118"/>
      <point x="261" y="103"/>
      <point x="277" y="92" type="curve" smooth="yes"/>
      <point x="313" y="66"/>
      <point x="358" y="54"/>
      <point x="397" y="54" type="curve" smooth="yes"/>
      <point x="419" y="54"/>
      <point x="438" y="58"/>
      <point x="453" y="65" type="curve" smooth="yes"/>
      <point x="512" y="91"/>
      <point x="553" y="169"/>
      <point x="553" y="305" type="curve" smooth="yes"/>
      <point x="553" y="368"/>
      <point x="539" y="421"/>
    </contour>
    <contour>
      <point x="171" y="320" type="curve" smooth="yes"/>
      <point x="171" y="271"/>
      <point x="183" y="223"/>
      <point x="204" y="181" type="curve"/>
      <point x="490" y="513" type="line"/>
      <point x="481" y="525"/>
      <point x="472" y="536"/>
      <point x="463" y="545" type="curve" smooth="yes"/>
      <point x="430" y="578"/>
      <point x="384" y="594"/>
      <point x="343" y="594" type="curve" smooth="yes"/>
      <point x="315" y="594"/>
      <point x="289" y="586"/>
      <point x="270" y="573" type="curve" smooth="yes"/>
      <point x="213" y="533"/>
      <point x="171" y="464"/>
    </contour>
  </outline>
</glyph>
<glyph name="germandbls" format="1">
  <advance width="606"/>
  <unicode hex="00DF"/>
  <outline>
    <contour>
      <point x="213" y="416" type="curve" smooth="yes"/>
      <point x="215" y="251"/>
      <point x="216" y="150"/>
      <point x="218" y="99" type="curve" smooth="yes"/>
      <point x="220" y="53"/>
      <point x="221" y="40"/>
      <point x="246" y="36" type="curve"/>
      <point x="242" y="-5" type="line"/>
      <point x="192" y="1"/>
      <point x="166" y="4"/>
      <point x="142" y="4" type="curve" smooth="yes"/>
      <point x="115" y="4"/>
      <point x="89" y="0"/>
      <point x="35" y="-5" type="curve"/>
      <point x="32" y="36" type="line"/>
      <point x="92" y="45"/>
      <point x="100" y="46"/>
      <point x="102" y="97" type="curve" smooth="yes"/>
      <point x="104" y="140"/>
      <point x="105" y="252"/>
      <point x="105" y="366" type="curve"/>
      <point x="87" y="367"/>
      <point x="58" y="365"/>
      <point x="29" y="364" type="curve"/>
      <point x="26" y="393" type="line"/>
      <point x="50" y="398"/>
      <point x="91" y="410"/>
      <point x="106" y="417" type="curve"/>
      <point x="106" y="433"/>
      <point x="105" y="443"/>
      <point x="105" y="452" type="curve" smooth="yes"/>
      <point x="105" y="469"/>
      <point x="106" y="478"/>
      <point x="109" y="505" type="curve"/>
      <point x="110" y="530"/>
      <point x="120" y="555"/>
      <point x="139" y="580" type="curve" smooth="yes"/>
      <point x="158" y="604"/>
      <point x="190" y="639"/>
      <point x="234" y="671" type="curve"/>
      <point x="275" y="703"/>
      <point x="300" y="711"/>
      <point x="348" y="705" type="curve"/>
      <point x="427" y="693"/>
      <point x="488" y="640"/>
      <point x="500" y="556" type="curve" smooth="yes"/>
      <point x="504" y="522"/>
      <point x="499" y="479"/>
      <point x="462" y="446" type="curve" smooth="yes"/>
      <point x="439" y="425"/>
      <point x="394" y="400"/>
      <point x="377" y="374" type="curve" smooth="yes"/>
      <point x="370" y="362"/>
      <point x="369" y="347"/>
      <point x="395" y="325" type="curve" smooth="yes"/>
      <point x="420" y="305"/>
      <point x="494" y="268"/>
      <point x="525" y="245" type="curve" smooth="yes"/>
      <point x="549" y="227"/>
      <point x="567" y="192"/>
      <point x="567" y="151" type="curve" smooth="yes"/>
      <point x="567" y="139"/>
      <point x="565" y="127"/>
      <point x="562" y="114" type="curve" smooth="yes"/>
      <point x="551" y="75"/>
      <point x="522" y="39"/>
      <point x="485" y="9" type="curve" smooth="yes"/>
      <point x="465" y="-7"/>
      <point x="444" y="-12"/>
      <point x="421" y="-12" type="curve" smooth="yes"/>
      <point x="411" y="-12"/>
      <point x="401" y="-11"/>
      <point x="390" y="-10" type="curve" smooth="yes"/>
      <point x="353" y="-6"/>
      <point x="315" y="1"/>
      <point x="280" y="11" type="curve"/>
      <point x="294" y="33"/>
      <point x="315" y="88"/>
      <point x="316" y="120" type="curve"/>
      <point x="355" y="95"/>
      <point x="382" y="86"/>
      <point x="422" y="78" type="curve" smooth="yes"/>
      <point x="434" y="75"/>
      <point x="445" y="74"/>
      <point x="455" y="74" type="curve" smooth="yes"/>
      <point x="478" y="74"/>
      <point x="494" y="81"/>
      <point x="499" y="90" type="curve" smooth="yes"/>
      <point x="508" y="110"/>
      <point x="484" y="134"/>
      <point x="460" y="152" type="curve" smooth="yes"/>
      <point x="435" y="170"/>
      <point x="352" y="214"/>
      <point x="320" y="240" type="curve"/>
      <point x="297" y="260"/>
      <point x="290" y="284"/>
      <point x="290" y="308" type="curve" smooth="yes"/>
      <point x="290" y="318"/>
      <point x="291" y="329"/>
      <point x="293" y="338" type="curve" smooth="yes"/>
      <point x="300" y="370"/>
      <point x="326" y="399"/>
      <point x="358" y="425" type="curve" smooth="yes"/>
      <point x="395" y="456"/>
      <point x="407" y="482"/>
      <point x="399" y="521" type="curve" smooth="yes"/>
      <point x="388" y="575"/>
      <point x="343" y="610"/>
      <point x="294" y="616" type="curve" smooth="yes"/>
      <point x="244" y="623"/>
      <point x="227" y="597"/>
      <point x="220" y="555" type="curve" smooth="yes"/>
      <point x="215" y="528"/>
      <point x="213" y="465"/>
    </contour>
  </outline>
</glyph>
<glyph name="agrave" format="1">
  <advance width="464"/>
  <unicode hex="00E0"/>
  <outline>
    <contour>
      <point x="35" y="84" type="curve"/>
      <point x="30" y="128"/>
      <point x="50" y="201"/>
      <point x="161" y="230" type="curve" smooth="yes"/>
      <point x="193" y="238"/>
      <point x="220" y="243"/>
      <point x="260" y="248" type="curve"/>
      <point x="261" y="271" type="line" smooth="yes"/>
      <point x="263" y="314"/>
      <point x="241" y="326"/>
      <point x="200" y="330" type="curve" smooth="yes"/>
      <point x="182" y="332"/>
      <point x="164" y="333"/>
      <point x="146" y="333" type="curve" smooth="yes"/>
      <point x="122" y="333"/>
      <point x="98" y="331"/>
      <point x="74" y="328" type="curve"/>
      <point x="89" y="358"/>
      <point x="96" y="387"/>
      <point x="99" y="419" type="curve"/>
      <point x="122" y="420"/>
      <point x="145" y="421"/>
      <point x="166" y="421" type="curve" smooth="yes"/>
      <point x="209" y="421"/>
      <point x="248" y="418"/>
      <point x="279" y="413" type="curve" smooth="yes"/>
      <point x="338" y="402"/>
      <point x="371" y="360"/>
      <point x="371" y="321" type="curve" smooth="yes"/>
      <point x="372" y="279"/>
      <point x="370" y="220"/>
      <point x="370" y="168" type="curve" smooth="yes"/>
      <point x="370" y="149"/>
      <point x="370" y="132"/>
      <point x="371" y="116" type="curve" smooth="yes"/>
      <point x="373" y="63"/>
      <point x="377" y="58"/>
      <point x="441" y="61" type="curve"/>
      <point x="448" y="27" type="line"/>
      <point x="422" y="19"/>
      <point x="370" y="1"/>
      <point x="340" y="-8" type="curve" smooth="yes"/>
      <point x="330" y="-11"/>
      <point x="320" y="-12"/>
      <point x="310" y="-12" type="curve" smooth="yes"/>
      <point x="287" y="-12"/>
      <point x="268" y="-2"/>
      <point x="262" y="28" type="curve"/>
      <point x="237" y="15"/>
      <point x="215" y="6"/>
      <point x="179" y="-6" type="curve" smooth="yes"/>
      <point x="160" y="-13"/>
      <point x="142" y="-17"/>
      <point x="125" y="-17" type="curve" smooth="yes"/>
      <point x="103" y="-17"/>
      <point x="84" y="-10"/>
      <point x="69" y="6" type="curve" smooth="yes"/>
      <point x="50" y="25"/>
      <point x="40" y="49"/>
    </contour>
    <contour>
      <point x="147" y="101" type="curve" smooth="yes"/>
      <point x="151" y="74"/>
      <point x="163" y="56"/>
      <point x="198" y="58" type="curve" smooth="yes"/>
      <point x="215" y="59"/>
      <point x="237" y="63"/>
      <point x="260" y="68" type="curve"/>
      <point x="259" y="86"/>
      <point x="258" y="103"/>
      <point x="258" y="121" type="curve" smooth="yes"/>
      <point x="258" y="149"/>
      <point x="259" y="177"/>
      <point x="260" y="204" type="curve"/>
      <point x="205" y="195"/>
      <point x="135" y="183"/>
    </contour>
    <contour>
      <point x="267" y="493" type="curve"/>
      <point x="234" y="478" type="line"/>
      <point x="200" y="537"/>
      <point x="162" y="596"/>
      <point x="122" y="640" type="curve"/>
      <point x="160" y="649"/>
      <point x="186" y="660"/>
      <point x="229" y="683" type="curve"/>
      <point x="237" y="610"/>
      <point x="249" y="555"/>
    </contour>
  </outline>
</glyph>
<glyph name="aring" format="1">
  <advance width="464"/>
  <unicode hex="00E5"/>
  <outline>
    <contour>
      <point x="35" y="84" type="curve"/>
      <point x="30" y="128"/>
      <point x="50" y="201"/>
      <point x="161" y="230" type="curve" smooth="yes"/>
      <point x="193" y="238"/>
      <point x="220" y="243"/>
      <point x="260" y="248" type="curve"/>
      <point x="261" y="271" type="line" smooth="yes"/>
      <point x="263" y="314"/>
      <point x="241" y="326"/>
      <point x="200" y="330" type="curve" smooth="yes"/>
      <point x="182" y="332"/>
      <point x="164" y="333"/>
      <point x="146" y="333" type="curve" smooth="yes"/>
      <point x="122" y="333"/>
      <point x="98" y="331"/>
      <point x="74" y="328" type="curve"/>
      <point x="89" y="358"/>
      <point x="96" y="387"/>
      <point x="99" y="419" type="curve"/>
      <point x="122" y="420"/>
      <point x="145" y="421"/>
      <point x="166" y="421" type="curve" smooth="yes"/>
      <point x="209" y="421"/>
      <point x="248" y="418"/>
      <point x="279" y="413" type="curve" smooth="yes"/>
      <point x="338" y="402"/>
      <point x="371" y="360"/>
      <point x="371" y="321" type="curve" smooth="yes"/>
      <point x="372" y="279"/>
      <point x="370" y="220"/>
      <point x="370" y="168" type="curve" smooth="yes"/>
      <point x="370" y="149"/>
      <point x="370" y="132"/>
      <point x="371" y="116" type="curve" smooth="yes"/>
      <point x="373" y="63"/>
      <point x="377" y="58"/>
      <point x="441" y="61" type="curve"/>
      <point x="448" y="27" type="line"/>
      <point x="422" y="19"/>
      <point x="370" y="1"/>
      <point x="340" y="-8" type="curve" smooth="yes"/>
      <point x="330" y="-11"/>
      <point x="320" y="-12"/>
      <point x="310" y="-12" type="curve" smooth="yes"/>
      <point x="287" y="-12"/>
      <point x="268" y="-2"/>
      <point x="262" y="28" type="curve"/>
      <point x="237" y="15"/>
      <point x="215" y="6"/>
      <point x="179" y="-6" type="curve" smooth="yes"/>
      <point x="160" y="-13"/>
      <point x="142" y="-17"/>
      <point x="125" y="-17" type="curve" smooth="yes"/>
      <point x="103" y="-17"/>
      <point x="84" y="-10"/>
      <point x="69" y="6" type="curve" smooth="yes"/>
      <point x="50" y="25"/>
      <point x="40" y="49"/>
    </contour>
    <contour>
      <point x="147" y="101" type="curve" smooth="yes"/>
      <point x="151" y="74"/>
      <point x="163" y="56"/>
      <point x="198" y="58" type="curve" smooth="yes"/>
      <point x="215" y="59"/>
      <point x="237" y="63"/>
      <point x="260" y="68" type="curve"/>
      <point x="259" y="86"/>
      <point x="258" y="103"/>
      <point x="258" y="121" type="curve" smooth="yes"/>
      <point x="258" y="149"/>
      <point x="259" y="177"/>
      <point x="260" y="204" type="curve"/>
      <point x="205" y="195"/>
      <point x="135" y="183"/>
    </contour>
    <contour>
      <point x="129" y="560" type="curve" smooth="yes"/>
      <point x="131" y="610"/>
      <point x="172" y="645"/>
      <point x="218" y="645" type="curve" smooth="yes"/>
      <point x="266" y="645"/>
      <point x="306" y="612"/>
      <point x="305" y="560" type="curve" smooth="yes"/>
      <point x="305" y="510"/>
      <point x="262" y="475"/>
      <point x="214" y="475" type="curve" smooth="yes"/>
      <point x="168" y="475"/>
      <point x="127" y="507"/>
    </contour>
    <contour>
      <point x="176" y="558" type="curve"/>
      <point x="175" y="534"/>
      <point x="192" y="516"/>
      <point x="216" y="516" type="curve" smooth="yes"/>
      <point x="242" y="516"/>
      <point x="258" y="534"/>
      <point x="259" y="558" type="curve"/>
      <point x="259" y="583"/>
      <point x="242" y="601"/>
      <point x="217" y="601" type="curve" smooth="yes"/>
      <point x="192" y="601"/>
      <point x="176" y="583"/>
    </contour>
  </outline>
</glyph>
<glyph name="ae" format="1">
  <advance width="677"/>
  <unicode hex="00E6"/>
  <outline>
    <contour>
      <point x="633" y="206" type="curve"/>
      <point x="573" y="204"/>
      <point x="430" y="203"/>
      <point x="378" y="203" type="curve"/>
      <point x="378" y="148"/>
      <point x="392" y="57"/>
      <point x="495" y="58" type="curve" smooth="yes"/>
      <point x="533" y="59"/>
      <point x="577" y="69"/>
      <point x="616" y="81" type="curve"/>
      <point x="632" y="44" type="line"/>
      <point x="575" y="19"/>
      <point x="536" y="4"/>
      <point x="489" y="-9" type="curve" smooth="yes"/>
      <point x="472" y="-14"/>
      <point x="453" y="-18"/>
      <point x="432" y="-18" type="curve" smooth="yes"/>
      <point x="413" y="-18"/>
      <point x="393" y="-15"/>
      <point x="369" y="-6" type="curve" smooth="yes"/>
      <point x="344" y="3"/>
      <point x="320" y="19"/>
      <point x="303" y="40" type="curve"/>
      <point x="273" y="27"/>
      <point x="232" y="7"/>
      <point x="195" y="-5" type="curve" smooth="yes"/>
      <point x="174" y="-12"/>
      <point x="152" y="-16"/>
      <point x="132" y="-16" type="curve" smooth="yes"/>
      <point x="108" y="-16"/>
      <point x="86" y="-10"/>
      <point x="70" y="6" type="curve" smooth="yes"/>
      <point x="51" y="25"/>
      <point x="39" y="53"/>
      <point x="35" y="85" type="curve" smooth="yes"/>
      <point x="30" y="129"/>
      <point x="49" y="201"/>
      <point x="160" y="230" type="curve" smooth="yes"/>
      <point x="192" y="238"/>
      <point x="217" y="243"/>
      <point x="257" y="248" type="curve"/>
      <point x="258" y="271" type="line" smooth="yes"/>
      <point x="260" y="314"/>
      <point x="239" y="326"/>
      <point x="198" y="330" type="curve" smooth="yes"/>
      <point x="180" y="332"/>
      <point x="162" y="333"/>
      <point x="144" y="333" type="curve" smooth="yes"/>
      <point x="120" y="333"/>
      <point x="97" y="331"/>
      <point x="73" y="328" type="curve"/>
      <point x="88" y="358"/>
      <point x="94" y="387"/>
      <point x="97" y="419" type="curve"/>
      <point x="121" y="420"/>
      <point x="143" y="421"/>
      <point x="164" y="421" type="curve" smooth="yes"/>
      <point x="206" y="421"/>
      <point x="242" y="418"/>
      <point x="273" y="413" type="curve"/>
      <point x="303" y="407"/>
      <point x="326" y="394"/>
      <point x="342" y="377" type="curve"/>
      <point x="394" y="410"/>
      <point x="443" y="428"/>
      <point x="480" y="428" type="curve" smooth="yes"/>
      <point x="570" y="428"/>
      <point x="634" y="361"/>
      <point x="634" y="240" type="curve" smooth="yes"/>
      <point x="634" y="231"/>
      <point x="634" y="215"/>
    </contour>
    <contour>
      <point x="195" y="62" type="curve" smooth="yes"/>
      <point x="221" y="64"/>
      <point x="252" y="72"/>
      <point x="280" y="80" type="curve"/>
      <point x="263" y="119"/>
      <point x="259" y="160"/>
      <point x="258" y="204" type="curve"/>
      <point x="203" y="195"/>
      <point x="133" y="184"/>
      <point x="147" y="103" type="curve" smooth="yes"/>
      <point x="152" y="75"/>
      <point x="165" y="60"/>
    </contour>
    <contour>
      <point x="457" y="372" type="curve" smooth="yes"/>
      <point x="444" y="376"/>
      <point x="429" y="375"/>
      <point x="419" y="370" type="curve" smooth="yes"/>
      <point x="385" y="351"/>
      <point x="379" y="300"/>
      <point x="377" y="250" type="curve"/>
      <point x="418" y="250" type="line" smooth="yes"/>
      <point x="451" y="250"/>
      <point x="457" y="251"/>
      <point x="510" y="254" type="curve"/>
      <point x="509" y="340"/>
      <point x="477" y="365"/>
    </contour>
  </outline>
</glyph>
<glyph name="ccedilla" format="1">
  <advance width="446"/>
  <unicode hex="00E7"/>
  <outline>
    <contour>
      <point x="39" y="180" type="curve" smooth="yes"/>
      <point x="38" y="246"/>
      <point x="62" y="307"/>
      <point x="94" y="335" type="curve" smooth="yes"/>
      <point x="128" y="365"/>
      <point x="173" y="391"/>
      <point x="217" y="410" type="curve" smooth="yes"/>
      <point x="248" y="423"/>
      <point x="275" y="428"/>
      <point x="308" y="425" type="curve"/>
      <point x="345" y="423"/>
      <point x="379" y="416"/>
      <point x="413" y="414" type="curve"/>
      <point x="390" y="380"/>
      <point x="371" y="335"/>
      <point x="359" y="299" type="curve"/>
      <point x="335" y="313"/>
      <point x="296" y="328"/>
      <point x="277" y="335" type="curve" smooth="yes"/>
      <point x="254" y="343"/>
      <point x="204" y="356"/>
      <point x="186" y="341" type="curve" smooth="yes"/>
      <point x="169" y="326"/>
      <point x="159" y="274"/>
      <point x="159" y="215" type="curve" smooth="yes"/>
      <point x="159" y="174"/>
      <point x="183" y="58"/>
      <point x="284" y="59" type="curve" smooth="yes"/>
      <point x="322" y="60"/>
      <point x="360" y="68"/>
      <point x="399" y="80" type="curve"/>
      <point x="415" y="43" type="line"/>
      <point x="357" y="18"/>
      <point x="325" y="6"/>
      <point x="277" y="-9" type="curve"/>
      <point x="264" y="-12"/>
      <point x="250" y="-16"/>
      <point x="235" y="-17" type="curve"/>
      <point x="228" y="-45" type="line"/>
      <point x="245" y="-53"/>
      <point x="259" y="-61"/>
      <point x="269" y="-71" type="curve" smooth="yes"/>
      <point x="281" y="-83"/>
      <point x="287" y="-98"/>
      <point x="287" y="-114" type="curve" smooth="yes"/>
      <point x="287" y="-131"/>
      <point x="280" y="-149"/>
      <point x="268" y="-165" type="curve" smooth="yes"/>
      <point x="247" y="-193"/>
      <point x="222" y="-217"/>
      <point x="189" y="-239" type="curve"/>
      <point x="164" y="-212" type="line"/>
      <point x="187" y="-195"/>
      <point x="194" y="-185"/>
      <point x="203" y="-170" type="curve" smooth="yes"/>
      <point x="213" y="-154"/>
      <point x="212" y="-130"/>
      <point x="159" y="-104" type="curve"/>
      <point x="172" y="-76"/>
      <point x="183" y="-44"/>
      <point x="192" y="-16" type="curve"/>
      <point x="180" y="-14"/>
      <point x="167" y="-11"/>
      <point x="154" y="-6" type="curve" smooth="yes"/>
      <point x="78" y="21"/>
      <point x="40" y="100"/>
    </contour>
  </outline>
</glyph>
<glyph name="igrave" format="1">
  <advance width="302"/>
  <unicode hex="00EC"/>
  <outline>
    <contour>
      <point x="99" y="97" type="curve" smooth="yes"/>
      <point x="101" y="147"/>
      <point x="102" y="186"/>
      <point x="102" y="228" type="curve" smooth="yes"/>
      <point x="102" y="251"/>
      <point x="102" y="275"/>
      <point x="101" y="303" type="curve" smooth="yes"/>
      <point x="100" y="338"/>
      <point x="89" y="349"/>
      <point x="60" y="349" type="curve" smooth="yes"/>
      <point x="51" y="349"/>
      <point x="40" y="348"/>
      <point x="28" y="346" type="curve"/>
      <point x="23" y="384" type="line"/>
      <point x="96" y="407"/>
      <point x="141" y="418"/>
      <point x="219" y="431" type="curve"/>
      <point x="215" y="386"/>
      <point x="212" y="315"/>
      <point x="212" y="239" type="curve" smooth="yes"/>
      <point x="212" y="193"/>
      <point x="213" y="145"/>
      <point x="215" y="99" type="curve" smooth="yes"/>
      <point x="217" y="53"/>
      <point x="217" y="46"/>
      <point x="280" y="36" type="curve"/>
      <point x="275" y="-5" type="line"/>
      <point x="225" y="1"/>
      <point x="192" y="4"/>
      <point x="159" y="4" type="curve" smooth="yes"/>
      <point x="122" y="4"/>
      <point x="87" y="0"/>
      <point x="32" y="-5" type="curve"/>
      <point x="30" y="36" type="line"/>
      <point x="90" y="45"/>
      <point x="97" y="46"/>
    </contour>
    <contour>
      <point x="189" y="493" type="curve"/>
      <point x="156" y="478" type="line"/>
      <point x="122" y="537"/>
      <point x="84" y="596"/>
      <point x="44" y="640" type="curve"/>
      <point x="82" y="649"/>
      <point x="108" y="660"/>
      <point x="151" y="683" type="curve"/>
      <point x="159" y="610"/>
      <point x="171" y="555"/>
    </contour>
  </outline>
</glyph>
<glyph name="iacute" format="1">
  <advance width="302"/>
  <unicode hex="00ED"/>
  <outline>
    <contour>
      <point x="99" y="97" type="curve" smooth="yes"/>
      <point x="101" y="147"/>
      <point x="102" y="186"/>
      <point x="102" y="228" type="curve" smooth="yes"/>
      <point x="102" y="251"/>
      <point x="102" y="275"/>
      <point x="101" y="303" type="curve" smooth="yes"/>
      <point x="100" y="338"/>
      <point x="89" y="349"/>
      <point x="60" y="349" type="curve" smooth="yes"/>
      <point x="51" y="349"/>
      <point x="40" y="348"/>
      <point x="28" y="346" type="curve"/>
      <point x="23" y="384" type="line"/>
      <point x="96" y="407"/>
      <point x="141" y="418"/>
      <point x="219" y="431" type="curve"/>
      <point x="215" y="386"/>
      <point x="212" y="315"/>
      <point x="212" y="239" type="curve" smooth="yes"/>
      <point x="212" y="193"/>
      <point x="213" y="145"/>
      <point x="215" y="99" type="curve" smooth="yes"/>
      <point x="217" y="53"/>
      <point x="217" y="46"/>
      <point x="280" y="36" type="curve"/>
      <point x="275" y="-5" type="line"/>
      <point x="225" y="1"/>
      <point x="192" y="4"/>
      <point x="159" y="4" type="curve" smooth="yes"/>
      <point x="122" y="4"/>
      <point x="87" y="0"/>
      <point x="32" y="-5" type="curve"/>
      <point x="30" y="36" type="line"/>
      <point x="90" y="45"/>
      <point x="97" y="46"/>
    </contour>
    <contour>
      <point x="156" y="478" type="curve"/>
      <point x="123" y="489" type="line"/>
      <point x="143" y="550"/>
      <point x="157" y="607"/>
      <point x="168" y="679" type="curve"/>
      <point x="210" y="655"/>
      <point x="239" y="649"/>
      <point x="276" y="639" type="curve"/>
      <point x="235" y="596"/>
      <point x="192" y="536"/>
    </contour>
  </outline>
</glyph>
